<?xml version="1.0" standalone="no"?>
<!DOCTYPE svg PUBLIC "-//W3C//DTD SVG 20010904//EN"
 "http://www.w3.org/TR/2001/REC-SVG-20010904/DTD/svg10.dtd">
<svg version="1.0" xmlns="http://www.w3.org/2000/svg"
 width="248.000000pt" height="248.000000pt" viewBox="0 0 248.000000 248.000000"
 preserveAspectRatio="xMidYMid meet">
<metadata>
Created by potrace 1.11, written by Peter Selinger 2001-2013
</metadata>
<g transform="translate(0.000000,248.000000) scale(0.100000,-0.100000)"
fill="#000000" stroke="none">
<path d="M716 2391 l-88 -88 106 4 c101 3 143 -8 74 -20 -18 -3 -85 -17 -148
-30 -113 -24 -117 -26 -207 -93 l-92 -69 1 -147 c1 -152 1 -154 41 -120 9 8
20 12 24 9 7 -8 -1 -24 -80 -162 l-57 -100 0 -108 0 -109 34 29 c19 15 55 46
80 67 26 21 49 36 52 33 7 -6 -147 -237 -158 -237 -4 0 -8 -69 -8 -152 l0
-153 41 -42 c22 -24 42 -43 44 -43 2 0 25 37 51 82 26 46 49 85 50 87 2 1 7 0
13 -3 6 -4 -5 -48 -28 -114 l-39 -107 163 -223 c90 -123 165 -225 168 -228 3
-3 28 33 57 80 47 76 70 102 70 79 0 -5 -11 -47 -23 -96 -17 -61 -21 -89 -13
-95 6 -4 44 -23 84 -42 l73 -34 33 38 c38 45 52 36 33 -20 l-14 -38 66 -82
c36 -44 77 -95 92 -113 l25 -32 92 116 c90 116 91 117 78 149 -19 45 -28 86
-19 86 5 0 23 -23 42 -50 18 -28 37 -50 41 -50 4 0 43 17 87 38 l81 37 -28
108 c-29 111 -25 134 10 69 36 -65 85 -141 92 -144 4 -2 81 98 172 222 l164
225 -44 125 c-50 142 -47 130 -35 130 5 0 35 -45 67 -100 32 -55 61 -100 64
-100 4 0 25 23 48 51 l42 52 0 124 0 125 -95 141 c-53 78 -91 143 -86 145 5 2
18 -5 28 -15 33 -32 135 -118 144 -121 5 -2 9 41 9 96 l0 99 -76 137 c-42 75
-74 139 -70 143 3 4 20 -3 36 -16 l30 -22 0 148 -1 148 -60 45 c-34 25 -73 55
-88 68 -14 12 -33 24 -41 27 -14 4 -205 42 -262 52 -63 12 -21 21 78 19 l105
-3 -68 70 c-37 38 -76 78 -85 88 -16 16 -34 19 -131 19 -94 0 -117 -3 -133
-17 -61 -55 -97 -84 -100 -80 -2 2 3 20 11 40 8 20 15 41 15 47 0 6 -43 10
-115 10 -74 0 -115 -4 -115 -10 0 -6 7 -25 16 -41 27 -53 10 -53 -51 0 l-60
51 -110 0 -110 0 -89 -89z m435 -377 c53 -19 49 -11 70 -144 13 -86 19 -79 39
46 l12 81 61 22 c34 11 68 21 74 21 7 0 76 -35 153 -77 136 -75 140 -78 104
-81 -21 -2 -33 -6 -28 -10 5 -4 31 -40 57 -81 l47 -75 0 -175 0 -176 -46 -59
-47 -59 -31 34 c-17 19 -68 79 -113 133 -46 54 -83 95 -83 91 0 -3 30 -66 68
-138 l67 -132 -3 -80 c-3 -79 -3 -80 -37 -104 -32 -22 -35 -27 -35 -76 0 -49
-3 -55 -42 -91 l-43 -39 -162 0 -162 0 -40 40 c-37 36 -41 45 -41 91 0 47 -3
53 -35 75 l-35 24 0 88 c0 87 0 88 57 195 31 59 61 113 66 120 5 7 8 15 5 18
-3 3 -25 -19 -49 -47 -24 -29 -63 -73 -86 -97 -24 -25 -43 -48 -43 -51 -1 -14
-40 -52 -48 -47 -5 3 -28 30 -51 59 l-41 54 0 173 0 172 35 58 c19 32 42 63
50 70 20 16 19 40 -1 40 -36 0 -1 29 112 91 129 71 139 74 225 43z"/>
<path d="M868 1696 c-52 -31 -53 -31 -23 -34 18 -2 43 -17 64 -39 32 -34 35
-35 97 -31 l64 4 0 -31 c1 -29 2 -28 27 20 14 28 29 51 33 53 5 2 -12 22 -36
44 -42 38 -48 41 -109 43 -55 1 -71 -3 -117 -29z"/>
<path d="M1419 1721 c-9 -3 -29 -22 -46 -41 l-31 -35 29 -55 c28 -54 28 -54
29 -22 0 27 3 32 18 28 9 -3 39 -6 65 -8 44 -2 51 1 80 34 20 23 43 37 62 40
l29 3 -45 30 c-37 25 -55 30 -109 31 -36 1 -72 -1 -81 -5z"/>
<path d="M1112 1423 c-16 -59 -18 -79 -9 -86 9 -7 9 -10 0 -14 -7 -2 -13 -11
-13 -20 0 -10 -6 -12 -20 -8 -19 6 -19 5 3 -28 12 -19 25 -33 29 -30 10 5 58
-42 58 -57 0 -6 5 -8 11 -5 19 12 47 -24 45 -58 -1 -26 -6 -33 -26 -35 -14 -2
-51 -15 -82 -28 -32 -13 -69 -25 -83 -26 -34 -3 -31 -13 7 -24 24 -7 46 -5 85
7 63 21 201 19 252 -3 26 -12 41 -13 67 -5 42 13 44 27 4 27 -17 0 -53 11 -80
25 -27 14 -62 25 -78 25 -26 0 -28 2 -25 33 5 40 23 77 37 77 6 0 38 25 71 55
41 38 53 54 38 50 -17 -5 -23 -2 -23 11 0 14 -7 16 -52 10 -108 -13 -128 -13
-154 0 -14 8 -32 14 -40 14 -18 0 -28 19 -16 33 9 12 27 137 19 137 -2 0 -13
-35 -25 -77z"/>
<path d="M1337 1434 c5 -51 28 -103 40 -90 6 5 -28 128 -38 140 -4 4 -5 -18
-2 -50z"/>
</g>
</svg>
