<?xml version="1.0" encoding="utf-8"?>
<!-- Generator: Adobe Illustrator 20.1.0, SVG Export Plug-In . SVG Version: 6.00 Build 0)  -->
<svg version="1.1" id="Capa_1" xmlns="http://www.w3.org/2000/svg" xmlns:xlink="http://www.w3.org/1999/xlink" x="0px" y="0px"
	 viewBox="0 0 235 235" style="enable-background:new 0 0 235 235;" xml:space="preserve">
<path d="M95.1,110h48v7.5c0,26.5-21.5,48-48,48s-48-21.5-48-48s21.5-48,48-48c10.7,0,20.8,3.4,29.3,9.9l-9.1,11.9
	c-5.8-4.5-12.8-6.8-20.1-6.8c-18.2,0-33,14.8-33,33s14.8,33,33,33c15.6,0,28.8-10.9,32.2-25.5H95.1V110z M184.8,110h13.1v15h-13.1
	v13.1h-15V125h-13.1v-15h13.1V96.9h15V110z"/>
</svg>
