<svg id="bb819748-60a8-4ea9-9b0a-b96d3081a928" data-name="Слой 1" xmlns="http://www.w3.org/2000/svg" viewBox="0 0 700 300">
  <defs>
    <style>
      .e1874717-1130-4dea-b952-a047292b52fe {
        fill: #148bc4;
      }
    </style>
  </defs>
  <title>иии</title>
  <g>
    <path d="M43.78,224.07H75.35l.4-75.38c0-.37,0-.91,0-1.58.06-1.58.39-5,3.15-10.26,1.72-3.23,4.17-7.88,9.48-11.84a30.62,30.62,0,0,1,9.47-4.73,30,30,0,0,1,10.26-1.58,23.46,23.46,0,0,1,8.68,1.58,21.62,21.62,0,0,1,8.68,6.31,21.94,21.94,0,0,1,3.95,7.89,22.52,22.52,0,0,1,.79,5.53s-.26,56.17,0,58.41a25.08,25.08,0,0,0,3.16,9.47,30.41,30.41,0,0,0,9.47,10.26,36.23,36.23,0,0,0,14.67,6.14,12.58,12.58,0,0,0,2.13.18h2.14V155.8a131.77,131.77,0,0,0,0-15c-.64-11.47-1-18.32-4.73-26.05A42.68,42.68,0,0,0,120,90.28c-22.9-1.62-38.66,13.44-41,15.79a52.83,52.83,0,0,0-7.1,8.68V95a21.42,21.42,0,0,0-11,0,22.7,22.7,0,0,0-8.68,4.73,24.86,24.86,0,0,0-5.53,7.11,28.14,28.14,0,0,0-1.48,3.07,12.06,12.06,0,0,0-.9,4.48Z"/>
    <path class="e1874717-1130-4dea-b952-a047292b52fe" d="M253.35,224.47a70.72,70.72,0,0,1-15.79,1.58c-25.77-.67-44.27-20.34-48.15-24.47-4.21-4.48-11.52-12.43-15.79-25.26A62.74,62.74,0,0,1,170.47,155a66.78,66.78,0,0,1,10.26-33.16c9.58-15.25,22.51-22.18,28.41-25.26a61.49,61.49,0,0,1,21.32-7.1,63.31,63.31,0,0,1,19.73.79,68.73,68.73,0,0,1,26.05,11l3.16,2.37,1.57,1.58a22.76,22.76,0,0,1-1.57,2.37c-6.19,8.06-18,11.57-27.43,10.83a70.58,70.58,0,0,0-8.88-.57,45.71,45.71,0,0,0-8.69.79c-6.07,1.28-10.2,4.27-14.2,7.1a55.66,55.66,0,0,0-15.79,17.37c-2.06,3.56-3.95,6.89-4.74,11.84a30.74,30.74,0,0,0,.79,12.63,38.87,38.87,0,0,0,8.68,16.57,38.39,38.39,0,0,0,17.37,11,37.16,37.16,0,0,0,24.47-.79c8.17-3.29,12.76-8.82,16.58-13.42,3.06-3.68,6.74-8.13,8.68-15,1.22-4.35,1.34-8.43,1.58-16.58.12-4.39-.47-5.76,0-9.47A37.82,37.82,0,0,1,281,129a38.76,38.76,0,0,1,5.53-8.68,38.19,38.19,0,0,1,4.74-4.74c.83.95,1.93,2.3,3.15,3.95a70.83,70.83,0,0,1,8.69,15.78,64.36,64.36,0,0,1,4.73,18.16,60,60,0,0,1-1.58,21.31c-3,11.26-8.7,18.49-13.42,24.47-4.09,5.19-8.92,11.22-17.36,16.58A64.91,64.91,0,0,1,253.35,224.47Z"/>
    <path d="M401,103.7a66.32,66.32,0,0,0-10.26-5.53c-10-4.31-18.62-5-25.26-5.52s-12.73-1-20.52.79a45.54,45.54,0,0,0-15.79,6.31c-3.33,2.17-9.59,6.25-13.41,14.21a34.84,34.84,0,0,0-3.16,14.21c-.18,3.63-.4,8.19,1.58,13.42s5.2,8.46,8.68,11.84c4.51,4.38,8.69,6.67,16.58,11a80.4,80.4,0,0,0,9.47,4.73c3,1.22,4.31,1.54,7.89,3.16,2.43,1.11,1.88,1,6.32,3.16,4.83,2.36,5.71,2.6,7.1,3.95a13.54,13.54,0,0,1,3.16,4.73,11.77,11.77,0,0,1,.79,7.11,11.54,11.54,0,0,1-3.16,5.52,15.18,15.18,0,0,1-6.11,3.73,25.31,25.31,0,0,1-7.89,1.58,42.24,42.24,0,0,1-11.84-.79c-3-.62-3.95-1.16-8.89-2.15-2.63-.53-3.94-.7-4.74-.79-3.28-.36-5.34-.58-7.89,0a19.38,19.38,0,0,0-5.53,2.37,32.79,32.79,0,0,0-5.52,3.94,26.53,26.53,0,0,0-3.95,4,21.35,21.35,0,0,0-1.58,2.37l-.79,1.58c.72.59,1.8,1.43,3.16,2.37a49.17,49.17,0,0,0,13.42,6.31,131.35,131.35,0,0,0,28.42,5.53c7.17.44,12.89.79,20.52-.79,5.57-1.16,12.3-2.63,18.94-7.9A39.53,39.53,0,0,0,401,205.52a36.74,36.74,0,0,0,4.74-13.41,34.48,34.48,0,0,0-.79-13.42A35,35,0,0,0,397,164.48a47.42,47.42,0,0,0-8.68-7.11,74,74,0,0,0-7.9-4.73,126.75,126.75,0,0,0-12.63-5.53c-8.84-3.53-9.39-3.57-10.26-3.94a36,36,0,0,1-8.68-4.74c-3.45-2.68-4.37-4.6-4.74-5.53a12.87,12.87,0,0,1-.79-4.73,10.59,10.59,0,0,1,.79-4.74,10,10,0,0,1,4.15-4.16,17.68,17.68,0,0,1,6.32-2.37,27.1,27.1,0,0,1,10.17.57c1.61.31,3.08.66,5.69,1a33.78,33.78,0,0,0,3.67.25A31.75,31.75,0,0,0,386,117.12,28.82,28.82,0,0,0,397,110a28.46,28.46,0,0,0,3.15-3.94Z"/>
    <path d="M532,132.12a39.27,39.27,0,0,0-1.58-11.06,40.05,40.05,0,0,0-4.74-10.26,43.92,43.92,0,0,0-4.74-6.31,43.12,43.12,0,0,0-14.2-10.26c-10.08-4.52-19.09-3.71-25.26-3.16-4.51.4-10.74,1-17.16,4.52a59.18,59.18,0,0,0-7.11,4.74,84.11,84.11,0,0,0-7.1,6.31c-1.27,1.23-2.31,2.29-3.07,3.07l-.29-.11V47.66a48.45,48.45,0,0,0-.79-6.32,36.24,36.24,0,0,0-3.15-10.26A31.3,31.3,0,0,0,416,14.5h-.79v210h31.57V151.06a43,43,0,0,1,3.95-13.42A34.55,34.55,0,0,1,460.16,125a27.37,27.37,0,0,1,10.26-5.52,26.24,26.24,0,0,1,14.21,0,23.59,23.59,0,0,1,12.63,8.68,20.08,20.08,0,0,1,3.95,11.05c0,.33,0,.6,0,.79V195.3a19.61,19.61,0,0,0,1.46,7.41c.27.65.57,1.33.91,2,1.5,3.09,5.12,10.38,13.42,15a32.55,32.55,0,0,0,14.2,4h1.58Z"/>
    <path d="M656.7,205.52V133.69a41.56,41.56,0,0,0-4-15.78,43.08,43.08,0,0,0-11-14.21,46.85,46.85,0,0,0-18.94-9.47c-9-2.48-16.4-2.07-25.26-1.58a109.26,109.26,0,0,0-13.42,1.58c-5.22.93-7.82,1.39-10.26,2.36-3.25,1.3-12,5.52-15.79,15a28.89,28.89,0,0,0-1.58,14.21,31.75,31.75,0,0,0,.61,3.24.63.63,0,0,0,.86.43c1.4-.58,4.66-2,6.43-2.88a73,73,0,0,1,18.15-6.31,68.06,68.06,0,0,1,19-1.58c5.12.3,8.47.51,12.63,2.36,1.16.52,11.48,5.28,11.84,12.63,0,.34,0,.61,0,.79v9.63a.63.63,0,0,1-.63.63h-19.9a97.46,97.46,0,0,0-18.15,1.58c-7.78,1.42-15.41,2.81-23.68,7.9-4.11,2.51-11.47,7.17-16.58,16.57a41.34,41.34,0,0,0-4.73,23.68A33.9,33.9,0,0,0,562,222.89c7.72,3.8,14.63,3.88,21.31,4a64.91,64.91,0,0,0,15-1.58c4.93-1.13,11.8-2.78,18.94-7.9a44.64,44.64,0,0,0,10.78-11,.63.63,0,0,1,1.15.33l.69,16.4a.63.63,0,0,0,.63.61h11.93l.19,0a24.21,24.21,0,0,0,7.79-3.92c2.53-1.91,4.65-3.51,5.53-6.31a26.8,26.8,0,0,0,.79-6.32C656.72,206.45,656.71,205.9,656.7,205.52ZM625.92,174a36.79,36.79,0,0,1-4.74,13.42,29.14,29.14,0,0,1-19.73,15,31.5,31.5,0,0,1-6.32.79c-2.7,0-8.11.12-13.42-3.16a14.34,14.34,0,0,1-7.1-17.37c1.4-5.32,4.94-8.39,7.1-10.26A28.21,28.21,0,0,1,592,166.85c3.78-1.25,10.82-1.65,11.84-1.58h21.54a.63.63,0,0,1,.63.55A34.13,34.13,0,0,1,625.92,174Z"/>
    <g>
      <path d="M43.29,277V248.8H68.42V277H62V254.34H49.74V277Z"/>
      <path d="M89.43,277.6a14.09,14.09,0,0,1-10.32-4.1A14.35,14.35,0,0,1,75,262.88a14.88,14.88,0,0,1,3.89-10.4,12.78,12.78,0,0,1,9.87-4.27q6.41,0,10,4.35a16.5,16.5,0,0,1,3.55,10.8,11.71,11.71,0,0,1-.11,1.81H81.43a8.44,8.44,0,0,0,2.72,5.26,8,8,0,0,0,5.39,1.89A10.75,10.75,0,0,0,97.17,269l3.79,3.36A14.24,14.24,0,0,1,89.43,277.6Zm-8.05-16.7H95.84a9.17,9.17,0,0,0-2.19-5.33,6.34,6.34,0,0,0-5-2.08,6.57,6.57,0,0,0-4.91,2A9.15,9.15,0,0,0,81.38,260.9Z"/>
      <path d="M108.75,285.5V248.8h6.45v4.69q3.73-5.28,9.55-5.28a12.47,12.47,0,0,1,9.23,4q3.9,4,3.9,10.75T134,273.58a12.47,12.47,0,0,1-9.23,4,11.47,11.47,0,0,1-9.55-5V285.5ZM123.26,272a7.45,7.45,0,0,0,5.73-2.51,9.32,9.32,0,0,0,2.32-6.61,9.15,9.15,0,0,0-2.34-6.51,7.55,7.55,0,0,0-5.71-2.51,7.74,7.74,0,0,0-5.79,2.56,9.16,9.16,0,0,0-2.43,6.56,9,9,0,0,0,2.43,6.48A7.75,7.75,0,0,0,123.26,272Z"/>
      <path d="M157.4,277.6a14.09,14.09,0,0,1-10.32-4.1A14.31,14.31,0,0,1,143,262.88a14.84,14.84,0,0,1,3.89-10.4,12.78,12.78,0,0,1,9.87-4.27q6.4,0,9.95,4.35a16.5,16.5,0,0,1,3.55,10.8,11.71,11.71,0,0,1-.11,1.81H149.4a8.44,8.44,0,0,0,2.72,5.26,8,8,0,0,0,5.39,1.89,10.77,10.77,0,0,0,7.63-3.36l3.79,3.36A14.24,14.24,0,0,1,157.4,277.6Zm-8.05-16.7H163.8a9.1,9.1,0,0,0-2.18-5.33,6.34,6.34,0,0,0-5-2.08,6.55,6.55,0,0,0-4.91,2A9.15,9.15,0,0,0,149.35,260.9Z"/>
      <path d="M176.72,277V248.8h14.45a11,11,0,0,1,6.75,1.89,6.09,6.09,0,0,1,2.54,5.15q0,4.43-4.54,6.45c3.88,1.11,5.82,3.45,5.82,7a6.55,6.55,0,0,1-2.8,5.6,12.75,12.75,0,0,1-7.6,2Zm6.34-16.53h6.62a4.57,4.57,0,0,0,3.09-1,3.14,3.14,0,0,0,1.12-2.51,2.91,2.91,0,0,0-1-2.32,4.6,4.6,0,0,0-3.09-.88h-6.73Zm0,11.41h7.31a5.62,5.62,0,0,0,3.55-1,3.19,3.19,0,0,0,1.26-2.64,2.89,2.89,0,0,0-1.31-2.51,6.63,6.63,0,0,0-3.82-.91h-7Z"/>
      <path d="M221.1,277.6a14.09,14.09,0,0,1-10.32-4.1,14.31,14.31,0,0,1-4.13-10.62,14.84,14.84,0,0,1,3.89-10.4,12.78,12.78,0,0,1,9.87-4.27q6.41,0,10,4.35a16.5,16.5,0,0,1,3.55,10.8,11.71,11.71,0,0,1-.11,1.81H213.1a8.44,8.44,0,0,0,2.72,5.26,8,8,0,0,0,5.39,1.89,10.77,10.77,0,0,0,7.63-3.36l3.79,3.36A14.24,14.24,0,0,1,221.1,277.6Zm-8-16.7h14.46a9.17,9.17,0,0,0-2.19-5.33,6.34,6.34,0,0,0-5-2.08,6.55,6.55,0,0,0-4.91,2A9.15,9.15,0,0,0,213.05,260.9Z"/>
      <path d="M250,277.6a18.32,18.32,0,0,1-12.33-4.32l3.05-4.27a13.26,13.26,0,0,0,8.85,3.37,6.38,6.38,0,0,0,3.79-1.1,3.3,3.3,0,0,0,1.55-2.8,2.92,2.92,0,0,0-1.5-2.56,7.76,7.76,0,0,0-4.21-1h-3.47v-4.64h3.47a5.81,5.81,0,0,0,3.6-1,3.19,3.19,0,0,0,1.36-2.64,2.66,2.66,0,0,0-1.31-2.32,5.81,5.81,0,0,0-3.33-.88,11.75,11.75,0,0,0-8,2.88l-2.88-4.06a16.8,16.8,0,0,1,11.47-4,12.56,12.56,0,0,1,7.57,2.13,6.49,6.49,0,0,1,2.94,5.45q0,4.47-4.43,6.4,5.12,1.81,5.12,6.82a7.51,7.51,0,0,1-3.15,6.11A12.76,12.76,0,0,1,250,277.6Z"/>
      <path d="M281,277.6a14.06,14.06,0,0,1-10.32-4.1,14.32,14.32,0,0,1-4.14-10.62,14.85,14.85,0,0,1,3.9-10.4,12.76,12.76,0,0,1,9.87-4.27q6.41,0,10,4.35a16.55,16.55,0,0,1,3.54,10.8,12,12,0,0,1-.1,1.81H273a8.39,8.39,0,0,0,2.72,5.26,8,8,0,0,0,5.39,1.89A10.78,10.78,0,0,0,288.7,269l3.79,3.36A14.24,14.24,0,0,1,281,277.6Zm-8-16.7h14.45a9.1,9.1,0,0,0-2.18-5.33,6.35,6.35,0,0,0-5-2.08,6.54,6.54,0,0,0-4.9,2A9.15,9.15,0,0,0,272.91,260.9Z"/>
      <path d="M300.28,277V248.8h6.45v11.41h12.43V248.8h6.45V277h-6.45V265.6H306.73V277Z"/>
      <path d="M333.73,277V248.8h6.45v11.41h12.43V248.8h6.45V277h-6.45V265.6H340.18V277Z"/>
      <path d="M364.61,277l7.79-10.56a9.62,9.62,0,0,1-4.77-3.07,8.12,8.12,0,0,1-1.79-5.36,8.37,8.37,0,0,1,2.93-6.67q2.94-2.51,8.17-2.5h14.14V277h-6.46v-9.49h-5.76L372.19,277Zm13.23-14.34h6.78V254h-6.83a6.42,6.42,0,0,0-4,1.15,3.75,3.75,0,0,0-1.46,3.12,3.71,3.71,0,0,0,1.52,3.17A6.46,6.46,0,0,0,377.84,262.62Z"/>
      <path d="M415.19,277V248.8h14.46a11,11,0,0,1,6.75,1.89,6.11,6.11,0,0,1,2.53,5.15q0,4.43-4.54,6.45c3.88,1.11,5.82,3.45,5.82,7a6.52,6.52,0,0,1-2.8,5.6,12.73,12.73,0,0,1-7.6,2Zm6.35-16.53h6.61a4.62,4.62,0,0,0,3.1-1,3.17,3.17,0,0,0,1.12-2.51,2.92,2.92,0,0,0-1-2.32,4.58,4.58,0,0,0-3.09-.88h-6.72Zm0,11.41h7.31a5.59,5.59,0,0,0,3.54-1,3.19,3.19,0,0,0,1.26-2.64,2.89,2.89,0,0,0-1.31-2.51,6.62,6.62,0,0,0-3.81-.91h-7Z"/>
      <path d="M470.3,277h-6.4V273.5a11.34,11.34,0,0,1-9.13,4.05,11,11,0,0,1-7.12-2.32,7.83,7.83,0,0,1-2.91-6.48,8.06,8.06,0,0,1,3.15-6.89,13.54,13.54,0,0,1,8.27-2.34,25.54,25.54,0,0,1,7.79,1.17v-.53a5.57,5.57,0,0,0-1.79-4.48,7.63,7.63,0,0,0-5.14-1.55,20.94,20.94,0,0,0-8.06,1.76l-1.76-5.18a26,26,0,0,1,10.72-2.34q6.13,0,9.26,3.09c2.08,2.07,3.12,5,3.12,8.81Zm-6.24-10.19v-1.6a17.87,17.87,0,0,0-6.46-1.12,8.32,8.32,0,0,0-4.75,1.18,3.78,3.78,0,0,0-1.7,3.3,3.58,3.58,0,0,0,1.54,3.05,6.54,6.54,0,0,0,3.9,1.12A8.39,8.39,0,0,0,462,271,5.16,5.16,0,0,0,464.06,266.77Z"/>
      <path d="M478,277V248.8h6.46v11.41h12.43V248.8h6.45V277h-6.45V265.6H484.44V277Z"/>
      <path d="M517.46,277V254.34h-9.07V248.8H533v5.54H524V277Z"/>
      <path d="M561.79,277h-6.4V273.5a11.33,11.33,0,0,1-9.12,4.05,11.07,11.07,0,0,1-7.13-2.32,7.85,7.85,0,0,1-2.9-6.48,8.06,8.06,0,0,1,3.15-6.89,13.48,13.48,0,0,1,8.26-2.34,25.54,25.54,0,0,1,7.79,1.17v-.53a5.6,5.6,0,0,0-1.78-4.48,7.67,7.67,0,0,0-5.15-1.55,21,21,0,0,0-8.06,1.76l-1.76-5.18a26,26,0,0,1,10.72-2.34q6.14,0,9.26,3.09c2.08,2.07,3.12,5,3.12,8.81Zm-6.24-10.19v-1.6a17.81,17.81,0,0,0-6.45-1.12,8.32,8.32,0,0,0-4.75,1.18,3.77,3.77,0,0,0-1.71,3.3,3.56,3.56,0,0,0,1.55,3.05,6.51,6.51,0,0,0,3.89,1.12,8.37,8.37,0,0,0,5.36-1.66A5.16,5.16,0,0,0,555.55,266.77Z"/>
      <path d="M565.9,277l11-16.32L566.33,248.8h7.52l11.68,13.82V248.8H592v13.82l11.74-13.82h7.52l-10.62,11.84,11,16.32h-7.26l-8.05-12L592,269.87V277h-6.46v-7.09L581.21,265l-8.05,12Z"/>
      <path d="M616.26,244.48v-6.14h6.94v6.14Zm.27,32.48V248.8H623V277Z"/>
      <path d="M631.41,277V248.8h14.46a11,11,0,0,1,6.75,1.89,6.08,6.08,0,0,1,2.53,5.15q0,4.43-4.53,6.45c3.88,1.11,5.82,3.45,5.82,7a6.55,6.55,0,0,1-2.8,5.6,12.77,12.77,0,0,1-7.61,2Zm6.35-16.53h6.62a4.59,4.59,0,0,0,3.09-1,3.14,3.14,0,0,0,1.12-2.51,2.94,2.94,0,0,0-1-2.32,4.61,4.61,0,0,0-3.09-.88h-6.73Zm0,11.41h7.31a5.62,5.62,0,0,0,3.55-1,3.21,3.21,0,0,0,1.25-2.64,2.88,2.88,0,0,0-1.3-2.51,6.67,6.67,0,0,0-3.82-.91h-7Z"/>
    </g>
  </g>
</svg>
