<?xml version="1.0" encoding="utf-8"?>
<!-- Generator: Adobe Illustrator 20.0.0, SVG Export Plug-In . SVG Version: 6.00 Build 0)  -->
<svg version="1.1" id="Слой_1" xmlns="http://www.w3.org/2000/svg" xmlns:xlink="http://www.w3.org/1999/xlink" x="0px" y="0px"
	 viewBox="0 0 800 480" style="enable-background:new 0 0 800 480;" xml:space="preserve">
<rect style="display:none;fill:#29ABE2;" width="800" height="480"/>
<g>
	<g>
		<polygon style="fill:#333333;" points="398,40 398,441.2 400.1,441.8 562.2,353.6 592.5,106.4 		"/>
		<polygon style="fill:#C30E2D;" points="398,40 398,441.2 400.1,441.8 562.2,353.6 592.5,106.4 		"/>
	</g>
	<g>
		<polygon style="fill:#333333;" points="211.3,106.4 240.2,354.6 398,441.2 398,40 		"/>
		<polygon style="opacity:0.1;fill:#FFFFFF;" points="211.3,106.4 240.2,354.6 398,441.2 398,40 		"/>
		<polygon style="fill:#DC0330;" points="211.3,106.4 240.2,354.6 398,441.2 398,40 		"/>
	</g>
</g>
<g>
	<g>
		<path d="M349.9,285l-24.3,58.9h-43.4L399.5,83.7l123,260.2h-44.6L452.8,285H349.9z M440,252.3l-40.6-84.7l-35,84.7H440z"/>
	</g>
	<g>
		<path style="fill:#FFFFFF;" d="M349.9,285l-24.3,58.9h-43.4L399.5,83.7l123,260.2h-44.6L452.8,285H349.9z M440,252.3l-40.6-84.7
			l-35,84.7H440z"/>
	</g>
</g>
</svg>
