<?xml version="1.0" encoding="utf-8"?>
<svg version="1.1" id="svg2" viewBox="0 0 800 480" xmlns="http://www.w3.org/2000/svg">
  <path style="font-weight: bold; fill: rgb(138, 138, 142); fill-opacity: 1;" d="M 208.952 453.902 C 202.168 452.101 194.909 447.838 189.833 442.677 C 187.324 440.124 184.215 435.85 182.926 433.173 C 181.638 430.499 180.269 425.486 179.887 422.031 L 179.194 415.751 L 190.959 415.755 L 202.723 415.76 L 205.699 422.44 C 208.051 427.729 209.78 429.72 213.98 431.988 C 217.822 434.061 221.375 434.853 226.838 434.853 C 237.731 434.853 244.422 432.719 248.068 428.082 C 250.503 424.983 251.007 423.269 250.488 419.847 C 250.127 417.469 249.138 414.623 248.288 413.521 C 247.439 412.418 244.523 410.463 241.812 409.176 C 239.098 407.888 229.895 405.137 221.357 403.062 C 212.82 400.988 203.796 398.384 201.305 397.275 C 193.527 393.813 188.294 389.134 185.04 382.735 C 182.543 377.824 181.903 374.839 181.903 368.092 C 181.903 362.253 182.61 358.148 184.175 354.893 C 185.423 352.293 187.967 348.656 189.824 346.806 C 191.684 344.957 195.538 342.194 198.388 340.663 C 204.887 337.173 217.329 334.301 226.058 334.273 C 229.732 334.26 235.58 334.827 239.057 335.533 C 242.535 336.239 248.096 338.171 251.415 339.829 C 254.736 341.485 259.272 344.776 261.498 347.141 C 265.94 351.862 271.104 362.537 271.121 367.042 L 271.132 369.907 L 258.938 369.903 L 246.743 369.899 L 244.364 365.128 C 242.883 362.157 240.187 359.398 237.225 357.82 C 233.849 356.021 230.221 355.314 224.732 355.388 C 220.48 355.444 214.994 356.411 212.541 357.539 C 210.089 358.666 207.479 361.007 206.739 362.742 C 206 364.479 205.732 367.335 206.144 369.091 C 206.556 370.849 208.51 373.516 210.484 375.021 C 212.461 376.527 219.821 379.201 226.841 380.966 C 248.8 386.483 258.826 390.101 264.221 394.456 C 267.041 396.733 270.553 401.145 272.025 404.26 C 273.997 408.432 274.701 412.139 274.701 418.34 C 274.701 424.997 274.018 428.198 271.429 433.661 C 269.468 437.803 266.151 442.183 263.141 444.607 C 260.381 446.828 255.026 449.947 251.243 451.537 C 245.562 453.924 241.67 454.485 228.897 454.76 C 220.391 454.943 211.415 454.556 208.952 453.902 Z" id="path2325"/>
  <path style="font-weight: bold; fill: rgb(138, 138, 142); fill-opacity: 1;" d="M 385.574 334.486 C 378.135 334.502 370.535 336.149 364.234 339.302 C 360.138 341.35 353.821 346.038 350.217 349.688 C 346.296 353.657 342.234 359.414 340.105 364.054 C 338.146 368.318 335.715 376.112 334.676 381.365 C 333.369 387.984 332.98 393.942 333.486 400.745 C 333.89 406.146 335.291 414.175 336.572 418.613 C 337.854 423.052 340.934 429.817 343.413 433.617 C 345.892 437.415 350.562 442.696 353.824 445.356 C 357.083 448.016 362.984 451.294 366.91 452.678 C 372.648 454.702 376.748 455.157 387.767 454.906 L 401.45 454.589 L 409.443 450.411 C 413.824 448.101 419.794 443.629 422.716 440.501 C 428.146 434.69 434.129 423.086 434.129 418.376 L 434.129 415.749 L 423.124 415.787 L 412.119 415.828 L 408.551 422.394 C 406.139 426.82 403.458 429.792 400.26 431.548 C 394.511 434.701 382.48 435.715 376.428 433.578 C 374.017 432.725 370.187 430.3 367.913 428.164 C 365.64 426.028 362.715 422.031 361.407 419.289 C 360.101 416.549 358.741 411.482 358.358 408.027 L 357.653 401.741 L 397.063 401.741 L 436.508 401.741 L 436.508 393.104 C 436.508 388.349 435.7 381.157 434.725 377.147 C 433.748 373.136 431.55 366.921 429.854 363.338 C 428.157 359.754 424.424 354.117 421.525 350.802 C 418.628 347.485 413.159 343.056 409.405 340.933 C 405.651 338.809 399.385 336.336 395.464 335.481 C 392.283 334.786 388.956 334.478 385.574 334.486 Z M 385.649 355.021 C 387.388 355.009 389.019 355.258 390.817 355.777 C 393.494 356.548 397.497 358.484 399.702 360.074 C 401.908 361.664 405.191 365.532 406.989 368.671 C 408.787 371.808 410.609 376.796 411.041 379.774 L 411.822 385.184 L 384.904 385.184 L 357.988 385.184 L 357.988 381.604 C 357.988 379.639 359.385 375 361.11 371.297 C 362.979 367.283 366.16 363.116 368.955 360.949 C 371.532 358.951 376.384 356.629 379.774 355.816 C 382.05 355.271 383.908 355.031 385.649 355.021 Z" id="path2323"/>
  <path style="font-weight: bold; fill: rgb(138, 138, 142); fill-opacity: 1;" d="M 576.509 452.795 C 572.702 451.452 567.526 448.895 565.008 447.111 C 559.759 443.393 555.114 437.312 552.671 430.965 C 551.743 428.549 550.609 424.14 550.151 421.163 L 549.319 415.751 L 561.782 415.751 L 574.247 415.751 L 574.986 419.971 C 575.402 422.343 577.415 425.894 579.58 428.078 C 581.699 430.216 585.253 432.614 587.479 433.409 C 592.581 435.23 604.617 435.262 610.652 433.468 C 613.191 432.713 616.536 430.737 618.088 429.075 C 620.083 426.94 620.911 424.613 620.911 421.141 C 620.911 417.441 620.103 415.403 617.639 412.887 C 615.838 411.05 612.897 408.951 611.101 408.226 C 609.304 407.499 600.47 405.11 591.471 402.916 C 582.471 400.723 572.31 397.522 568.892 395.802 C 565.474 394.082 560.813 390.343 558.532 387.493 C 553.615 381.342 551.203 371.729 552.412 363.093 C 552.87 359.83 554.912 354.555 557.031 351.169 C 559.904 346.575 562.712 344.076 568.562 340.911 C 574.115 337.908 579.258 336.309 586.797 335.243 C 594.75 334.12 599.582 334.116 606.702 335.228 C 612.065 336.063 618.96 338.19 622.753 340.178 C 626.409 342.095 630.968 345.572 632.883 347.906 C 637.031 352.963 640.532 360.071 641.679 365.767 L 642.515 369.907 L 629.462 369.907 L 616.41 369.907 L 615.71 366.922 C 615.324 365.281 613.616 362.446 611.914 360.624 C 609.927 358.497 606.436 356.779 602.176 355.833 C 597.242 354.736 593.845 354.721 588.961 355.771 C 585.344 356.547 581.151 358.427 579.639 359.947 C 576.013 363.593 575.978 369.847 579.568 373.346 C 581.041 374.78 583.42 376.605 584.859 377.398 C 586.299 378.19 594.864 380.603 603.895 382.759 C 612.926 384.913 623.392 388.138 627.153 389.925 C 631.085 391.793 635.985 395.487 638.679 398.617 C 641.379 401.752 643.956 406.402 644.76 409.586 C 645.529 412.627 645.875 418.05 645.531 421.638 C 645.189 425.224 643.815 430.455 642.477 433.26 C 641.139 436.068 637.629 440.639 634.677 443.419 C 631.724 446.203 626.215 449.798 622.433 451.414 C 616.718 453.853 612.843 454.422 599.496 454.79 C 586.104 455.16 582.284 454.828 576.509 452.795 Z" id="path2319"/>
  <path style="font-weight: bold; fill: rgb(138, 138, 142); fill-opacity: 1;" d="M 306.4 452.545 C 303.875 451.91 300.212 450.392 298.256 449.171 C 296.3 447.949 293.547 444.658 292.136 441.856 L 289.573 436.763 L 289.2 396.969 L 288.826 357.172 L 279.979 357.172 L 271.132 357.172 L 271.132 347.622 L 271.132 338.07 L 280.056 338.07 L 288.979 338.07 L 288.979 320.879 L 288.979 303.687 L 300.842 303.687 L 312.703 303.687 L 313.035 320.561 L 313.368 337.433 L 323.777 337.802 L 334.189 338.17 L 334.189 347.671 L 334.189 357.172 L 323.381 357.172 L 312.574 357.172 L 312.971 392.158 L 313.368 427.144 L 316.08 430.042 C 318.35 432.469 320.052 432.939 326.491 432.918 L 334.189 432.893 L 334.189 442.615 L 334.189 452.336 L 328.668 453.146 C 321.349 454.218 312.059 453.968 306.4 452.545 Z" id="path2317"/>
  <path style="font-weight: bold; fill: rgb(138, 138, 142); fill-opacity: 1;" d="M 121.791 293.934 C 119.851 293.967 116.356 294.092 109.931 294.094 L 95.951 294.133 L 69.926 366.72 C 55.609 406.644 42.826 442.334 41.522 446.033 L 39.142 452.758 L 53.047 452.401 L 66.989 452.042 L 73.756 431.667 L 80.523 411.291 L 109.67 410.973 L 138.818 410.614 L 143.764 425.617 C 146.491 433.86 149.617 443.304 150.715 446.63 L 152.722 452.678 L 166.851 452.678 C 182.046 452.571 181.746 453.878 180.421 450.451 C 179.078 446.968 125.902 298.405 124.729 295.884 C 123.904 294.116 125.022 293.882 121.791 293.934 Z M 109.819 323.144 C 110.032 322.915 111.935 328.027 114.057 334.525 C 116.179 341.025 121.055 355.944 124.877 367.675 L 131.829 389.006 L 109.931 389.006 L 88.07 389.006 L 91.453 378.5 C 98.705 355.914 109.451 323.539 109.819 323.144 Z" id="path2315"/>
  <path style="font-weight: bold; fill: rgb(138, 138, 142); fill-opacity: 1;" d="M 447.21 395.376 L 447.21 338.07 L 458.514 338.07 L 469.816 338.07 L 469.816 347.765 L 469.816 357.459 L 473.681 351.267 C 475.809 347.862 480.142 343.22 483.31 340.953 C 486.48 338.687 491.192 336.22 493.783 335.473 C 496.373 334.727 501.009 334.289 504.084 334.502 L 509.672 334.887 L 510.012 347.239 L 510.351 359.591 L 502.197 359.429 C 495.922 359.304 492.755 359.936 488.441 362.17 C 485.36 363.768 481.476 366.987 479.808 369.325 C 478.142 371.664 475.653 376.618 474.278 380.337 C 472.022 386.431 471.725 390.332 471.261 419.889 L 470.746 452.68 L 458.979 452.68 L 447.21 452.68 L 447.21 395.376 Z" id="path2311"/>
  <path style="font-weight: bold; fill: rgb(138, 138, 142); fill-opacity: 1;" d="M 516.215 395.376 L 516.215 338.07 L 528.707 338.07 L 541.2 338.07 L 541.2 395.376 L 541.2 452.68 L 528.707 452.68 L 516.215 452.68 L 516.215 395.376 Z" id="path2309"/>
  <path style="font-weight: bold; fill: rgb(138, 138, 142); fill-opacity: 1;" d="M 653.322 373.409 L 653.628 294.136 L 665.526 294.136 L 677.422 294.136 L 677.734 338.586 L 678.048 383.038 L 698.364 360.553 L 718.681 338.07 L 733.743 338.136 L 748.806 338.202 L 728.664 359.113 L 708.52 380.022 L 730.744 415.711 C 742.968 435.34 752.969 451.688 752.969 452.041 C 752.969 452.392 755.936 452.68 738.386 452.68 L 723.803 452.68 L 708.346 426.395 C 699.844 411.937 692.507 399.473 692.039 398.698 C 691.505 397.81 688.745 399.868 684.603 404.246 L 678.018 411.206 L 678.018 431.943 L 678.018 452.68 L 665.517 452.68 L 653.015 452.68 L 653.322 373.409 Z" id="path2307"/>
  <path style="font-weight: bold; fill: rgb(246, 143, 30); fill-opacity: 1;" d="M 321.106 30.766 C 302.064 30.693 288.388 32.8 273.034 38.169 C 267.864 39.975 259.6 43.449 254.667 45.889 C 249.735 48.329 240.588 53.957 234.33 58.424 C 228.073 62.892 218.556 70.663 213.176 75.656 C 207.796 80.649 199.587 89.436 194.92 95.195 C 190.257 100.954 183.69 110.093 180.347 115.492 C 177.005 120.889 174.078 125.098 173.841 124.843 C 172.855 123.79 182.003 104.906 188.379 94.838 L 195.219 84.013 L 187.858 91.654 C 183.814 95.857 176.618 104.831 171.833 111.592 C 167.048 118.352 160.679 128.668 157.706 134.513 C 154.732 140.359 150.526 150.583 148.372 157.236 L 144.469 169.334 L 144.469 190.984 L 144.469 212.632 L 147.704 222.82 C 149.474 228.423 152.929 236.722 155.4 241.245 C 157.87 245.768 163.602 253.633 168.115 258.754 C 172.628 263.877 179.856 270.607 184.176 273.679 C 197.067 282.842 210.12 288.331 226.523 291.467 C 231.758 292.467 242.668 293.314 250.765 293.377 C 258.858 293.441 271.104 292.6 277.979 291.506 C 284.854 290.415 296.75 287.58 304.413 285.219 C 312.074 282.858 323.864 278.335 330.623 275.15 L 342.931 269.381 L 350.737 271.887 C 359.615 274.764 400.032 284.575 400.593 283.986 C 400.796 283.773 396.198 273.371 390.37 260.865 L 379.774 238.101 L 389.181 226.003 C 394.371 219.351 401.612 209.083 405.242 203.201 C 408.873 197.318 414.401 186.717 417.547 179.642 C 420.695 172.568 424.372 162.489 425.728 157.236 C 427.082 151.984 428.75 142.646 429.407 136.462 C 430.234 128.705 430.215 121.802 429.334 114.177 C 428.63 108.105 426.79 99.207 425.244 94.44 C 423.697 89.672 420.084 81.363 417.25 75.976 C 410.762 63.636 396.954 48.595 386.949 42.944 C 382.932 40.674 379.302 38.806 378.845 38.806 C 378.386 38.806 380.712 41.116 384.05 43.939 C 390.745 49.604 399.005 60.261 403.086 68.493 L 405.763 73.825 L 403.086 70.006 C 401.622 67.904 396.374 61.824 391.411 56.515 C 384.529 49.153 379.976 45.594 372.263 41.511 C 365.688 38.03 357.991 35.249 350.253 33.513 C 341.463 31.54 333.853 30.816 321.106 30.766 Z M 320.51 44.854 C 333.546 44.877 339.166 45.489 346.424 47.56 C 351.525 49.017 359.289 52.016 363.677 54.246 C 369.323 57.117 374.305 61.126 380.703 67.976 C 387.642 75.403 390.869 80.159 394.683 88.47 C 397.415 94.424 400.453 103.306 401.413 108.208 C 402.37 113.112 403.149 121.506 403.16 126.872 C 403.195 143.75 398.798 162.77 390.667 180.794 C 388.456 185.698 384.358 193.435 381.56 197.988 C 378.759 202.54 372.291 210.894 367.208 216.572 C 362.124 222.25 357.988 227.262 357.988 227.675 C 357.988 228.088 362.27 235.424 367.506 243.99 C 372.739 252.558 377.023 260.051 377.023 260.625 C 377.023 261.201 376.745 261.66 376.39 261.66 C 376.037 261.66 368.08 258.508 358.731 254.655 C 349.382 250.804 340.359 247.652 338.692 247.652 C 337.024 247.652 332.802 249.015 329.285 250.676 C 317.677 256.163 296.029 263.002 284.373 264.884 C 278.063 265.902 268.64 266.675 263.404 266.595 C 244.507 266.301 230.299 262.799 214.031 254.417 C 204.501 249.507 201.128 246.877 192.505 237.624 C 184.706 229.256 181.232 224.372 177.931 217.088 C 175.55 211.836 172.788 204.112 171.797 199.938 C 169.24 189.178 169.483 171.261 172.354 159.027 C 173.654 153.488 177.421 143.107 180.718 135.946 C 184.017 128.785 189.885 118.422 193.768 112.905 C 197.652 107.387 205.659 97.964 211.541 91.971 C 222.965 80.335 236.816 69.856 250.317 62.644 C 262.003 56.4 277.534 50.748 291.734 47.56 C 300.843 45.516 307.996 44.833 320.51 44.854 Z" id="path2303"/>
  <path style="font-weight: bold; fill: rgb(246, 143, 30); fill-opacity: 1;" d="M 270.933 206.86 L 271.421 182.62 L 252.111 195.472 C 241.492 202.541 232.647 208.148 232.456 207.933 C 231.462 206.81 216.408 179.405 216.407 178.715 C 216.406 178.271 225.236 172.541 236.029 165.981 C 246.823 159.422 255.653 153.769 255.653 153.419 C 255.653 153.069 246.823 147.416 236.029 140.858 C 225.236 134.298 216.406 128.567 216.407 128.121 C 216.408 127.44 231.455 100.037 232.443 98.918 C 232.628 98.71 240.693 104.066 250.369 110.819 C 260.044 117.574 268.741 123.419 269.694 123.81 C 271.185 124.422 271.357 121.113 270.936 100.13 L 270.446 75.739 L 287.027 75.739 L 303.608 75.739 L 302.765 100.613 L 301.92 125.486 L 310.023 119.909 C 314.48 116.841 322.677 111.198 328.24 107.367 C 333.801 103.537 338.986 100.002 339.761 99.509 C 340.682 98.924 344.076 103.797 349.534 113.538 C 354.134 121.748 357.783 128.559 357.642 128.675 C 357.502 128.79 349.624 133.608 340.137 139.382 C 330.648 145.155 321.615 150.734 320.062 151.781 L 317.239 153.683 L 336.123 165.109 C 346.509 171.393 355.666 176.936 356.468 177.428 C 357.495 178.055 355.451 182.739 349.559 193.256 C 342.478 205.895 340.876 208.008 339.135 207.012 C 338.003 206.363 329.869 201.034 321.059 195.167 C 312.248 189.299 304.332 184.036 303.467 183.473 C 302.174 182.627 302.047 186.762 302.749 206.773 L 303.602 231.1 L 287.024 231.1 L 270.446 231.1 L 270.933 206.86 Z" id="path2299"/>
  <path style="font-weight: bold; fill: rgb(255, 255, 255); fill-opacity: 1;" d="M 173.575 127.314 C 173.575 126.964 173.307 126.676 172.979 126.676 C 172.654 126.676 172.385 126.964 172.385 127.314 C 172.385 127.663 172.654 127.95 172.979 127.95 C 173.307 127.95 173.575 127.663 173.575 127.314 Z" id="path2279"/>
  <path style="font-size: 14px; font-style: normal; font-weight: bold; fill: rgb(138, 138, 142); fill-opacity: 1; stroke: none; stroke-width: 1px; stroke-linecap: butt; stroke-linejoin: miter; stroke-opacity: 1; font-family: &quot;Arial Black&quot;;" d="M 726.482 322.531 L 735.864 322.531 L 735.864 325.756 L 732.717 325.756 L 732.717 335.595 L 729.629 335.595 L 729.629 325.756 L 726.482 325.756 L 726.482 322.531 Z M 737.234 322.531 L 741.296 322.531 L 742.864 330.48 L 744.422 322.531 L 748.47 322.531 L 748.47 335.595 L 745.95 335.595 L 745.95 325.631 L 743.994 335.595 L 741.711 335.595 L 739.761 325.631 L 739.761 335.595 L 737.234 335.595 L 737.234 322.531 Z" id="flowRoot2289"/>
  <path style="fill: rgb(246, 143, 30); fill-opacity: 1; fill-rule: evenodd; stroke: rgb(246, 143, 30); stroke-width: 1px; stroke-linecap: butt; stroke-linejoin: miter; stroke-opacity: 1;" d="M 147.746 220.775 C 143.548 208.767 142.059 200.97 142.004 189.417 C 141.989 178.045 143.851 173.4 148.776 158.131 L 147.746 220.775 Z" id="path2329"/>
  <path style="opacity: 1; fill: rgb(246, 143, 30); fill-opacity: 1; fill-rule: evenodd; stroke: none; stroke-width: 202; stroke-linecap: round; stroke-linejoin: round; stroke-miterlimit: 4; stroke-dasharray: none; stroke-opacity: 0.553265;" d="M 144.13 205.6 C 142.492 197.351 142.192 186.31 143.41 179.151 C 143.546 178.354 143.825 176.977 144.031 176.091 L 144.405 174.48 L 144.43 182.613 C 144.444 187.086 144.444 194.4 144.43 198.863 L 144.405 206.979 L 144.13 205.6 Z" id="path2339"/>
</svg>