<?xml version="1.0" encoding="utf-8"?>
<!-- Generator: Adobe Illustrator 20.0.0, SVG Export Plug-In . SVG Version: 6.00 Build 0)  -->
<svg version="1.1" id="Слой_1" xmlns="http://www.w3.org/2000/svg" xmlns:xlink="http://www.w3.org/1999/xlink" x="0px" y="0px"
	 viewBox="0 0 800 480" style="enable-background:new 0 0 800 480;" xml:space="preserve">
<rect y="0" style="display:none;fill:#29ABE2;" width="800" height="480"/>
<polygon style="fill:#FFFFFF;" points="287,403 400,434.7 513.4,403.1 538,122.7 261.9,122.7 "/>
<path style="fill:#1572B6;" d="M261.9,122.7L287,403l113,31.8L513.4,403L538,122.7H261.9z M470.8,356L400,375.7l-71-19.3l-4.5-54.2
	h34.7l2.2,27.3l38.8,10.8l38.3-10.7l4.2-44.2H362l-2.9-34.9h87l3.4-35.4H317l-3.1-36.7H486L470.8,356z"/>
<g>
	<polygon style="fill:#33A9DC;" points="449.2,215.2 400,215.2 400,250.6 445.7,250.6 	"/>
	<polygon style="fill:#33A9DC;" points="438.3,329.6 442.5,285.2 400,285.2 400,340.3 	"/>
	<polygon style="fill:#33A9DC;" points="400,146.2 400,178.5 486,178.5 470.8,356 400,375.7 400,410.2 492.5,384.2 513.4,146.2 	"/>
</g>
<polygon style="fill:#333333;" points="362.7,45.1 321.5,45.1 321.5,97.4 362.7,97.4 362.7,83.2 337.7,83.2 337.7,60 362.7,60 "/>
<polygon style="fill:#333333;" points="420.4,45.1 372.1,45.1 372.1,60 396.2,83.2 372.1,83.2 372.1,97.4 420.4,97.4 420.4,83.2 
	397,60 420.4,60 "/>
<polygon style="fill:#333333;" points="478.2,45.1 429.8,45.1 429.8,60 454,83.2 429.8,83.2 429.8,97.4 478.2,97.4 478.2,83.2 
	454.8,60 478.2,60 "/>
<g>
	<polygon style="fill:#E6E6E6;" points="361.8,285.2 400,285.2 400,250.6 358.7,250.6 	"/>
	<polygon style="fill:#E6E6E6;" points="400,178.5 313.9,178.5 317,215.2 400,215.2 	"/>
	<polygon style="fill:#E6E6E6;" points="400,340.3 361.2,329.5 359,302.2 324.6,302.2 329.1,356.4 400,375.7 	"/>
</g>
</svg>
