<?xml version="1.0" encoding="utf-8"?>
<!DOCTYPE svg PUBLIC "-//W3C//DTD SVG 1.1//EN" "http://www.w3.org/Graphics/SVG/1.1/DTD/svg11.dtd" [
	<!ENTITY ns_extend "http://ns.adobe.com/Extensibility/1.0/">
	<!ENTITY ns_ai "http://ns.adobe.com/AdobeIllustrator/10.0/">
	<!ENTITY ns_graphs "http://ns.adobe.com/Graphs/1.0/">
	<!ENTITY ns_vars "http://ns.adobe.com/Variables/1.0/">
	<!ENTITY ns_imrep "http://ns.adobe.com/ImageReplacement/1.0/">
	<!ENTITY ns_sfw "http://ns.adobe.com/SaveForWeb/1.0/">
	<!ENTITY ns_custom "http://ns.adobe.com/GenericCustomNamespace/1.0/">
	<!ENTITY ns_adobe_xpath "http://ns.adobe.com/XPath/1.0/">
]>
<svg version="1.1" xmlns:x="&ns_extend;" xmlns:i="&ns_ai;" xmlns:graph="&ns_graphs;"
	 xmlns="http://www.w3.org/2000/svg" xmlns:xlink="http://www.w3.org/1999/xlink" x="0px" y="0px" viewBox="0 0 50 47.1"
	 style="enable-background:new 0 0 50 47.1;" xml:space="preserve">
<switch>
	<g i:extraneous="self">
		<path fill="#4D4D4D" d="M47.9,27h-8.1c-1.2,0-2.1,0.9-2.1,2.1v15.4c0,1.2,0.9,2.1,2.1,2.1h8.1c1.2,0,2.1-0.9,2.1-2.1V29.1
			C50,28,49.1,27,47.9,27z M40.2,29.6h7.3v13.3h-7.3V29.6z M43.8,45.6c-0.2,0-0.4-0.1-0.6-0.2C43.1,45.2,43,45,43,44.7
			c0-0.5,0.4-0.9,0.9-0.9c0.5,0,0.9,0.4,0.9,0.9c0,0.3-0.1,0.5-0.3,0.6C44.3,45.5,44.1,45.6,43.8,45.6z"/>
		<path fill="#fff" class="accent" d="M35.6,44.5v-3.6h-7.4V17.8c0-0.5,0.4-0.9,0.9-0.9h16.7c0.5,0,0.9,0.4,0.9,0.9v7.2h1.3
			c0.8,0,1.5,0.2,2.1,0.6v-7.7c0-2.3-1.9-4.2-4.2-4.2H29.1c-2.3,0-4.2,1.9-4.2,4.2v24.9c0,2.3,1.9,4.2,4.2,4.2h7.2
			C35.9,46.3,35.6,45.3,35.6,44.5z"/>
		<path fill="#8C8C8C" d="M21.5,33.2H4.1c-0.4,0-0.7-0.3-0.7-0.7V4.1c0-0.4,0.3-0.7,0.7-0.7h41.8c0.4,0,0.7,0.3,0.7,0.7v6.2
			c1.2,0.1,2.4,0.5,3.3,1.2V4.1C50,1.8,48.2,0,45.9,0H4.1C1.8,0,0,1.8,0,4.1v28.4c0,2.3,1.8,4.1,4.1,4.1h14V42h-2.2
			c-1.4,0-2.5,1.1-2.5,2.5s1.1,2.5,2.5,2.5h7.1c-0.9-1.2-1.4-2.7-1.4-4.4L21.5,33.2L21.5,33.2z"/>
	</g>
</switch>
</svg>
