<?xml version="1.0" encoding="utf-8"?>
<svg viewBox="0 0 500 500" xmlns="http://www.w3.org/2000/svg">
  <g transform="matrix(0.1, 0, 0, -0.1, -25.231981, 403.369354)" fill="#000000" stroke="none">
    <g transform="matrix(1, 0, 0, 1, -855.661499, -1254.453369)" fill="#000000" stroke="none">
      <g transform="matrix(5.685192, 0, 0, -5.019597, -845.602356, -1881.70105)" style="">
        <g transform="matrix(1, 0, 0, 1, -1006.384888, -149.758789)">
          <path class="accent" d="M 1430.745 -1063.728 C 1430.745 -1062.655 1431.767 -1057.407 1432.975 -1052.04 C 1434.183 -1046.792 1437.436 -1031.882 1440.038 -1019.12 C 1444.685 -996.816 1450.632 -968.429 1454.907 -948.152 C 1457.417 -936.344 1462.249 -912.966 1466.989 -890.304 C 1471.914 -866.211 1474.237 -855.953 1474.888 -854.522 C 1475.26 -853.687 1501.002 -853.329 1551.186 -853.329 L 1626.833 -853.329 L 1626.833 -808.244 L 1623.86 -807.647 C 1622.187 -807.409 1586.965 -807.17 1545.517 -807.289 L 1470.241 -807.409 L 1469.963 -827.566 L 1469.777 -847.604 L 1466.431 -846.888 C 1464.665 -846.411 1458.811 -844.384 1453.42 -842.475 C 1448.03 -840.448 1443.012 -839.016 1442.175 -839.255 C 1441.246 -839.493 1440.131 -841.76 1439.481 -844.98 C 1438.83 -847.962 1436.692 -858.458 1434.648 -868.238 C 1428.886 -895.671 1412.623 -972.961 1407.511 -997.054 C 1405.002 -1008.862 1401.75 -1024.726 1400.17 -1032.24 C 1398.59 -1039.754 1396.917 -1047.746 1396.452 -1050.012 C 1395.895 -1052.278 1395.616 -1054.306 1395.802 -1054.544 C 1395.988 -1054.783 1400.913 -1056.691 1406.675 -1058.6 C 1412.53 -1060.627 1419.128 -1063.013 1421.451 -1063.848 C 1427.492 -1066.114 1430.745 -1066.114 1430.745 -1063.728 Z" fill="#fff" style=""/>
          <path d="M 1892.854 -1064.496 C 1889.323 -1063.542 1884.304 -1061.753 1881.702 -1060.441 C 1879.193 -1059.129 1874.546 -1056.863 1871.48 -1055.431 C 1861.257 -1050.422 1854.659 -1041.238 1849.733 -1025.017 C 1846.667 -1014.878 1839.232 -997.107 1833.656 -986.61 C 1822.783 -965.857 1807.356 -949.874 1787.097 -938.185 C 1772.785 -930.074 1759.681 -926.019 1741.838 -924.349 C 1733.939 -923.634 1718.884 -922.202 1708.382 -921.248 C 1697.881 -920.294 1684.127 -918.863 1677.714 -918.266 C 1671.302 -917.67 1661.73 -916.716 1656.433 -916.358 L 1646.861 -915.523 L 1647.232 -881.172 C 1647.418 -862.208 1647.883 -846.464 1648.162 -846.106 C 1648.44 -845.748 1671.116 -844.436 1698.717 -843.005 C 1759.309 -840.142 1768.231 -840.619 1794.81 -848.61 C 1812.932 -854.097 1834.306 -866.024 1849.547 -879.144 C 1858.841 -887.017 1870.922 -900.256 1875.847 -907.77 L 1879.751 -913.734 L 1882.818 -906.22 C 1886.163 -897.751 1887.836 -891.549 1893.877 -864.593 C 1904.843 -815.691 1906.051 -806.984 1909.582 -746.273 L 1910.14 -737.209 L 1906.608 -736.493 C 1904.657 -736.135 1889.695 -733.63 1873.338 -731.006 C 1856.982 -728.263 1837.931 -725.162 1831.054 -723.85 C 1824.177 -722.657 1815.999 -721.226 1812.932 -720.868 C 1802.059 -719.317 1791.186 -712.4 1784.959 -703.096 C 1781.799 -698.325 1777.617 -688.306 1772.506 -672.562 C 1771.019 -668.268 1766.93 -655.983 1763.213 -645.129 C 1759.495 -634.275 1753.455 -616.026 1749.645 -604.576 C 1745.834 -593.126 1742.024 -581.795 1741.28 -579.528 C 1739.143 -573.684 1725.668 -533.966 1716.282 -505.817 C 1711.914 -492.936 1707.917 -481.247 1707.453 -479.935 C 1706.988 -478.623 1703.271 -467.649 1699.182 -455.484 C 1695.186 -443.318 1688.866 -424.592 1685.149 -413.738 C 1681.432 -402.884 1677.435 -390.956 1676.227 -387.259 C 1675.019 -383.561 1672.789 -377.121 1671.395 -372.946 C 1666.841 -360.303 1666.841 -360.661 1671.86 -357.918 C 1674.369 -356.605 1680.688 -352.789 1686.078 -349.568 C 1704.665 -338.237 1722.322 -327.861 1722.973 -327.861 C 1723.437 -327.861 1730.5 -342.293 1738.864 -359.826 C 1747.135 -377.359 1755.778 -395.37 1758.009 -399.902 L 1762.098 -408.132 L 1762.655 -398.709 C 1762.934 -393.58 1763.398 -374.139 1763.77 -355.532 C 1764.328 -322.493 1764.421 -321.897 1766.372 -321.3 C 1767.395 -321.062 1780.127 -319.511 1794.438 -318.08 L 1820.645 -315.217 L 1821.203 -320.704 C 1822.132 -329.292 1831.054 -419.344 1831.983 -429.84 C 1832.448 -435.088 1833.749 -447.492 1834.771 -457.273 C 1835.7 -467.172 1838.488 -494.486 1840.812 -518.102 C 1843.135 -541.719 1845.365 -564.858 1845.923 -569.39 C 1846.481 -574.042 1847.689 -586.923 1848.711 -598.016 C 1851.592 -629.266 1850.291 -625.568 1859.213 -627.119 C 1863.394 -627.834 1873.989 -629.504 1882.632 -630.816 C 1891.367 -632.128 1908.653 -634.752 1921.199 -636.78 C 1947.127 -640.835 1954.655 -642.028 1972.219 -644.533 C 1986.345 -646.56 1992.571 -648.588 2000.564 -653.598 C 2014.318 -662.305 2022.682 -677.095 2025.191 -697.371 C 2026.306 -706.197 2024.819 -769.174 2022.961 -791.24 C 2018.035 -848.968 1997.404 -939.855 1977.423 -991.024 C 1965.528 -1021.796 1955.584 -1037.421 1939.414 -1050.899 C 1923.243 -1064.258 1908.839 -1068.552 1892.854 -1064.496 Z" stroke="none" style="fill: rgb(140, 140, 140);"/>
          <path d="M 2066.174 -989.354 C 2060.32 -987.445 2055.58 -983.39 2051.956 -977.546 C 2045.357 -967.05 2045.729 -974.683 2045.729 -849.803 L 2045.729 -737.209 L 2048.517 -730.291 C 2051.77 -722.419 2055.487 -717.648 2061.342 -714.189 L 2065.245 -711.803 L 2065.245 -687.352 C 2065.245 -652.047 2063.665 -636.661 2059.483 -632.367 C 2058.833 -631.651 2056.323 -630.697 2053.907 -630.22 L 2049.539 -629.385 L 2047.495 -634.872 C 2046.38 -637.853 2043.499 -642.744 2041.082 -645.487 C 2036.529 -650.735 2032.533 -652.882 2025.005 -654.194 C 2021.009 -654.91 2020.266 -654.552 2014.411 -649.542 C 2001.121 -637.973 2005.675 -639.046 1896.572 -622.467 C 1864.231 -617.577 1859.77 -616.742 1859.213 -616.026 C 1858.562 -615.191 1855.309 -583.822 1855.774 -583.226 C 1855.96 -582.868 1874.268 -582.63 1896.386 -582.63 L 1936.533 -582.51 L 1936.812 -507.129 L 1936.997 -431.748 L 1933.559 -431.032 C 1919.061 -428.17 1909.118 -423.637 1898.523 -414.811 C 1881.331 -400.737 1866.926 -376.763 1862.094 -354.22 C 1860.792 -348.256 1859.956 -346.467 1856.982 -344.082 C 1845.273 -334.063 1843.693 -315.337 1853.451 -303.052 C 1860.142 -294.702 1869.993 -293.51 1878.171 -299.95 C 1888.579 -308.18 1890.624 -326.31 1882.446 -338.595 C 1878.45 -344.559 1878.636 -346.587 1884.211 -361.257 C 1887.371 -369.368 1889.788 -373.542 1896.572 -382.249 C 1903.727 -391.672 1906.144 -393.938 1913.764 -398.59 C 1921.106 -403.122 1932.444 -407.774 1936.161 -407.774 C 1936.626 -407.774 1936.997 -395.25 1936.997 -376.763 C 1936.997 -359.706 1936.626 -345.752 1936.254 -345.752 C 1934.395 -345.752 1927.332 -336.567 1925.753 -332.154 C 1920.177 -316.529 1928.912 -297.565 1942.48 -295.895 C 1948.335 -295.179 1953.075 -297.326 1957.629 -302.574 C 1967.201 -313.667 1966.364 -332.87 1956.049 -342.531 L 1951.588 -346.587 L 1951.774 -376.882 C 1951.867 -393.461 1952.146 -407.297 1952.331 -407.535 C 1952.982 -408.37 1967.387 -403.241 1971.94 -400.498 C 1988.761 -390.479 2002.515 -371.038 2007.998 -349.568 L 2009.671 -343.247 L 2006.79 -339.549 C 2002.329 -333.586 2000.842 -328.576 2001.307 -320.108 C 2002.608 -293.271 2030.116 -286.472 2039.224 -310.685 C 2040.897 -314.979 2041.175 -317.603 2040.897 -323.567 C 2040.432 -332.631 2037.923 -338.118 2032.068 -342.889 C 2028.63 -345.632 2027.979 -346.944 2026.213 -354.22 C 2016.641 -394.654 1989.319 -424.353 1955.398 -431.032 L 1951.867 -431.748 L 1951.867 -445.703 C 1951.681 -502.955 1951.96 -581.198 1952.331 -581.914 C 1952.61 -582.391 1969.989 -582.749 1991.084 -582.749 C 2029.28 -582.749 2029.466 -582.749 2033.648 -585.492 C 2040.711 -590.144 2044.521 -594.796 2047.588 -602.548 C 2050.562 -610.301 2051.77 -611.494 2056.416 -611.613 C 2060.227 -611.732 2067.94 -616.623 2071.007 -620.797 C 2077.419 -629.623 2078.999 -640.12 2079.836 -681.269 L 2080.393 -710.73 L 2084.668 -713.235 C 2089.779 -716.097 2095.355 -722.777 2097.864 -728.859 C 2099.537 -733.153 2099.63 -737.328 2099.63 -850.877 L 2099.63 -968.481 L 2097.214 -973.848 C 2094.147 -980.527 2088.943 -985.776 2082.438 -988.757 C 2076.676 -991.381 2072.215 -991.5 2066.174 -989.354 Z" stroke="none" style="fill: rgb(91, 91, 91);"/>
          <path d="M 1826.686 -1248.655 C 1820.738 -1247.224 1811.259 -1242.691 1803.824 -1237.682 C 1796.39 -1232.672 1782.543 -1214.901 1777.803 -1204.524 C 1768.138 -1183.055 1765.629 -1153.355 1771.577 -1131.17 C 1775.759 -1115.546 1780.034 -1106.6 1788.769 -1095.269 C 1798.155 -1083.103 1806.148 -1076.662 1818.508 -1071.295 C 1825.199 -1068.432 1827.243 -1068.074 1839.418 -1068.074 C 1851.592 -1068.074 1853.637 -1068.432 1860.328 -1071.295 C 1872.223 -1076.424 1880.68 -1083.222 1889.695 -1094.673 C 1903.913 -1113.041 1910.233 -1132.959 1910.233 -1159.915 C 1910.233 -1184.486 1902.055 -1208.102 1887.557 -1225.397 C 1879.751 -1234.7 1871.851 -1240.545 1860.978 -1245.435 C 1854.38 -1248.297 1851.22 -1249.013 1842.299 -1249.371 C 1836.351 -1249.49 1829.381 -1249.251 1826.686 -1248.655 Z" stroke="none" style="fill: rgb(140, 140, 140);"/>
          <path d="M 1363.601 -775.138 L 1363.601 -744.126 L 1571.585 -744.365 L 1779.476 -744.723 L 1779.755 -775.495 L 1779.941 -806.149 L 1571.771 -806.149 L 1363.601 -806.149 L 1363.601 -775.138 Z" stroke="none" style="fill: rgb(91, 91, 91);"/>
        </g>
      </g>
    </g>
  </g>
</svg>