<?xml version="1.0" encoding="utf-8"?>
<svg viewBox="0 0 500 500" xmlns="http://www.w3.org/2000/svg">
  <g transform="matrix(0.1, 0, 0, -0.1, -25.231981, 403.369354)" fill="#000000" stroke="none">
    <g transform="matrix(1, 0, 0, 1, -855.661499, -1254.453369)" fill="#000000" stroke="none">
      <path d="M 2337.745 4709.621 C 2050.453 4682.751 1874.463 4532.086 1810.726 4259.547 C 1783.138 4142.47 1767.918 3902.558 1780.285 3789.32 C 1805.018 3568.602 1885.878 3387.229 2020.011 3251.919 C 2144.631 3127.165 2263.543 3071.505 2423.361 3062.868 C 2531.809 3057.11 2603.156 3071.505 2701.14 3118.528 L 2759.169 3146.357 L 2708.75 3245.201 C 2645.965 3367.076 2607.913 3474.556 2579.374 3616.584 C 2559.397 3713.508 2556.543 3751.894 2556.543 3938.065 C 2557.494 4233.636 2589.838 4429.404 2669.747 4609.818 L 2703.043 4686.589 L 2644.062 4697.145 C 2555.592 4713.459 2433.826 4718.258 2337.745 4709.621 Z" style="fill: rgb(91, 91, 91);"/>
      <path d="M 4696.961 4713.459 C 4642.737 4709.621 4530.484 4692.347 4520.02 4685.63 C 4516.215 4683.71 4527.63 4649.163 4545.705 4609.818 C 4623.711 4439.96 4657.958 4233.636 4658.909 3938.065 C 4658.909 3751.894 4656.055 3713.508 4636.078 3616.584 C 4607.539 3474.556 4569.487 3367.076 4506.702 3245.201 L 4457.234 3147.317 L 4515.263 3119.487 C 4687.448 3034.079 4891.026 3041.756 5057.503 3140.6 C 5272.496 3267.273 5412.336 3517.74 5438.973 3822.908 C 5447.534 3915.034 5427.557 4160.703 5404.726 4259.547 C 5355.259 4474.507 5231.59 4616.535 5045.136 4676.033 C 4957.616 4703.863 4799.701 4721.137 4696.961 4713.459 Z" style="fill: rgb(140, 140, 140);"/>
      <path d="M 1933.443 2964.025 C 1570.999 2880.536 1383.594 2766.338 1287.513 2571.53 C 1219.019 2434.3 1195.237 2296.111 1180.016 1964.074 L 1169.552 1707.848 L 1194.286 1675.22 C 1246.607 1605.166 1410.23 1502.484 1543.412 1455.461 C 1619.515 1428.591 1803.116 1380.609 1808.823 1385.407 C 1811.677 1388.286 1816.434 1466.977 1820.239 1561.022 C 1837.362 1952.558 1881.122 2185.752 1974.349 2375.762 C 2067.576 2565.772 2197.904 2699.162 2398.628 2808.562 L 2468.072 2846.948 L 2408.141 2853.665 C 2278.764 2867.1 2177.927 2904.527 2111.336 2964.025 C 2093.261 2979.379 2072.333 2992.814 2065.674 2991.854 C 2058.063 2991.854 1999.083 2979.379 1933.443 2964.025 Z" style="fill: rgb(91, 91, 91);"/>
      <path d="M 5111.727 2969.783 C 5060.357 2914.123 4936.688 2867.1 4807.312 2853.665 L 4747.38 2846.948 L 4816.824 2808.562 C 4963.324 2728.911 5090.798 2618.552 5166.902 2505.314 C 5314.353 2285.555 5376.187 2028.37 5394.262 1561.022 C 5398.067 1467.937 5403.775 1389.246 5406.629 1386.367 C 5412.336 1380.609 5593.083 1427.631 5672.04 1455.461 C 5805.222 1502.484 5968.845 1605.166 6021.166 1675.22 L 6045.9 1707.848 L 6035.436 1959.275 C 6024.02 2217.42 6004.994 2368.085 5968.845 2474.605 C 5878.472 2739.468 5692.018 2870.939 5276.301 2964.984 C 5207.808 2980.339 5146.925 2992.814 5142.168 2992.814 C 5137.412 2992.814 5123.142 2982.258 5111.727 2969.783 Z" style="fill: rgb(140, 140, 140);"/>
      <g transform="matrix(5.685192, 0, 0, -5.019597, 1068.394897, 1779.859009)" style="">
        <path class="accent" d="M 442.641 -625.725 C 443.478 -626.871 488.155 -621.327 496.019 -619.033 C 547.892 -604.121 575.5 -569.135 587.213 -503.561 C 591.731 -477.751 594.242 -426.324 592.066 -399.558 C 585.038 -313.337 541.198 -244.703 479.286 -223.099 C 465.063 -218.32 428.251 -218.32 414.028 -223.099 C 351.949 -244.703 307.774 -314.293 301.248 -400.323 C 299.241 -427.853 301.583 -478.325 306.1 -503.752 C 319.654 -579.841 356.969 -617.312 425.741 -623.813 C 434.944 -624.769 442.474 -625.534 442.641 -625.725 Z M 375.207 -193.466 C 393.949 -176.452 416.538 -168.613 446.657 -168.613 C 476.776 -168.613 499.366 -176.452 518.441 -193.849 C 528.983 -203.408 528.481 -203.408 564.122 -193.849 C 666.694 -166.128 703.841 -125.789 716.893 -27.522 C 719.57 -6.493 722.415 43.214 723.084 84.318 C 723.587 116.819 723.587 117.01 708.694 132.687 C 668.535 174.937 589.054 200.747 483.805 205.526 C 346.092 211.835 233.815 184.496 184.62 132.687 C 169.728 117.01 169.728 116.819 170.229 84.318 C 170.899 46.273 173.409 -5.345 175.584 -22.361 C 187.464 -115.082 218.755 -156.569 297.232 -184.098 C 311.957 -189.26 329.025 -194.04 351.279 -199.393 C 363.996 -202.261 366.004 -201.879 375.207 -193.466 Z" fill="#fff" style=""/>
      </g>
    </g>
  </g>
</svg>