<?xml version="1.0" encoding="utf-8"?>
<!-- Generator: Adobe Illustrator 20.0.0, SVG Export Plug-In . SVG Version: 6.00 Build 0)  -->
<svg version="1.1" id="Слой_1" xmlns="http://www.w3.org/2000/svg" xmlns:xlink="http://www.w3.org/1999/xlink" x="0px" y="0px"
	 viewBox="0 0 800 480" style="enable-background:new 0 0 800 480;" xml:space="preserve">
<rect y="0.4" style="display:none;fill:#29ABE2;" width="800" height="480"/>
<g>
	<polygon style="fill:#131B28;" points="110.7,197.2 74.1,197.2 81.1,167.6 117.4,167.6 	"/>
	<path style="opacity:0.96;fill:#131B28;enable-background:new    ;" d="M45.7,348.9c-17.2,0.1-21.1-1-29.5-1l6.9-31.3
		c0,0,7.5-0.2,19.5-1.5c20.3-35.3,17.5-72,30.2-107.8h36.3C84.6,303.4,90.4,346.4,45.7,348.9z"/>
	<path style="fill:#131B28;" d="M279,187.3c-3-31.6-25.8-55.4-66.6-55.4c-62.4,0-89.9,55.1-90.5,102.8
		c-0.7,39.9,15.1,59.3,47.3,61.3h28h71.7l7.5-31.6l-18-0.8c10.1-24.1,20.7-58.8,20.7-67.8C279,194.1,279.3,190.4,279,187.3z
		 M240.3,191.9c-2.4,28.3-6.5,26.5-17.6,71.6l-41.1-0.6c-16.6-3.7-22-12.5-19.8-29.5c5.1-36,12.5-67.3,47-68
		C230.9,165.3,241.7,180.5,240.3,191.9z"/>
	<path style="fill:#131B28;" d="M328.1,263.5h36.7c7.3-31.8,13.1-64.4,21-95.9h33c-8,36.2-15.8,80.1-26.7,128.3h-67.2
		c-34.8-1-34.8-25.3-34.8-36c2.7-33.8,14.4-79.2,17-92.3h32C341.1,193.4,321.6,227.1,328.1,263.5z"/>
	<path style="fill:#131B28;" d="M417.4,258c-1.6,26.5,12.4,37,36.5,38h71l6.3-30.4c-57.6-0.1-77.6,2.6-77.3-13.9l1-7.7h83.3
		c19-69-9.2-77.9-41.1-80C428.8,164,423.2,216.7,417.4,258z M486.5,195.4c14,0.5,22.7,5.6,21.3,20.6h-47.1
		C465.2,205,471.2,196,486.5,195.4z"/>
	<path style="fill:#131B28;" d="M580.3,295.9H546l27.3-128.3h78.3c19.5,0,25.5,8.3,28.3,31.1h-78.3L580.3,295.9z"/>
	<path style="fill:#131B28;" d="M687.6,228.1l55.3-79.5h41c-29.8,52.8-73,83.1-95.3,147.3h-38c16.8-31.3,0.3-50.5-6.5-88.5h37.8
		L687.6,228.1z"/>
</g>
</svg>
