<?xml version="1.0" encoding="utf-8"?>
<!-- Generator: Adobe Illustrator 20.0.0, SVG Export Plug-In . SVG Version: 6.00 Build 0)  -->
<svg version="1.1" id="Слой_1" xmlns="http://www.w3.org/2000/svg" xmlns:xlink="http://www.w3.org/1999/xlink" x="0px" y="0px"
	 viewBox="0 0 800 480" style="enable-background:new 0 0 800 480;" xml:space="preserve">
<rect y="0" style="display:none;fill:#29ABE2;" width="800" height="480"/>
<rect x="213" y="52.9" style="fill:#F7DF1E;" width="374" height="374"/>
<g>
	<path d="M416.4,224.9v116.9c0,19.4-4.2,33.5-12.6,42.1c-8.4,8.6-20.6,13.8-39,13.8c-18,0-40-5.7-53.2-32l28.2-17.5
		c5.4,8.4,10.1,18.3,23.5,18.1c17.1-0.2,17.9-13,17.9-24.6V224.9H416.4z"/>
	<path d="M435.7,361.7l28.3-16.4c8.6,13,18.7,21.3,34.7,21.3c20.1,0,24.1-12.5,24.1-17.6c0-12.3-12.1-17.6-39.3-29.1
		c-11.7-4.9-37.4-18.2-37.4-50.7c0-36.1,30.7-46.4,51.6-46.4c34.4,0,44.2,19.8,49.7,28l-27.3,17.5c-7.9-12.6-13.7-15.1-22.7-15.1
		c-11.8,0-16.9,8.8-16.9,14.9c0,8.4,2.8,13.7,25.1,23.1c26.7,11.2,52.1,22,52.1,57.5c0,14.1-7.1,48.9-58.1,48.9
		C461.2,397.6,442.6,376.4,435.7,361.7z"/>
</g>
</svg>
