<?xml version="1.0" encoding="utf-8"?>
<svg viewBox="0 0 500 500" xmlns="http://www.w3.org/2000/svg">
  <g transform="matrix(0.1, 0, 0, -0.1, -25.231981, 403.369354)" fill="#000000" stroke="none">
    <g transform="matrix(1, 0, 0, 1, -855.661499, -1254.453369)" fill="#000000" stroke="none">
      <g transform="matrix(5.685192, 0, 0, -5.019597, -845.602356, -1881.70105)" style="">
        <g transform="matrix(1, 0, 0, 1, -1006.384888, -149.758789)">
          <path d="M 1418.472 -1120.764 C 1396.903 -1114.795 1376.98 -1092.85 1370.395 -1067.823 C 1366.774 -1053.962 1366.774 -545.348 1370.232 -531.489 C 1375.828 -509.927 1391.634 -490.289 1410.238 -481.435 L 1419.788 -477.008 L 1559.407 -476.428 C 1636.133 -476.236 1698.863 -475.275 1698.863 -474.505 C 1698.863 -473.735 1695.242 -459.682 1690.795 -443.317 L 1682.893 -413.478 L 1670.874 -412.13 C 1664.287 -411.554 1657.044 -409.82 1655.067 -408.473 C 1641.732 -400.194 1642.555 -374.976 1656.219 -366.891 C 1659.183 -364.966 1691.455 -364.388 1796.169 -364.388 L 1932.165 -364.388 L 1937.764 -368.815 C 1948.301 -377.093 1949.619 -394.228 1940.728 -404.815 C 1935.954 -410.206 1933.483 -410.976 1913.726 -412.902 C 1908.952 -413.478 1908.787 -414.056 1901.049 -443.317 C 1896.767 -459.682 1893.145 -473.735 1893.145 -474.505 C 1893.145 -475.275 1952.911 -476.236 2026.179 -476.428 L 2159.048 -477.008 L 2168.597 -481.435 C 2187.202 -490.289 2203.007 -509.927 2208.606 -531.489 C 2212.064 -545.348 2212.064 -1053.962 2208.442 -1067.823 C 2203.007 -1088.615 2189.837 -1105.747 2171.56 -1115.951 L 2160.694 -1121.918 L 1792.712 -1122.304 C 1582.293 -1122.304 1422.094 -1121.726 1418.472 -1120.764 Z M 2159.377 -1069.747 C 2161.846 -1067.631 2165.635 -1062.047 2167.774 -1057.427 L 2171.397 -1048.955 L 2171.397 -834.692 L 2171.397 -620.428 L 1789.419 -620.428 L 1407.441 -620.428 L 1407.441 -834.115 C 1407.441 -1063.202 1407.11 -1055.116 1415.343 -1065.898 C 1422.423 -1074.946 1404.642 -1074.562 1791.394 -1074.176 L 2154.767 -1073.792 L 2159.377 -1069.747 Z M 2171.397 -561.328 C 2171.397 -547.465 2166.95 -535.916 2159.706 -529.755 L 2154.109 -525.136 L 1789.419 -525.136 L 1424.728 -525.136 L 1419.13 -529.755 C 1411.885 -535.916 1407.441 -547.465 1407.441 -561.328 L 1407.441 -572.3 L 1789.419 -572.3 L 2171.397 -572.3 L 2171.397 -561.328 Z M 1857.911 -444.857 L 1866.145 -413.478 L 1831.074 -412.902 C 1811.811 -412.71 1780.199 -412.71 1760.934 -412.902 L 1725.7 -413.478 L 1733.933 -444.857 L 1742.165 -476.044 L 1796.004 -476.044 L 1849.678 -476.044 L 1857.911 -444.857 Z" stroke="none" style="fill: rgb(91, 91, 91);"/>
          <path d="M 1457.412 -984.219 C 1450.039 -979.846 1447.256 -967.826 1451.429 -958.616 C 1455.325 -950.029 1457.829 -949.249 1480.085 -949.249 L 1500.396 -949.249 L 1501.23 -943.472 C 1501.647 -940.192 1505.819 -906.002 1510.549 -867.285 C 1515.279 -828.722 1520.008 -794.845 1521.122 -792.347 C 1523.486 -786.57 1529.606 -782.199 1535.449 -782.199 L 1539.762 -782.199 L 1533.502 -775.797 C 1521.679 -763.621 1516.392 -743.481 1520.287 -725.371 C 1523.766 -708.979 1537.535 -692.586 1551.307 -688.371 C 1554.507 -687.434 1561.461 -686.654 1566.61 -686.654 C 1584.693 -686.654 1601.524 -700.08 1608.063 -719.594 C 1610.427 -726.62 1610.845 -730.681 1610.427 -740.827 C 1609.592 -755.971 1605.696 -765.962 1596.238 -775.641 L 1589.84 -782.199 L 1618.356 -782.199 L 1646.874 -782.199 L 1640.474 -775.641 C 1631.016 -765.962 1627.118 -755.971 1626.285 -740.827 C 1625.868 -730.523 1626.285 -726.62 1628.789 -719.128 C 1642.978 -677.13 1696.256 -675.413 1713.366 -716.317 C 1716.564 -723.811 1717.121 -727.4 1717.121 -738.485 C 1717.121 -749.882 1716.564 -753.005 1713.226 -760.499 C 1711.141 -765.339 1706.689 -772.208 1703.21 -775.797 L 1696.95 -782.199 L 1705.02 -782.199 C 1714.617 -782.199 1721.293 -786.258 1723.938 -793.596 C 1724.911 -796.25 1729.364 -828.568 1733.676 -865.411 C 1741.602 -931.763 1741.742 -932.073 1739.1 -938.008 C 1733.954 -949.715 1738.683 -949.249 1630.736 -949.249 L 1534.753 -949.249 L 1533.085 -960.644 C 1530.998 -976.101 1529.467 -980.004 1524.183 -983.595 C 1520.008 -986.405 1517.226 -986.717 1490.38 -986.717 C 1467.288 -986.561 1460.333 -986.093 1457.412 -984.219 Z M 1703.767 -906.783 C 1703.767 -904.753 1701.403 -884.615 1698.62 -861.821 L 1693.474 -820.449 L 1622.112 -819.981 C 1583.023 -819.825 1550.891 -820.135 1550.891 -820.761 C 1550.891 -822.945 1541.153 -903.192 1540.456 -906.783 L 1539.762 -910.218 L 1621.834 -910.218 L 1703.907 -910.218 L 1703.767 -906.783 Z M 1570.505 -749.258 C 1572.173 -748.321 1574.121 -745.355 1575.234 -742.701 C 1577.598 -736.3 1575.512 -729.742 1570.088 -726.62 C 1558.402 -719.752 1547.69 -737.08 1557.291 -747.072 C 1561.323 -751.288 1566.053 -752.068 1570.505 -749.258 Z M 1679.423 -747.072 C 1686.1 -740.203 1683.041 -727.557 1674.137 -725.059 C 1669.408 -723.811 1662.73 -728.181 1660.923 -733.802 C 1657.027 -746.604 1670.521 -756.44 1679.423 -747.072 Z" stroke="none" style="fill: rgb(140, 140, 140);"/>
          <path class="accent" d="M 1973.064 -954.117 C 1982.901 -954.117 1989.123 -946.049 1989.123 -933.31 C 1989.123 -923.544 1989.525 -922.693 1997.755 -916.538 C 2009.196 -908.044 2015.219 -895.093 2015.219 -878.958 C 2015.219 -868.979 2014.414 -866.007 2010.2 -861.761 C 2000.163 -850.933 1985.71 -858.576 1983.704 -875.561 C 1982.298 -887.875 1980.09 -890.424 1971.86 -890.424 C 1963.831 -890.424 1959.416 -884.053 1962.627 -876.835 C 1963.631 -874.499 1973.265 -866.644 1983.905 -859.638 C 2008.393 -843.714 2013.814 -836.071 2014.816 -815.902 C 2015.822 -797.431 2010.602 -784.479 1997.755 -775.139 C 1989.525 -768.768 1989.123 -768.133 1989.123 -757.516 C 1989.123 -743.291 1987.919 -740.318 1980.893 -736.497 C 1972.863 -732.038 1969.452 -732.463 1962.828 -739.469 C 1957.81 -744.777 1957.007 -747.325 1957.007 -757.303 C 1957.007 -768.343 1956.604 -769.193 1950.183 -773.228 C 1925.492 -788.725 1922.08 -828.853 1945.566 -828.853 C 1952.59 -828.853 1961.021 -820.359 1961.021 -813.142 C 1961.021 -806.136 1966.039 -801.251 1972.863 -801.251 C 1980.292 -801.251 1983.504 -805.711 1982.7 -814.204 C 1982.096 -820.359 1980.09 -822.482 1962.025 -834.373 C 1939.945 -848.81 1932.116 -858.79 1929.909 -874.499 C 1927.298 -891.698 1936.733 -911.23 1951.186 -919.298 C 1956.404 -922.058 1957.007 -923.544 1957.007 -933.098 C 1957.007 -941.59 1958.011 -944.775 1962.025 -948.809 C 1965.035 -952.206 1969.251 -954.117 1973.064 -954.117 Z M 2023.851 -993.395 C 2059.779 -980.02 2089.288 -952.63 2107.353 -915.901 C 2126.424 -877.259 2129.635 -832.674 2116.387 -790.848 C 2084.47 -689.152 1967.445 -649.874 1883.942 -712.929 C 1824.523 -757.728 1804.45 -844.351 1837.571 -913.564 C 1859.251 -959.424 1901.003 -992.332 1947.572 -1000.614 C 1972.463 -1005.072 1999.16 -1002.525 2023.851 -993.395 Z M 1854.033 -844.776 C 1853.63 -807.196 1864.271 -779.808 1889.562 -753.482 C 1914.051 -727.792 1939.743 -716.326 1973.064 -716.326 C 2006.184 -716.326 2032.08 -727.792 2056.57 -753.482 C 2081.861 -779.808 2092.298 -806.773 2092.097 -844.99 C 2091.696 -902.524 2051.751 -953.906 1998.157 -965.794 C 1924.287 -982.143 1854.834 -923.756 1854.033 -844.776 Z" fill="#fff" style=""/>
          <path d="M 1753.644 199.117 C 1753.644 200.718 1755.627 208.771 1757.988 217.068 C 1760.35 225.193 1766.715 248.273 1771.807 268.028 C 1780.897 302.546 1792.529 346.476 1800.89 377.857 C 1805.799 396.133 1815.253 432.317 1824.525 467.388 C 1831.703 495.172 1836.042 511.035 1838.304 518.208 C 1838.152 517.209 1837.976 516.057 1837.778 514.759 C 1836.948 509.329 1835.722 501.328 1834.183 491.121 C 1831.106 470.709 1826.781 441.476 1821.876 406.361 C 1812.067 336.133 1799.942 242.367 1790.863 148.563 C 1781.783 54.759 1775.747 -39.11 1778.119 -109.521 C 1779.305 -144.734 1782.599 -174.129 1788.67 -194.704 C 1791.709 -205.005 1795.473 -213.164 1800.011 -218.713 C 1804.568 -224.284 1810.05 -227.298 1816.307 -227.33 L 1816.398 -227.33 L 2707.646 114.123 L 2136.921 594.984 L 2136.783 595.006 L 2130.946 595.933 C 2127.647 596.302 2058.722 596.674 1977.646 596.49 L 1829.911 596.303 L 1829.902 595.813 L 1829.357 564.614 L 1829.001 534.188 L 1823.044 535.196 C 1819.589 535.935 1808.18 539.061 1797.637 542.015 C 1787.079 545.157 1777.174 547.368 1775.402 547.008 C 1774.368 546.758 1773.199 545.678 1772.235 544.077 C 1771.284 542.497 1770.396 540.308 1769.75 537.787 C 1768.476 533.167 1764.293 516.925 1760.297 501.791 C 1749.026 459.335 1717.214 339.72 1707.214 302.434 C 1702.307 284.157 1695.944 259.605 1692.855 247.977 C 1689.765 236.348 1686.499 224.005 1685.584 220.482 C 1685.035 218.714 1684.622 217.034 1684.392 215.749 C 1684.16 214.449 1684.185 213.353 1684.438 212.98 C 1684.917 212.543 1694.654 209.528 1705.933 206.571 C 1717.384 203.435 1730.278 199.745 1734.823 198.453 C 1740.755 196.693 1745.373 195.801 1748.49 195.825 C 1750.071 195.837 1751.369 196.101 1752.221 196.608 C 1753.107 197.135 1753.644 198.069 1753.644 199.117 Z M 1751.71 197.467 C 1751 197.045 1749.968 196.836 1748.482 196.825 C 1745.464 196.802 1740.992 197.664 1735.107 199.411 C 1730.564 200.703 1717.651 204.398 1706.194 207.536 C 1694.934 210.487 1685.409 213.375 1685.15 213.682 C 1685.04 213.677 1685.155 214.335 1685.376 215.573 C 1685.601 216.826 1686.002 218.458 1686.542 220.197 C 1687.453 223.703 1690.731 236.092 1693.821 247.721 C 1696.912 259.351 1703.273 283.901 1708.18 302.174 C 1718.18 339.462 1749.992 459.079 1761.263 501.535 C 1765.261 516.672 1769.443 532.914 1770.715 537.525 C 1771.34 539.984 1772.18 542.048 1773.092 543.561 C 1773.99 545.052 1774.818 545.91 1775.602 546.028 C 1777.129 546.398 1786.83 544.189 1797.355 541.056 C 1807.903 538.1 1819.376 534.957 1822.846 534.216 L 1829.411 533.104 L 1829.987 533.006 L 1830.357 564.601 L 1830.893 595.305 L 1977.648 595.49 C 2058.72 595.674 2127.438 595.306 2130.823 594.94 L 2136.489 594.04 L 2705.706 114.451 L 1816.214 -226.33 C 1810.241 -226.332 1805.226 -223.508 1800.785 -218.08 C 1796.327 -212.628 1792.648 -204.653 1789.629 -194.421 C 1783.583 -173.93 1780.304 -144.662 1779.119 -109.488 C 1776.748 -39.125 1782.78 54.679 1791.858 148.467 C 1800.936 242.255 1813.058 335.999 1822.867 406.223 C 1827.77 441.333 1832.095 470.561 1835.172 490.972 C 1836.71 501.177 1837.936 509.178 1838.766 514.608 C 1839.182 517.323 1839.498 519.395 1839.704 520.779 C 1839.808 521.471 1839.884 521.993 1839.932 522.337 C 1839.956 522.509 1839.973 522.642 1839.983 522.727 C 1839.988 522.772 1839.992 522.817 1839.993 522.846 C 1839.994 522.868 1839.994 522.925 1839.988 522.964 C 1839.979 523.023 1839.837 523.299 1839.661 523.362 C 1839.513 523.415 1839.227 523.327 1839.154 523.26 C 1839.116 523.225 1839.071 523.16 1839.055 523.135 C 1837.758 520.865 1833.192 504.932 1823.557 467.639 C 1814.285 432.567 1804.833 396.389 1799.924 378.116 C 1791.563 346.734 1779.93 302.8 1770.84 268.281 C 1765.75 248.534 1759.388 225.464 1757.027 217.346 C 1754.662 209.031 1752.644 200.838 1752.644 199.117 C 1752.644 198.319 1752.385 197.869 1751.71 197.467 Z" style="fill: none;"/>
          <g transform="matrix(1, 0, 0, 1, -173.852386, 205.225021)">
            <g>
              <g transform="matrix(1, 0, 0, 1, 0, -19.413177)">
                <g/>
              </g>
            </g>
          </g>
        </g>
      </g>
    </g>
  </g>
</svg>