<?xml version="1.0" encoding="utf-8"?>
<!-- Generator: Adobe Illustrator 20.0.0, SVG Export Plug-In . SVG Version: 6.00 Build 0)  -->
<svg version="1.1" id="Слой_1" xmlns="http://www.w3.org/2000/svg" xmlns:xlink="http://www.w3.org/1999/xlink" x="0px" y="0px"
	 viewBox="0 0 800 480" style="enable-background:new 0 0 800 480;" xml:space="preserve">
<rect y="0" style="display:none;fill:#29ABE2;" width="800" height="480"/>
<path style="fill:#37C4EF;" d="M670.5,320.1h-7.7v-14.5c0-5.9-4.8-10.8-10.8-10.8s-10.8,4.8-10.8,10.8v14.5h-5.5
	c-5.2,0-9.5,4.3-9.5,9.5s4.3,9.5,9.5,9.5h5.5v43.7c0,5.9,4.8,10.8,10.8,10.8s10.8-4.8,10.8-10.8V339h7.7c5.2,0,9.5-4.3,9.5-9.5
	C680,324.4,675.9,320.1,670.5,320.1z"/>
<path style="fill:#37C4EF;" d="M612.9,319c-12.9,0-15.7,7.4-15.7,7.4S595,319,587,319c-6.4,0-11.7,5.2-11.7,11.7V382
	c0,6.4,5.2,11.7,11.7,11.7s11.7-5.2,11.7-11.7v-34.6c3.3-4.5,8.6-7.9,12.6-8.3c6.2-0.5,11.7-3.3,11.7-11.7
	C622.9,323.2,618.4,319,612.9,319z"/>
<path style="fill:#37C4EF;" d="M557.8,319c-4.3,0-8.1,2.6-10,6.2c-5.7-4-12.4-6.2-19.8-6.2c-19.6,0-32.2,16.7-32.2,37.3
	c0,20.6,12.6,37.3,32.2,37.3c7.2,0,14.1-2.2,19.8-6.2c1.7,3.8,5.5,6.2,10,6.2c6,0,11-5,11-11v-52.5C568.8,323.8,563.8,319,557.8,319
	z M531.5,374.8c-8.4,0-15.1-8.3-15.1-18.6c0-10.3,6.7-18.6,15.1-18.6c8.4,0,15.1,8.3,15.1,18.6S539.9,374.8,531.5,374.8z"/>
<path style="fill:#37C4EF;" d="M488.6,379.6c0-5-4-8.9-8.9-8.9c-1.4,0-4.3,1.2-4.6,1.4c-1.7,1-7.7,2.1-8.4,2.1
	c-10.2,0-18.2-8.1-18.2-18.2c0-10.2,6.9-18.2,17-18.2c7.6,0,10.2,3.6,15.5,3.6c6,0,8.3-4.8,8.3-10.3c0-10.7-15.7-12.9-24.6-12.9
	c-20.1,0-36.5,16.9-36.5,37.7s16.3,37.7,36.5,37.7c8.6,0,17,0,22.5-8.3C488.5,383.6,488.6,381.7,488.6,379.6z"/>
<path style="fill:#37C4EF;" d="M396.9,319h-5.5c-6.2,0-11.7,2.8-15.5,7.1c-1.4-4.1-5.2-7.1-9.8-7.1c-5.7,0-10.3,4.6-10.3,10.3v53.9
	c0,5.7,4.6,10.3,10.3,10.3c8.4,0,11.2-6.5,11.2-11.2v-36.1c0-6.2,5-11.2,11.2-11.2s11.2,5,11.2,11.2v36.1c0,5.7,4.8,11.2,10.8,11.2
	s10-4.5,10-10v-10.8c0,0,0-25,0-33.2C420.5,328.5,413.8,319,396.9,319z"/>
<path style="fill:#37C4EF;" d="M313.6,319c-16.2,0-37.2,8.3-37.2,37.3c0,29.6,18.9,37.3,37.2,37.3c25.1,0,34.2-7.7,34.4-17.4
	c0,0-0.5-7.2-7.9-7.6c-7.6-0.5-11.9,7.1-25,6.9c-8.4,0-16.2-5-16.2-13.4c6-0.7,27.9-0.2,39.9-0.2c5.5,0,10.3-0.5,10.3-10
	C349.3,336.9,338.8,319,313.6,319z M299,348.3c0.7-7.4,7.1-13.3,14.6-13.3c7.6,0,13.9,5.9,14.6,13.3H299z"/>
<path style="fill:#37C4EF;" d="M237.2,319c-7.1,0-13.4,2.1-18.9,5.7c-1.7-3.4-5.3-5.7-9.5-5.7c-5.9,0-10.7,4.8-10.7,10.7v82.9
	c0,5.9,4.8,10.7,10.7,10.7s10.7-4.8,10.7-10.7v-23.9c5.2,3.1,11.4,5,17.7,5c19.6,0,32.2-16.7,32.2-37.3
	C269.4,335.7,256.9,319,237.2,319z M233.8,374.8c-6.7,0-12.4-5.3-14.3-12.7v-11.7c2.1-7.4,7.7-12.7,14.3-12.7
	c8.4,0,15.1,8.3,15.1,18.6C248.9,366.5,242.2,374.8,233.8,374.8z"/>
<path style="fill:#37C4EF;" d="M156,319c-19.6,0-35.6,16.7-35.6,37.3c0,20.6,16,37.3,35.6,37.3s35.6-16.7,35.6-37.3
	S175.6,319,156,319z M156,374.8c-8.4,0-15.1-8.3-15.1-18.6c0-10.3,6.7-18.6,15.1-18.6c8.4,0,15.1,8.3,15.1,18.6
	C171.2,366.5,164.5,374.8,156,374.8z"/>
<circle style="fill:#37C4EF;" cx="342" cy="238.5" r="21.2"/>
<circle style="fill:#37C4EF;" cx="439.3" cy="238.5" r="21.2"/>
<path style="fill:#37C4EF;" d="M463.9,113c-11.9,0-44.6,0-55.6,0c-78.8,0-124.2-20.3-145.1-65c31.5,35.6,84.3,44.7,145.1,44.7
	c17.2,0,55.6,0,55.6,0s97.7-4.8,97.7,18.9c0,12.6-41.8,47.7-91.5,88.6c22.4-34.2,53.2-51.3,53.7-68.3
	C524.1,117.3,503.1,113,463.9,113z"/>
</svg>
