<?xml version="1.0" encoding="utf-8"?>
<svg viewBox="0 0 500 500" xmlns="http://www.w3.org/2000/svg">
  <g transform="matrix(0.1, 0, 0, -0.1, 5.719223, 679.006531)" fill="#000000" stroke="none">
    <path d="M 1540.38 6353.393 C 1225.03 6319.366 997.979 6017.127 1045.039 5693.87 C 1056.682 5614.307 1089.188 5525.237 1128.97 5463.187 L 1141.099 5444.172 L 1098.891 5390.129 C 992.157 5252.52 894.156 5076.38 834.483 4912.25 L 818.473 4868.215 L 764.621 4868.215 C 612.283 4868.215 474.984 4808.668 367.766 4696.579 C 262.487 4586.492 209.121 4450.384 208.15 4293.259 C 207.665 4138.136 258.606 4005.031 360.973 3893.442 C 466.252 3778.851 604.035 3716.802 756.858 3715.301 L 817.502 3714.8 L 844.671 3644.745 C 907.255 3482.616 994.583 3326.993 1095.98 3196.889 C 1116.356 3170.869 1134.307 3146.85 1136.733 3143.847 C 1138.673 3139.844 1132.851 3125.333 1121.208 3107.318 C 1085.307 3049.272 1054.257 2959.201 1043.098 2879.137 C 1019.326 2706.5 1080.455 2522.354 1203.199 2396.254 C 1418.121 2175.579 1760.639 2169.074 1981.384 2381.743 C 2025.047 2423.776 2071.622 2485.825 2092.969 2530.361 L 2108.008 2562.386 L 2127.415 2559.384 C 2355.921 2523.355 2517.477 2522.855 2734.341 2558.883 L 2754.232 2562.386 L 2767.816 2535.865 C 2848.351 2375.238 3003.6 2261.147 3177.77 2233.625 C 3498.456 2182.585 3795.855 2423.276 3822.053 2755.039 C 3831.756 2877.136 3802.647 3005.738 3742.003 3106.818 L 3722.597 3139.344 L 3759.953 3186.881 C 3868.143 3325.992 3963.718 3496.127 4021.936 3652.751 L 4043.768 3710.797 L 4106.838 3713.799 C 4235.888 3719.304 4332.919 3753.331 4429.464 3826.389 C 4563.852 3928.47 4646.327 4085.094 4656.031 4258.231 C 4674.466 4588.994 4420.246 4868.215 4101.016 4868.215 L 4042.797 4868.215 L 4036.491 4889.732 C 4025.817 4926.762 3973.906 5048.859 3943.341 5108.406 C 3890.46 5210.987 3823.023 5316.571 3756.557 5399.637 C 3740.062 5421.154 3725.993 5440.669 3725.993 5443.672 C 3725.993 5446.674 3731.329 5457.183 3737.636 5467.691 C 3793.914 5559.764 3823.508 5665.848 3823.508 5776.436 C 3823.508 5901.535 3789.548 6013.624 3721.141 6113.703 C 3629.933 6246.809 3478.565 6337.381 3320.405 6353.393 C 3189.899 6366.904 3054.541 6330.876 2944.897 6254.315 C 2909.481 6229.795 2849.807 6171.749 2824.579 6137.722 C 2807.114 6114.704 2759.569 6037.143 2754.717 6024.633 C 2753.747 6022.131 2729.489 6024.132 2699.895 6029.136 C 2536.398 6056.658 2345.733 6057.158 2174.474 6031.138 C 2146.821 6027.135 2121.593 6022.631 2118.197 6021.13 C 2114.315 6019.629 2103.157 6034.14 2088.602 6060.161 C 1973.136 6265.824 1764.52 6377.413 1540.38 6353.393 Z M 1683.985 6284.839 C 1838.264 6258.818 1984.295 6144.228 2050.275 5996.61 C 2163.801 5742.909 2062.404 5442.671 1821.283 5319.073 C 1536.499 5172.957 1196.892 5334.585 1115.871 5654.339 C 1102.287 5707.881 1097.92 5793.95 1106.168 5849.494 C 1133.337 6041.646 1259.476 6199.772 1436.072 6263.322 C 1515.152 6291.845 1598.598 6298.85 1683.985 6284.839 Z M 3313.613 6289.343 C 3425.198 6277.333 3523.199 6230.796 3603.249 6152.734 C 3684.27 6073.171 3730.359 5988.104 3752.676 5876.515 C 3762.864 5825.975 3762.864 5726.896 3752.676 5676.356 C 3719.201 5509.724 3603.734 5366.11 3453.822 5304.061 C 3349.514 5261.027 3246.662 5253.521 3140.899 5281.043 C 2965.273 5327.079 2828.945 5467.691 2781.4 5653.338 C 2770.242 5694.871 2768.786 5711.384 2768.786 5778.938 C 2768.786 5846.992 2770.242 5862.504 2781.4 5906.039 C 2797.41 5968.088 2828.945 6035.641 2866.302 6087.182 C 2945.867 6197.77 3075.888 6274.331 3210.275 6288.842 C 3263.642 6294.847 3262.672 6294.847 3313.613 6289.343 Z M 2624.696 5954.577 C 2644.587 5951.575 2675.637 5946.571 2693.103 5943.568 L 2725.123 5938.564 L 2716.39 5900.034 C 2680.974 5748.414 2719.786 5562.766 2813.906 5433.163 C 2860.965 5368.112 2941.986 5297.556 3010.393 5262.528 C 3106.938 5212.488 3218.523 5191.472 3322.346 5203.481 C 3440.723 5216.992 3553.278 5268.032 3639.636 5348.096 C 3654.675 5362.107 3667.774 5373.616 3668.745 5373.616 C 3672.141 5373.616 3728.904 5298.056 3763.35 5248.517 C 3822.053 5163.449 3898.222 5018.334 3939.46 4911.75 C 3951.589 4880.725 3958.381 4856.206 3955.955 4853.704 C 3953.529 4851.702 3938.49 4846.198 3922.48 4841.194 C 3775.478 4796.158 3633.814 4659.049 3576.566 4506.929 C 3545.516 4424.363 3539.209 4388.335 3539.209 4290.257 C 3539.209 4200.185 3543.09 4173.164 3567.833 4098.104 C 3623.14 3931.973 3771.597 3784.355 3929.757 3738.819 C 3945.767 3734.316 3958.866 3728.811 3958.866 3726.81 C 3958.866 3718.303 3924.42 3630.734 3899.677 3577.191 C 3849.707 3467.604 3762.864 3325.491 3696.398 3242.926 L 3667.289 3206.397 L 3637.21 3235.42 C 3546.971 3321.989 3423.743 3374.53 3294.207 3380.535 C 3128.285 3388.541 2982.254 3330.495 2867.272 3211.901 C 2788.193 3130.337 2738.222 3034.26 2713.964 2915.666 C 2701.835 2857.62 2701.835 2754.038 2713.964 2692.489 C 2718.816 2666.969 2722.212 2645.452 2721.241 2644.451 C 2720.271 2643.45 2694.558 2638.947 2664.479 2634.443 C 2523.299 2613.427 2368.05 2612.426 2219.594 2631.941 C 2176.9 2637.946 2141.484 2642.95 2140.514 2643.45 C 2140.029 2644.451 2142.939 2659.463 2147.306 2676.977 C 2158.949 2726.516 2161.86 2849.614 2152.157 2902.656 C 2130.811 3020.249 2083.266 3117.326 2006.612 3200.893 C 1799.936 3426.572 1457.419 3443.585 1230.367 3239.924 L 1193.981 3206.897 L 1160.505 3250.932 C 1088.217 3345.007 1016.9 3462.6 967.414 3569.685 C 942.186 3624.729 900.948 3727.811 903.374 3729.312 C 904.345 3729.812 917.929 3734.316 933.939 3739.32 C 974.207 3751.83 1045.524 3786.857 1081.91 3812.378 C 1152.258 3861.917 1225.03 3946.484 1265.298 4026.047 C 1307.992 4111.115 1326.913 4194.181 1325.942 4297.763 C 1324.487 4546.96 1172.149 4762.131 942.672 4840.693 L 902.889 4854.204 L 909.681 4872.218 C 959.652 5016.333 1046.979 5179.462 1143.04 5309.065 C 1197.862 5382.623 1193.01 5380.622 1226.486 5347.095 C 1300.229 5275.038 1415.696 5220.495 1530.677 5203.982 C 1630.133 5189.971 1754.332 5211.988 1848.452 5261.027 C 2011.948 5346.094 2119.167 5494.212 2151.672 5680.36 C 2161.86 5739.406 2159.435 5851.495 2146.821 5903.537 C 2142.939 5921.051 2140.514 5936.563 2141.484 5937.564 C 2144.395 5940.566 2225.415 5953.076 2279.267 5958.58 C 2334.09 5964.585 2577.636 5961.583 2624.696 5954.577 Z M 812.651 4803.164 C 933.454 4789.153 1034.851 4740.114 1117.327 4655.547 C 1308.962 4458.891 1314.299 4143.64 1129.455 3939.979 C 1061.049 3864.419 974.207 3813.879 863.592 3786.357 C 847.097 3782.354 809.74 3779.852 764.135 3780.352 C 702.036 3780.853 684.57 3782.854 643.818 3793.863 C 457.034 3845.404 315.369 3999.526 279.468 4190.678 C 246.963 4361.313 294.022 4523.942 411.915 4649.542 C 500.212 4744.117 621.015 4798.66 759.284 4807.667 C 764.621 4807.667 788.878 4805.666 812.651 4803.164 Z M 4189.799 4795.658 C 4396.959 4756.627 4559 4581.488 4590.05 4362.814 C 4597.327 4310.273 4592.961 4224.204 4580.347 4170.162 C 4542.99 4012.036 4429.464 3876.428 4282.463 3814.88 C 4219.393 3788.359 4175.244 3780.352 4094.709 3780.352 C 4029.698 3780.853 4013.203 3782.354 3973.421 3793.363 C 3805.073 3839.9 3676.022 3965.499 3622.655 4135.134 C 3604.705 4191.679 3599.368 4230.71 3599.368 4294.76 C 3599.853 4394.84 3626.536 4486.412 3678.448 4568.478 C 3791.003 4747.119 3986.52 4833.688 4189.799 4795.658 Z M 1689.322 3309.979 C 1847.967 3278.454 1977.988 3174.872 2047.85 3024.753 C 2114.801 2879.638 2114.315 2724.515 2044.939 2578.899 C 1975.077 2430.281 1845.541 2329.701 1684.955 2298.176 C 1629.163 2287.668 1532.617 2290.671 1479.251 2305.682 C 1384.161 2332.203 1318.665 2371.234 1248.803 2443.292 C 1177 2517.35 1138.673 2586.906 1114.416 2686.485 C 1106.168 2720.512 1104.227 2744.03 1104.227 2806.58 C 1104.227 2874.133 1106.168 2890.146 1116.841 2931.679 C 1167.297 3124.332 1311.873 3266.445 1498.171 3306.977 C 1550.083 3318.486 1639.836 3319.487 1689.322 3309.979 Z M 3395.119 3299.971 C 3599.853 3240.924 3745.399 3058.279 3758.983 2844.11 C 3766.746 2721.012 3741.033 2618.431 3676.992 2516.35 C 3650.794 2475.317 3587.724 2409.765 3546.971 2381.242 C 3424.228 2296.175 3268.009 2269.153 3129.255 2309.686 C 2906.57 2375.238 2753.747 2594.912 2766.846 2831.099 C 2780.43 3065.785 2938.59 3256.437 3163.216 3307.477 C 3224.345 3321.488 3333.019 3317.985 3395.119 3299.971 Z" style="fill: rgb(255, 255, 255);" class="accent"/>
    <path d="M 1734.441 6051.154 C 1702.421 6040.645 1691.262 6033.64 1670.886 6013.124 C 1646.143 5988.104 1646.143 5988.104 1639.836 5942.568 C 1636.925 5917.047 1630.618 5891.027 1626.737 5884.522 C 1619.945 5873.513 1620.43 5872.012 1635.47 5855.999 C 1650.509 5839.986 1650.995 5838.485 1645.173 5819.97 C 1636.925 5793.95 1642.747 5782.441 1673.312 5766.928 L 1696.599 5754.418 L 1713.094 5771.432 C 1728.134 5786.944 1733.956 5789.446 1777.619 5795.951 C 1825.164 5803.457 1826.135 5803.958 1849.422 5827.476 C 1869.798 5848.493 1874.65 5857.5 1887.264 5899.033 C 1900.363 5942.568 1900.848 5947.071 1893.571 5955.077 C 1889.205 5960.081 1883.383 5964.085 1880.472 5964.085 C 1877.076 5964.085 1862.036 5950.574 1846.026 5933.56 C 1803.818 5889.525 1803.333 5889.525 1767.431 5925.554 C 1750.451 5942.568 1736.867 5959.581 1736.867 5963.584 C 1736.867 5968.088 1752.392 5987.603 1771.798 6007.619 C 1806.243 6043.147 1806.243 6044.148 1797.511 6054.156 C 1786.352 6066.666 1781.986 6066.666 1734.441 6051.154 Z" style=""/>
    <path d="M 1306.051 6027.635 L 1275.972 5996.61 L 1296.348 5965.085 C 1314.784 5935.562 1319.635 5932.059 1360.388 5912.043 C 1397.745 5893.529 1410.844 5883.521 1445.775 5846.992 C 1468.092 5823.473 1488.954 5803.958 1491.379 5803.958 C 1494.29 5803.958 1503.508 5810.963 1512.241 5819.97 L 1528.251 5835.983 L 1485.072 5881.519 C 1448.686 5918.549 1437.527 5934.561 1419.577 5972.591 C 1402.111 6009.12 1393.864 6021.13 1376.883 6033.139 C 1336.13 6061.662 1339.041 6062.162 1306.051 6027.635 Z" style=""/>
    <path d="M 1518.548 5806.46 L 1448.201 5733.902 L 1470.033 5711.885 C 1491.864 5689.367 1491.864 5689.367 1512.241 5695.371 C 1530.677 5700.375 1534.558 5699.875 1546.202 5690.868 C 1553.964 5685.364 1569.004 5661.845 1580.647 5638.827 C 1597.143 5604.8 1610.242 5586.785 1648.569 5547.254 C 1674.282 5520.733 1699.025 5497.214 1703.876 5495.713 C 1734.441 5485.705 1831.957 5586.285 1822.253 5617.81 C 1820.798 5622.814 1797.996 5648.334 1771.798 5675.356 C 1732.985 5715.387 1716.005 5728.398 1683.5 5745.411 C 1661.183 5756.92 1638.381 5772.433 1633.044 5780.439 C 1624.311 5792.448 1623.826 5796.452 1628.678 5815.467 C 1634.499 5836.483 1634.014 5836.483 1614.123 5858 C 1603.45 5869.51 1592.776 5879.017 1591.321 5879.017 C 1589.865 5879.017 1557.36 5846.491 1518.548 5806.46 Z" style=""/>
    <path d="M 1400.656 5649.335 C 1353.596 5600.296 1348.744 5593.791 1348.744 5576.777 C 1348.744 5532.242 1394.834 5488.207 1433.646 5495.713 C 1444.32 5497.715 1465.666 5516.73 1509.815 5562.766 L 1571.43 5626.317 L 1561.241 5647.834 C 1546.687 5678.858 1533.102 5686.865 1507.875 5679.359 C 1488.954 5673.354 1487.498 5673.854 1472.944 5688.366 C 1464.211 5696.873 1456.448 5703.878 1454.993 5703.878 C 1453.537 5703.878 1429.28 5679.359 1400.656 5649.335 Z" style=""/>
    <path d="M 2952.174 5974.093 L 2952.174 5894.029 L 3273.345 5894.029 L 3594.516 5894.029 L 3594.516 5974.093 L 3594.516 6054.156 L 3273.345 6054.156 L 2952.174 6054.156 L 2952.174 5974.093 Z" style=""/>
    <path d="M 2952.174 5783.942 L 2952.174 5703.878 L 3273.345 5703.878 L 3594.516 5703.878 L 3594.516 5783.942 L 3594.516 5864.005 L 3273.345 5864.005 L 2952.174 5864.005 L 2952.174 5783.942 Z" style=""/>
    <path d="M 2953.144 5670.352 C 2952.174 5667.85 2952.174 5661.344 2952.659 5655.34 C 2953.144 5648.835 2953.63 5614.808 2954.115 5578.779 L 2954.6 5513.727 L 3275.286 5513.727 L 3595.487 5513.727 L 3594.516 5593.791 L 3593.546 5673.854 L 3274.316 5673.854 C 3098.69 5673.854 2954.115 5672.353 2953.144 5670.352 Z" style=""/>
    <path d="M 2445.19 5380.622 C 2368.05 5365.109 2278.297 5312.067 2237.544 5257.024 C 2199.217 5205.483 2173.504 5112.909 2173.504 5023.839 C 2173.019 4993.815 2171.078 4977.802 2166.227 4971.297 C 2160.89 4963.791 2158.949 4947.778 2158.949 4911.249 C 2158.949 4817.675 2179.326 4721.599 2204.554 4693.577 C 2210.861 4686.571 2223.96 4664.053 2233.663 4643.537 C 2271.505 4564.474 2331.664 4494.419 2383.575 4467.898 C 2435.972 4441.877 2540.765 4441.877 2594.131 4468.398 C 2618.874 4480.908 2663.993 4521.941 2685.34 4552.465 C 2696.499 4567.977 2703.291 4572.981 2714.449 4572.981 C 2732.4 4573.481 2764.905 4588.493 2776.549 4602.004 C 2796.925 4625.523 2841.074 4749.121 2852.233 4814.673 C 2856.599 4838.692 2856.114 4847.199 2849.322 4864.212 C 2842.53 4882.226 2842.045 4889.732 2847.866 4932.766 C 2857.084 4998.318 2856.114 5073.378 2845.926 5113.41 C 2815.361 5236.507 2717.36 5336.587 2593.161 5371.114 C 2564.537 5379.121 2468.962 5385.125 2445.19 5380.622 Z M 2365.625 4997.318 C 2435.972 4981.305 2534.458 4981.805 2611.112 4997.818 C 2664.479 5009.327 2668.36 5009.327 2680.004 5001.821 C 2695.528 4990.813 2699.41 4968.795 2695.528 4915.253 C 2692.132 4875.221 2692.617 4873.219 2701.835 4873.219 C 2716.39 4873.219 2730.459 4889.732 2734.341 4910.249 C 2737.737 4929.264 2741.618 4932.266 2749.865 4921.758 C 2753.747 4916.754 2752.291 4906.746 2742.588 4883.227 C 2729.489 4848.7 2715.905 4780.145 2717.845 4755.626 C 2718.331 4747.119 2716.875 4737.111 2714.449 4733.108 C 2710.568 4727.103 2690.192 4681.067 2674.667 4644.538 C 2672.726 4639.534 2680.974 4638.033 2705.717 4638.033 L 2739.677 4638.033 L 2748.41 4658.049 C 2756.172 4676.063 2779.945 4708.088 2779.945 4700.582 C 2779.945 4699.081 2772.183 4681.567 2762.965 4661.051 C 2751.806 4636.531 2742.103 4623.021 2733.855 4619.018 C 2725.608 4615.014 2691.162 4613.013 2636.825 4613.013 C 2558.23 4613.013 2550.953 4614.014 2542.22 4623.021 C 2533.973 4631.528 2526.21 4633.029 2486.913 4633.029 C 2433.061 4633.029 2429.665 4630.527 2431.605 4591.996 L 2433.061 4565.475 L 2485.942 4563.974 C 2529.606 4562.973 2539.794 4563.974 2543.19 4570.479 C 2549.012 4580.987 2624.696 4581.488 2624.696 4570.979 C 2624.696 4560.972 2583.458 4523.442 2560.171 4512.433 C 2531.547 4499.423 2441.794 4498.922 2413.655 4512.433 C 2372.902 4531.448 2321.476 4599.502 2282.663 4684.57 C 2271.02 4710.59 2257.921 4733.108 2254.039 4734.609 C 2236.574 4741.615 2209.891 4894.736 2222.019 4918.255 C 2229.782 4933.767 2235.604 4930.265 2241.425 4907.246 C 2247.247 4884.228 2256.95 4873.219 2271.505 4873.219 C 2279.267 4873.219 2280.238 4878.724 2280.238 4930.765 C 2280.238 4983.307 2281.208 4988.811 2290.911 4998.318 C 2304.01 5010.828 2306.436 5010.828 2365.625 4997.318 Z" style=""/>
    <path d="M 2219.594 4497.922 C 2164.771 4481.408 1933.353 4408.851 1920.739 4403.847 C 1895.512 4393.339 1873.68 4368.319 1859.125 4331.289 C 1835.353 4273.243 1782.471 4075.586 1758.213 3958.994 C 1756.758 3950.988 1750.451 3946.484 1735.411 3941.98 C 1705.332 3933.474 1683.015 3920.463 1663.609 3898.946 C 1632.074 3865.42 1628.192 3852.409 1626.252 3779.852 C 1624.796 3718.303 1625.281 3713.799 1635.955 3697.787 C 1658.757 3662.759 1663.123 3662.259 1832.927 3662.259 L 1984.78 3662.259 L 1981.869 3691.282 C 1975.562 3754.332 1945.482 4211.194 1945.482 4242.719 C 1945.482 4280.249 1953.73 4296.762 1979.928 4310.273 C 1993.998 4318.279 2015.344 4318.279 2977.402 4317.779 C 2993.412 4317.779 3021.551 4289.756 3027.373 4268.74 C 3030.769 4254.729 3026.888 4176.667 3011.363 3956.492 L 2990.986 3662.259 L 3084.621 3662.259 C 3193.78 3662.259 3205.424 3665.261 3221.434 3697.286 C 3252.484 3759.836 3244.236 3893.442 3196.691 4091.599 C 3174.859 4183.172 3139.928 4295.261 3119.067 4340.797 C 3104.997 4371.321 3088.017 4388.835 3058.908 4402.346 C 3051.145 4405.848 2973.521 4431.369 2887.164 4457.89 L 2729.489 4506.929 L 2690.677 4469.399 C 2624.211 4404.848 2555.319 4381.829 2455.863 4389.836 C 2379.209 4396.341 2331.179 4419.86 2275.871 4477.405 L 2248.703 4506.428 L 2219.594 4497.922 Z" style=""/>
    <path d="M 1999.334 4264.236 C 1990.601 4258.231 1989.631 4276.246 2015.344 3897.445 C 2022.622 3796.865 2029.414 3692.282 2030.869 3664.761 C 2033.295 3627.731 2035.721 3613.22 2041.543 3608.716 C 2052.701 3599.209 2919.669 3599.209 2932.283 3608.716 C 2938.59 3613.72 2941.016 3624.729 2942.956 3659.757 C 2944.412 3684.776 2953.63 3827.89 2964.303 3979.01 C 2974.976 4129.629 2982.254 4256.23 2980.798 4260.233 C 2978.858 4264.236 2975.462 4267.739 2972.065 4267.739 C 2969.155 4267.739 2750.836 4268.239 2486.913 4269.24 C 2131.296 4269.741 2005.156 4268.74 1999.334 4264.236 Z M 2867.272 3702.29 C 2867.272 3692.282 2863.876 3692.282 2486.428 3692.282 C 2108.979 3692.282 2105.583 3692.282 2105.583 3702.29 C 2105.583 3712.298 2108.979 3712.298 2486.428 3712.298 C 2863.876 3712.298 2867.272 3712.298 2867.272 3702.29 Z" style=""/>
    <path d="M 2454.893 3487.12 L 2454.893 3422.068 L 2486.428 3422.068 L 2517.962 3422.068 L 2517.962 3487.12 L 2517.962 3552.171 L 2486.428 3552.171 L 2454.893 3552.171 L 2454.893 3487.12 Z" style=""/>
    <path d="M 2418.506 3321.989 L 2418.506 3251.933 L 2433.061 3251.933 C 2441.308 3251.933 2472.358 3251.433 2502.438 3250.432 L 2556.775 3249.431 L 2556.775 3320.487 L 2556.775 3392.044 L 2487.883 3392.044 L 2418.506 3392.044 L 2418.506 3321.989 Z" style=""/>
    <path d="M 2110.434 3319.487 L 2110.434 3286.961 L 2251.128 3286.961 L 2391.823 3286.961 L 2391.823 3319.487 L 2391.823 3352.012 L 2251.128 3352.012 L 2110.434 3352.012 L 2110.434 3319.487 Z" style=""/>
    <path d="M 2583.458 3320.487 L 2583.458 3289.463 L 2723.182 3287.962 L 2862.421 3286.961 L 2862.421 3319.487 L 2862.421 3352.012 L 2723.182 3352.012 L 2583.458 3352.012 L 2583.458 3320.487 Z" style=""/>
    <path d="M 486.143 4561.972 C 477.895 4553.466 477.895 4067.08 486.143 4058.573 C 490.509 4054.069 528.836 4052.568 627.807 4052.568 L 764.135 4052.068 L 823.324 3997.525 C 879.602 3945.483 896.582 3934.475 898.038 3948.986 C 898.523 3951.988 899.008 3976.508 899.493 4002.529 L 899.978 4050.066 L 962.078 4052.568 C 1010.108 4054.57 1025.148 4056.571 1028.544 4062.576 C 1035.821 4074.586 1034.851 4554.466 1027.573 4561.972 C 1019.326 4570.479 494.39 4570.479 486.143 4561.972 Z M 824.779 4489.415 C 838.849 4477.405 841.76 4476.905 861.651 4481.408 C 881.057 4485.912 883.968 4485.412 889.79 4476.905 C 894.641 4470.4 895.127 4461.893 892.701 4449.883 C 889.305 4434.371 890.76 4429.868 902.889 4415.856 C 922.295 4392.838 920.84 4384.331 896.097 4373.323 C 878.631 4365.316 874.265 4360.813 869.414 4343.799 C 861.166 4316.277 848.067 4312.274 829.146 4330.789 C 815.562 4344.3 813.621 4344.3 794.215 4339.296 C 766.076 4331.289 756.858 4339.796 761.71 4368.319 C 765.106 4386.333 763.65 4390.837 751.521 4405.348 C 732.115 4427.866 733.571 4436.373 758.799 4447.882 C 777.235 4455.888 781.116 4459.891 784.027 4475.404 C 786.452 4490.916 796.155 4502.425 806.344 4502.925 C 807.799 4502.925 816.532 4496.921 824.779 4489.415 Z M 720.472 4384.832 C 736.482 4378.327 736.482 4378.327 731.63 4354.808 C 726.779 4332.29 727.264 4331.79 743.759 4315.777 C 755.403 4304.768 763.65 4300.765 769.957 4302.767 C 802.462 4315.277 804.403 4314.276 817.987 4287.254 C 831.572 4259.232 832.057 4261.734 804.403 4244.22 C 793.245 4236.714 791.304 4232.711 791.789 4211.694 C 792.274 4188.676 793.73 4187.175 813.136 4175.165 L 833.997 4162.656 L 826.235 4138.637 C 821.869 4125.626 817.502 4113.617 815.562 4111.615 C 814.106 4109.613 802.948 4110.114 791.304 4113.116 C 776.749 4116.619 768.017 4116.119 764.621 4112.616 C 761.71 4109.613 718.531 4107.612 646.728 4107.612 L 533.688 4107.612 L 533.688 4207.191 C 533.688 4291.758 534.658 4307.771 541.45 4313.275 C 548.728 4319.78 548.728 4326.285 540.965 4358.811 C 538.539 4369.32 540.965 4372.322 562.312 4382.83 C 575.896 4389.335 587.54 4393.839 588.51 4392.338 C 614.708 4353.307 615.194 4353.307 639.451 4356.309 C 652.065 4357.81 662.738 4360.312 663.709 4362.314 C 664.194 4363.815 669.045 4372.822 674.382 4381.829 C 685.056 4399.343 686.511 4399.844 720.472 4384.832 Z" style=""/>
    <path d="M 599.669 4250.725 C 578.322 4228.708 572.985 4201.186 585.114 4175.165 C 605.976 4130.13 660.798 4122.624 693.303 4160.654 C 705.432 4174.665 708.343 4182.171 708.343 4201.687 C 708.343 4244.22 685.056 4267.239 641.877 4267.739 C 619.56 4267.739 614.708 4265.737 599.669 4250.725 Z" style=""/>
    <path d="M 4263.542 4608.009 C 4211.145 4598.501 4162.145 4555.968 4142.739 4503.426 C 4129.155 4465.396 4131.095 4406.349 4148.076 4370.32 C 4164.571 4335.293 4200.472 4300.765 4232.977 4288.255 C 4264.997 4275.745 4319.82 4274.244 4349.414 4285.253 C 4371.246 4293.259 4369.79 4294.26 4415.88 4246.722 C 4435.771 4225.706 4446.93 4217.699 4456.633 4217.699 C 4480.89 4217.699 4516.792 4255.729 4516.792 4281.25 C 4516.792 4286.254 4500.297 4307.27 4479.92 4328.287 L 4443.048 4366.818 L 4451.296 4400.845 C 4480.405 4520.439 4381.919 4629.526 4263.542 4608.009 Z M 4322.731 4542.957 C 4360.573 4531.949 4395.504 4485.412 4395.504 4445.88 C 4395.504 4365.316 4310.602 4313.775 4244.136 4354.308 C 4175.244 4395.841 4178.155 4495.92 4249.473 4533.95 C 4276.641 4548.962 4295.077 4550.964 4322.731 4542.957 Z" style=""/>
    <path d="M 4247.532 4455.388 L 4223.274 4407.35 L 4235.403 4397.842 L 4247.532 4388.335 L 4260.631 4411.853 L 4273.73 4434.872 L 4284.889 4407.85 L 4296.532 4380.328 L 4313.513 4410.352 C 4329.523 4438.875 4331.463 4440.376 4350.869 4441.877 C 4369.79 4443.378 4371.246 4444.379 4371.246 4458.39 C 4371.246 4472.902 4371.246 4472.902 4342.622 4472.902 C 4319.335 4472.902 4312.057 4470.9 4306.721 4462.894 C 4300.414 4453.386 4299.443 4454.387 4288.77 4477.906 C 4282.463 4491.917 4276.156 4502.925 4274.7 4502.925 C 4273.245 4502.925 4261.116 4481.408 4247.532 4455.388 Z" style=""/>
    <path d="M 3829.33 4544.458 C 3826.905 4543.458 3825.934 4464.895 3826.905 4369.32 L 3828.36 4195.682 L 3786.637 4155.15 L 3744.914 4114.617 L 3746.369 4090.098 L 3747.825 4065.078 L 4086.946 4063.577 C 4355.236 4062.576 4427.038 4063.577 4430.435 4068.581 C 4432.375 4072.084 4434.316 4084.093 4434.316 4095.102 C 4434.316 4113.617 4431.405 4117.62 4393.078 4154.149 L 4351.84 4193.18 L 4351.84 4226.206 C 4351.84 4253.728 4350.869 4258.231 4344.077 4255.729 C 4339.711 4254.228 4329.038 4252.727 4319.82 4252.727 C 4305.75 4252.727 4303.325 4251.226 4303.325 4240.217 L 4303.325 4228.208 L 4089.857 4228.208 L 3876.39 4228.208 L 3876.39 4360.312 L 3876.39 4492.918 L 3994.767 4492.918 L 4112.659 4492.918 L 4121.877 4516.436 C 4127.214 4529.947 4131.58 4541.456 4132.551 4542.957 C 4133.521 4545.459 3836.608 4546.46 3829.33 4544.458 Z M 4330.008 4167.66 L 4344.077 4152.648 L 4089.857 4152.648 L 3835.637 4152.648 L 3849.707 4167.66 L 3863.776 4182.671 L 4089.857 4182.671 L 4315.938 4182.671 L 4330.008 4167.66 Z" style=""/>
    <path d="M 1334.19 2868.629 L 1334.19 2690.988 L 1292.952 2650.956 L 1252.199 2610.925 L 1254.625 2587.406 C 1255.595 2574.896 1258.021 2563.387 1259.476 2561.886 C 1264.813 2556.381 1931.898 2556.381 1941.116 2561.886 C 1947.908 2565.388 1950.334 2572.394 1950.334 2588.407 C 1950.334 2608.423 1948.393 2611.925 1909.096 2650.956 L 1867.858 2692.489 L 1867.858 2869.63 L 1867.858 3046.77 L 1601.024 3046.77 L 1334.19 3046.77 L 1334.19 2868.629 Z M 1815.947 2991.727 C 1817.887 2991.727 1818.857 2933.18 1818.372 2861.623 L 1816.917 2731.02 L 1602.479 2730.019 L 1388.042 2729.018 L 1385.131 2741.028 C 1382.22 2752.537 1382.22 2986.723 1385.131 2991.727 C 1386.101 2993.728 1786.837 2993.728 1815.947 2991.727 Z M 1846.026 2666.469 L 1860.095 2651.457 L 1603.935 2651.457 C 1334.675 2651.457 1343.893 2650.456 1362.329 2672.974 C 1369.121 2680.98 1386.586 2681.481 1601.024 2681.481 L 1831.957 2681.481 L 1846.026 2666.469 Z" style=""/>
    <path d="M 1551.053 2893.649 C 1549.113 2891.647 1547.657 2862.124 1547.657 2828.597 C 1547.657 2755.539 1547.172 2756.54 1601.994 2756.54 C 1654.876 2756.54 1654.876 2756.54 1653.42 2831.6 L 1651.965 2894.149 L 1602.964 2895.65 C 1576.281 2896.151 1552.994 2895.65 1551.053 2893.649 Z" style=""/>
    <path d="M 3245.692 3108.82 C 3168.067 3087.803 3095.294 3028.756 3059.878 2958.7 C 3050.175 2938.685 3041.927 2921.671 3041.927 2920.17 C 3041.927 2918.669 3057.937 2918.669 3077.344 2920.17 C 3110.334 2922.672 3120.522 2927.676 3125.374 2942.688 C 3127.799 2950.194 3168.067 2937.684 3168.067 2929.677 C 3168.067 2920.17 3191.354 2916.167 3194.265 2925.174 C 3195.721 2929.177 3201.543 2931.179 3207.85 2929.677 C 3214.157 2928.176 3226.771 2926.175 3236.474 2924.173 C 3253.454 2921.671 3253.939 2920.67 3256.85 2895.65 C 3258.791 2881.139 3263.157 2866.127 3267.523 2862.124 C 3273.83 2855.118 3274.801 2856.119 3274.801 2869.129 C 3274.801 2877.636 3276.256 2892.648 3277.712 2902.656 L 3280.623 2921.171 L 3317.979 2920.17 L 3354.851 2919.169 L 3358.247 2896.651 C 3359.702 2884.141 3361.643 2864.626 3361.643 2853.117 L 3362.128 2831.6 L 3342.722 2831.6 C 3324.286 2831.6 3323.316 2830.599 3323.316 2816.588 C 3323.316 2802.076 3324.286 2801.576 3343.207 2801.576 L 3363.584 2801.576 L 3360.188 2768.049 C 3355.821 2716.508 3353.395 2711.504 3337.385 2711.504 C 3325.742 2711.504 3323.316 2709.503 3323.316 2698.994 C 3323.316 2688.986 3325.742 2686.485 3335.445 2686.485 C 3342.237 2686.485 3347.574 2685.984 3347.574 2684.983 C 3347.574 2679.479 3318.464 2590.408 3313.613 2580.4 C 3310.217 2574.396 3297.603 2558.383 3285.474 2545.373 C 3257.82 2515.849 3260.731 2514.348 3332.049 2517.35 C 3395.604 2520.353 3444.604 2538.367 3493.605 2576.397 C 3668.26 2712.005 3639.15 2995.73 3440.723 3089.304 C 3383.475 3116.326 3303.425 3124.332 3245.692 3108.82 Z M 3522.714 2914.666 C 3530.476 2897.152 3538.239 2871.131 3540.179 2857.12 L 3543.09 2831.099 L 3514.466 2832.6 L 3485.842 2834.102 L 3482.446 2864.125 C 3480.02 2880.639 3475.654 2903.657 3471.773 2915.166 L 3464.495 2936.683 L 3477.595 2939.685 C 3484.872 2941.187 3493.119 2943.188 3495.545 2944.189 C 3506.219 2948.192 3508.644 2945.19 3522.714 2914.666 Z M 3446.545 2906.159 C 3450.911 2892.148 3455.763 2869.63 3457.218 2856.119 L 3460.614 2831.6 L 3424.228 2831.6 L 3388.326 2831.6 L 3387.356 2853.117 C 3386.871 2864.626 3384.93 2884.642 3383.475 2897.652 L 3380.564 2921.171 L 3399.485 2924.173 C 3409.673 2926.175 3420.347 2928.176 3422.772 2929.177 C 3435.871 2933.681 3439.753 2929.677 3446.545 2906.159 Z M 3458.674 2785.563 C 3458.674 2776.556 3454.792 2754.538 3450.426 2736.524 L 3442.178 2703.998 L 3422.772 2705.5 C 3381.534 2708.002 3380.079 2709.503 3383.475 2735.023 C 3384.93 2747.533 3386.386 2767.549 3386.386 2779.558 L 3386.386 2801.576 L 3422.772 2801.576 L 3459.159 2801.576 L 3458.674 2785.563 Z M 3540.179 2776.056 C 3536.783 2749.535 3511.555 2686.485 3503.793 2686.485 C 3495.545 2686.485 3468.862 2697.493 3468.862 2700.496 C 3468.862 2702.497 3472.258 2716.508 3476.139 2731.52 C 3480.02 2746.532 3483.416 2767.048 3483.416 2777.056 C 3483.416 2787.064 3484.872 2796.572 3486.812 2798.073 C 3488.268 2800.075 3501.852 2801.576 3516.407 2801.576 L 3543.09 2801.576 L 3540.179 2776.056 Z" style=""/>
    <path d="M 3038.531 2883.141 C 3026.888 2881.639 3022.521 2878.137 3020.096 2868.129 C 3014.759 2846.111 2999.719 2828.097 2978.858 2819.59 L 2959.451 2811.584 L 2959.451 2709.002 C 2959.451 2627.938 2960.907 2602.918 2966.729 2591.409 C 2979.343 2566.89 3042.898 2516.35 3099.661 2486.826 C 3120.522 2475.817 3121.492 2475.817 3142.839 2483.824 C 3172.919 2495.833 3245.692 2546.874 3266.553 2570.893 C 3276.256 2581.902 3285.474 2596.413 3286.93 2602.418 C 3288.385 2608.923 3288.87 2658.963 3288.385 2714.006 C 3286.93 2809.582 3286.444 2814.086 3277.227 2816.087 C 3259.761 2819.09 3239.87 2837.604 3230.652 2859.121 C 3222.404 2878.637 3219.978 2880.639 3199.117 2883.641 C 3175.344 2886.643 3065.215 2886.643 3038.531 2883.141 Z M 3192.81 2845.611 C 3196.691 2842.108 3205.909 2830.599 3213.186 2820.591 C 3220.464 2810.583 3233.078 2798.073 3240.84 2793.069 L 3255.395 2784.562 L 3255.395 2733.021 L 3255.395 2681.481 L 3189.899 2681.481 L 3124.403 2681.481 L 3124.403 2598.915 C 3124.403 2553.379 3122.463 2516.35 3120.522 2516.35 C 3114.215 2516.35 3060.848 2550.877 3033.195 2572.394 C 2996.808 2601.417 2993.412 2607.922 2993.412 2647.454 L 2993.412 2681.481 L 3058.908 2681.481 L 3124.403 2681.481 L 3124.403 2766.548 L 3124.403 2851.616 L 3154.968 2851.616 C 3172.434 2851.616 3188.929 2849.114 3192.81 2845.611 Z" style=""/>
    <path d="M 807.463 4428.132 C 797.723 4418.84 795.287 4407.225 800.822 4396.244 C 810.341 4377.238 835.356 4374.07 850.187 4390.12 C 855.722 4396.033 857.05 4399.2 857.05 4407.437 C 857.05 4425.386 846.424 4435.101 826.722 4435.312 C 816.539 4435.312 814.325 4434.467 807.463 4428.132 Z" style=""/>
    <path d="M 1560.368 2897.246 C 1558.819 2897.894 1557.657 2907.458 1557.657 2918.32 C 1557.657 2941.987 1557.27 2941.663 1601.032 2941.663 C 1643.245 2941.663 1643.245 2941.663 1642.083 2917.346 L 1640.921 2897.083 L 1601.806 2896.597 C 1580.506 2896.435 1561.917 2896.597 1560.368 2897.246 Z" style=""/>
    <path d="M 1521.263 2855.386 C 1520.839 2855.782 1520.521 2861.62 1520.521 2868.25 C 1520.521 2882.697 1520.415 2882.5 1532.399 2882.5 C 1543.958 2882.5 1543.958 2882.5 1543.64 2867.656 L 1543.322 2855.288 L 1532.611 2854.99 C 1526.778 2854.892 1521.688 2854.99 1521.263 2855.386 Z" style="" transform="matrix(0, 1, -1, 0, 4400.850037, 1336.605042)"/>
    <path d="M 1521.263 2825.386 C 1520.839 2825.782 1520.521 2831.62 1520.521 2838.25 C 1520.521 2852.697 1520.415 2852.5 1532.399 2852.5 C 1543.958 2852.5 1543.958 2852.5 1543.64 2837.656 L 1543.322 2825.288 L 1532.611 2824.99 C 1526.778 2824.892 1521.688 2824.99 1521.263 2825.386 Z" style="" transform="matrix(0, 1, -1, 0, 4370.850037, 1306.605042)"/>
    <path d="M 1521.263 2795.386 C 1520.839 2795.782 1520.521 2801.62 1520.521 2808.25 C 1520.521 2822.697 1520.415 2822.5 1532.399 2822.5 C 1543.958 2822.5 1543.958 2822.5 1543.64 2807.656 L 1543.322 2795.288 L 1532.611 2794.99 C 1526.778 2794.892 1521.688 2794.99 1521.263 2795.386 Z" style="" transform="matrix(0, 1, -1, 0, 4340.850037, 1276.605042)"/>
    <path d="M 1661.263 2795.386 C 1660.839 2795.782 1660.521 2801.62 1660.521 2808.25 C 1660.521 2822.697 1660.415 2822.5 1672.399 2822.5 C 1683.958 2822.5 1683.958 2822.5 1683.64 2807.656 L 1683.322 2795.288 L 1672.611 2794.99 C 1666.778 2794.892 1661.688 2794.99 1661.263 2795.386 Z" style="" transform="matrix(0, -1, 1, 0, -1136.605042, 4480.850037)"/>
    <path d="M 1661.263 2825.386 C 1660.839 2825.782 1660.521 2831.62 1660.521 2838.25 C 1660.521 2852.697 1660.415 2852.5 1672.399 2852.5 C 1683.958 2852.5 1683.958 2852.5 1683.64 2837.656 L 1683.322 2825.288 L 1672.611 2824.99 C 1666.778 2824.892 1661.688 2824.99 1661.263 2825.386 Z" style="" transform="matrix(0, -1, 1, 0, -1166.605042, 4510.850037)"/>
    <path d="M 1661.263 2855.386 C 1660.839 2855.782 1660.521 2861.62 1660.521 2868.25 C 1660.521 2882.697 1660.415 2882.5 1672.399 2882.5 C 1683.958 2882.5 1683.958 2882.5 1683.64 2867.656 L 1683.322 2855.288 L 1672.611 2854.99 C 1666.778 2854.892 1661.688 2854.99 1661.263 2855.386 Z" style="" transform="matrix(0, -1, 1, 0, -1196.605042, 4540.850037)"/>
    <path d="M 3498.179 6019.679 L 3498.179 6004.679 L 3533.179 6004.679 L 3568.179 6004.679 L 3568.179 6019.679 L 3568.179 6034.679 L 3533.179 6034.679 L 3498.179 6034.679 L 3498.179 6019.679 Z" style="fill: rgb(255, 255, 255);"/>
    <path d="M 3498.179 5969.679 L 3498.179 5954.679 L 3533.179 5954.679 L 3568.179 5954.679 L 3568.179 5969.679 L 3568.179 5984.679 L 3533.179 5984.679 L 3498.179 5984.679 L 3498.179 5969.679 Z" style="fill: rgb(255, 255, 255);"/>
  </g>
  <g transform="matrix(3.594663, 0, 0, 4.580906, -184.234787, 141.174759)" style="">
    <path style="fill: rgb(216, 216, 216); stroke: rgb(0, 0, 0);"/>
  </g>
</svg>