<?xml version="1.0" encoding="iso-8859-1"?>
<!DOCTYPE svg PUBLIC "-//W3C//DTD SVG 1.1//EN" "http://www.w3.org/Graphics/SVG/1.1/DTD/svg11.dtd">
<svg xmlns="http://www.w3.org/2000/svg" xmlns:xlink="http://www.w3.org/1999/xlink" version="1.1" id="psd2html_svg" x="0px" y="0px" viewBox="0 0 932.179 932.179" style="enable-background:new 0 0 932.179 932.179;" xml:space="preserve">
<g>
	<g>
		<path fill="#8C8C8C" d="M58.1,430.5v-346h83.6c30.1,0,52,8.4,65.7,25.2c13.7,16.8,20.6,41.1,20.6,72.9
			c0,15.6-1.5,29.2-4.5,40.8c-3,11.5-7.2,21-12.6,28.5c-5.4,7.5-12.3,13.5-20.8,18.1c-8.5,4.6-17.6,7.8-27.5,9.6
			c-9.9,1.9-21.3,2.9-34.2,3v148H58.1z M128.7,233.1c3.7,0,7-0.2,9.9-0.7c2.9-0.4,5.4-1,7.6-1.5c2.2-0.6,4.1-1.6,5.8-3.2
			c1.7-1.5,3-2.9,4.1-4c1.1-1.2,2-3,2.8-5.7c0.8-2.6,1.3-4.8,1.7-6.4c0.4-1.7,0.7-4.4,0.9-8.1c0.2-3.7,0.3-6.7,0.3-8.9
			c0-2.2,0-5.7,0-10.5c0-1.3,0-2.2,0-2.9c0-5,0-8.8-0.1-11.3c-0.1-2.6-0.3-5.8-0.7-9.8c-0.4-4-1-6.9-1.8-8.9
			c-0.8-2-2.1-4.3-3.7-6.8c-1.6-2.6-3.6-4.4-5.9-5.6c-2.3-1.2-5.2-2.2-8.7-3.1c-3.5-0.9-7.6-1.3-12.2-1.3V233.1z"/>
		<path fill="#8C8C8C" d="M242.7,331.5l70.9-13.6c0,7,0.1,13.3,0.4,18.6c0.3,5.4,0.9,11.2,2,17.6c1.1,6.3,2.6,11.5,4.4,15.6
			c1.9,4,4.5,7.4,7.9,10.2c3.4,2.8,7.4,4.1,12,4.1c13.8,0,20.8-8.8,20.8-26.5c0-24.2-13.6-48.3-40.9-72.3l-21.7-18.5
			c-6.9-5.8-12.4-10.6-16.5-14.4c-4.1-3.8-8.9-9-14.5-15.6c-5.6-6.5-9.9-12.8-13.1-18.9c-3.1-6.1-5.8-13.4-8.1-22
			c-2.2-8.6-3.4-17.7-3.4-27.3c0-28.1,8.9-50.3,26.7-66.6c17.8-16.3,41.5-24.5,70.9-24.5c24.5,0,45.3,8.7,62.5,26.1
			c17.2,17.4,25.8,38.4,25.8,63l-0.2,2.5c0,1.7,0,3.6,0,5.8l-72.3,10c0-1.4,0.1-3.6,0.3-6.6c0.2-3,0.3-5.5,0.3-7.4
			c0-4.6-0.3-9-1-13.3c-0.6-4.2-1.7-8.5-3.2-12.7c-1.5-4.2-3.7-7.6-6.8-10.1c-3.1-2.5-6.8-3.7-11.1-3.7c-7.7,0-13.5,3-17.3,9
			c-3.8,6-5.8,13.1-5.8,21.3c0,7.2,1.1,13.9,3.4,20.2c2.2,6.3,5.6,12.1,10.2,17.6c4.5,5.4,8.7,10,12.6,13.6c3.8,3.6,9,8,15.4,13.2
			c6.4,5.2,11,9,13.6,11.4c9.9,8.7,18.2,16.9,25,24.5c6.8,7.6,13.2,16.2,19.2,25.9c6,9.6,10.5,20,13.6,31.1
			c3,11.1,4.5,23.2,4.5,36.1c0,24.2-8.6,44.1-25.9,59.5c-17.3,15.4-38.3,23.2-63,23.2c-16,0-30.2-2.9-42.7-8.8
			c-12.4-5.9-22.5-13.9-30.1-24c-7.6-10.1-13.5-21.3-17.6-33.6C245.7,358.8,243.3,345.6,242.7,331.5z"/>
		<path fill="#8C8C8C" d="M457,430.5v-346h72.3c23.1,0,42.1,2.1,57,6.2c14.9,4.2,26.7,11,35.2,20.6
			c8.5,9.5,14.4,21,17.7,34.3c3.3,13.3,4.9,30.3,4.9,50.9V310c0,12.3-0.4,23-1.2,32.2c-0.8,9.2-2.2,18.1-4.3,26.9
			c-2.1,8.8-5,16.2-8.6,22.3c-3.7,6.1-8.4,11.8-14.1,17c-5.8,5.3-12.7,9.4-20.9,12.5c-8.1,3.1-17.7,5.4-28.6,7.1
			c-11,1.7-23.5,2.5-37.8,2.5H457z M529.6,381.5c6.7,0,11.9-0.1,15.8-0.3s7.7-0.7,11.5-1.4c3.8-0.8,6.7-1.8,8.5-3.2
			c1.8-1.3,3.5-3.3,5-5.9c1.5-2.6,2.5-5.6,3-9.1c0.4-3.5,0.7-7.9,0.7-13.2V162.2c0-11.4-3.4-19-10.2-22.7
			c-6.8-3.7-18.2-5.6-34.2-5.8V381.5z"/>
	</g>
	<path class="accent" fill="#FFFFFF" d="M883.1,173.1c0,15.3-2.4,30.3-7.2,45.3c-4.8,14.9-11.6,29.3-20.5,43.1
		c-8.8,13.8-17.4,25.9-25.6,36.4c-8.2,10.5-18,22.4-29.4,35.7c-11.4,13.3-19.7,23.4-25,30.5h107.6v66.5H698.9v-59.4l84.2-120.5
		c4.9-7,8.9-13.1,12.1-18.1c3.2-5,6.6-11,10.3-18.1c3.7-7,6.4-14,8.3-21c1.9-6.9,2.8-13.7,2.8-20.4c0-4-0.5-8-1.4-12.1
		c-1-4.1-2.4-8.1-4.3-11.9c-1.9-3.8-4.6-6.9-8-9.3c-3.4-2.4-7.3-3.6-11.6-3.6c-3.6,0-6.8,0.8-9.7,2.5c-2.9,1.7-5.2,3.9-7,6.8
		c-1.8,2.9-3.3,6.2-4.6,9.9c-1.3,3.7-2.2,7.7-2.7,11.8c-0.5,4.2-1,8.4-1.3,12.6c-0.4,4.2-0.5,8.2-0.5,12c0.1,3.8,0.1,7.3,0.1,10.5
		c0,2.2,0,3.7,0,4.6h-66.3v-21.7c0-12.7,1-24.3,3.1-34.9c2-10.6,5.4-20.4,10-29.5c4.6-9.1,10.4-16.8,17.5-23.1
		c7-6.3,15.8-11.2,26.1-14.7c10.4-3.5,22.2-5.3,35.4-5.3c29.2,0,51.8,8.6,67.9,25.7C875.1,120.6,883.1,143.8,883.1,173.1z"/>
	<g>
		<path fill="#5B5B5B" d="M58.1,796.4v-346h70v141.9h50.2V450.4h70.4v346h-70.4V642h-50.2v154.4H58.1z"/>
		<path fill="#5B5B5B" d="M322.6,796.4V502.7h-50.7v-52.3h170.5v52.3h-49.8v293.7H322.6z"/>
		<path fill="#5B5B5B" d="M465.6,796.4v-346h83.8L586.3,681l39.8-230.7h80.9v346h-51.5L654,553
			c-3.8,25-10.6,65.5-20.2,121.7s-16.3,96.7-20.2,121.7h-52.3l-42.5-244.9l-1.5,244.9H465.6z"/>
		<path fill="#5B5B5B" d="M748.2,796.4v-346h70v297.9H887v48.1H748.2z"/>
	</g>
</g>
</svg>
