<?xml version="1.0" encoding="utf-8"?>
<!DOCTYPE svg PUBLIC "-//W3C//DTD SVG 1.1//EN" "http://www.w3.org/Graphics/SVG/1.1/DTD/svg11.dtd" [
	<!ENTITY ns_extend "http://ns.adobe.com/Extensibility/1.0/">
	<!ENTITY ns_ai "http://ns.adobe.com/AdobeIllustrator/10.0/">
	<!ENTITY ns_graphs "http://ns.adobe.com/Graphs/1.0/">
	<!ENTITY ns_vars "http://ns.adobe.com/Variables/1.0/">
	<!ENTITY ns_imrep "http://ns.adobe.com/ImageReplacement/1.0/">
	<!ENTITY ns_sfw "http://ns.adobe.com/SaveForWeb/1.0/">
	<!ENTITY ns_custom "http://ns.adobe.com/GenericCustomNamespace/1.0/">
	<!ENTITY ns_adobe_xpath "http://ns.adobe.com/XPath/1.0/">
]>
<svg version="1.1" xmlns:x="&ns_extend;" xmlns:i="&ns_ai;" xmlns:graph="&ns_graphs;"
	 xmlns="http://www.w3.org/2000/svg" xmlns:xlink="http://www.w3.org/1999/xlink" viewBox="0 0 520.1 542.2"
	 style="enable-background:new 0 0 520.1 542.2;" xml:space="preserve">
<switch>
	<g i:extraneous="self">
		<path fill="#4D4D4D" d="M12,415.2h41.3c6.6,0,12,5.4,12,12v103c0,6.6-5.4,12-12,12H12c-6.6,0-12-5.4-12-12v-103
			C0,420.6,5.4,415.2,12,415.2z"/>
		<path fill="#4D4D4D" d="M188.6,354.3h43.5c6.6,0,12,5.4,12,12v163.9c0,6.6-5.4,12-12,12h-43.5c-6.6,0-12-5.4-12-12V366.3
			C176.6,359.7,182,354.3,188.6,354.3z"/>
		<path fill="#4D4D4D" d="M100.6,347.5h42c6.6,0,12,5.4,12,12v170.6c0,6.6-5.4,12-12,12h-42c-6.6,0-12-5.4-12-12V359.5
			C88.6,352.9,94,347.5,100.6,347.5z"/>
		<path fill="#4D4D4D" d="M278.4,391.7H320c6.6,0,12,5.4,12,12v126.4c0,6.6-5.4,12-12,12h-41.6c-6.6,0-12-5.4-12-12V403.7
			C266.4,397.1,271.8,391.7,278.4,391.7z"/>
		<path fill="#4D4D4D" d="M367.4,354.3h41.5c6.6,0,12,5.4,12,12v163.9c0,6.6-5.4,12-12,12h-41.5c-6.6,0-12-5.4-12-12V366.3
			C355.4,359.7,360.8,354.3,367.4,354.3z"/>
		<path fill="#4D4D4D" d="M456,318.1h42.1c6.6,0,12,5.4,12,12v200.1c0,6.6-5.4,12-12,12H456c-6.6,0-12-5.4-12-12V330.1
			C444,323.5,449.4,318.1,456,318.1z"/>
		<path fill="#fff" class="accent" d="M405.1,186l-35.9-57.8c-2.3-3.6,0.9-8.2,5.1-7.5L515,147.1c3.4,0.6,5.7,4,4.9,7.4l-30.3,146.1
			c-0.9,4.3-6.5,5.4-9,1.7l-33-50.3L288.2,370.7c-5.4,4-12.9,3.3-17.4-1.7l-87.1-96.2c-3.6-4-9.6-4.7-14.1-1.7L11.6,378.9
			c-6.6,4.5-14-4.3-8.5-10.1l190.3-197.2c4.3-4.4,11.4-4.4,15.6,0.1l75.7,80.9c3.3,3.6,8.7,4.2,12.8,1.6L405.1,186z"/>
		<path fill="#8C8C8C" d="M274.2,117.9c-0.5-0.1-1.1-0.2-1.6-0.3V68.2c6.4,3.3,10.9,10.3,15.3,24c6.2,19.5,43,19.3,40.6-10
			c-2.3-27.3-23.2-49.2-55.9-53.1v-16c0-7.3-5.9-13.2-13.2-13.2c-7.3,0-13.2,5.9-13.2,13.2v16.6c-35.6,5.4-58.1,29.1-58.1,59.4
			c0,25.8,4.1,49.1,58.1,67.1v34.1l47.5,52.2c26.8-10.6,41.5-31,41.5-56.6C335.3,154,315.6,125.2,274.2,117.9z M246.3,109.4
			c-10.7-5.9-14.6-13.9-14.6-24.6c0-8.8,6.6-14.2,14.6-16.9V109.4z M272.6,216.1v-50.8c14.2,5.7,21.5,11.7,21.5,24.2
			C294.1,200.9,285.3,210.5,272.6,216.1z"/>
	</g>
</switch>
</svg>
