<?xml version="1.0" encoding="utf-8"?>
<svg version="1.1" id="support_svg" x="0px" y="0px" viewBox="0 0 932.179 932.179" style="enable-background:new 0 0 932.179 932.179;" xmlns="http://www.w3.org/2000/svg">
  <g transform="matrix(2.0506, 0, 0, 2.100228, -2073.378662, -417.235291)" style="">
    <path class="accent" d="M 1202.51 239.701 C 1203.965 242.303 1205.081 243.754 1205.469 243.604 C 1205.809 243.454 1208.332 243.003 1211.097 242.603 C 1228.223 240.001 1247.289 240.051 1263.639 242.803 C 1266.598 243.303 1269.024 243.504 1269.121 243.253 C 1269.606 242.002 1274.361 234.246 1276.107 231.944 C 1278.63 228.542 1284.598 222.737 1288.139 220.285 C 1299.104 212.629 1312.639 209.026 1325.69 210.377 C 1341.506 211.979 1356.643 221.036 1365.764 234.346 C 1372.604 244.354 1376 255.563 1376 268.073 C 1376 279.132 1373.041 289.74 1367.413 298.948 C 1366.782 299.998 1366.249 301.049 1366.249 301.349 C 1366.249 301.65 1367.656 303.601 1369.305 305.753 C 1375.952 314.06 1382.695 324.618 1387.984 334.876 C 1391.04 340.831 1396.231 353.04 1397.299 356.743 L 1397.929 358.895 L 1403.751 358.895 C 1435.674 358.895 1461.096 386.817 1459.253 419.894 C 1458.282 437.207 1450.035 452.87 1436.596 463.078 C 1426.941 470.384 1417.238 473.786 1404.333 474.337 L 1398.026 474.637 L 1395.843 480.442 C 1390.021 496.104 1380.464 513.117 1369.645 527.029 L 1365.909 531.782 L 1367.85 535.035 C 1373.914 545.143 1376.825 558.003 1375.855 570.213 C 1373.235 603.389 1343.495 627.458 1311.426 622.354 C 1294.009 619.602 1278.485 608.193 1270.431 592.13 L 1269.073 589.478 L 1267.084 589.828 C 1245.397 593.431 1229.242 593.381 1206.391 589.778 L 1204.45 589.478 L 1202.946 592.681 C 1200.812 597.134 1196.154 603.339 1191.788 607.542 C 1169.713 628.809 1135.462 628.159 1113.969 606.091 C 1101.695 593.481 1095.582 575.067 1097.959 557.803 C 1099.075 549.797 1102.18 540.789 1105.77 534.985 C 1106.935 533.183 1107.517 531.732 1107.323 531.332 C 1107.08 531.032 1105.285 528.63 1103.247 526.028 C 1093.108 513.017 1084.375 497.455 1078.117 481.242 L 1075.4 474.237 L 1069.335 474.187 C 1054.053 474.036 1040.275 467.832 1029.747 456.372 C 1019.51 445.214 1014.416 431.903 1014.464 416.391 C 1014.562 400.678 1019.898 387.067 1030.426 376.059 C 1041.148 364.85 1054.878 358.895 1070.112 358.895 L 1075.497 358.895 L 1077.098 354.492 C 1083.065 338.079 1092.865 320.465 1103.539 306.704 L 1107.759 301.299 L 1106.546 299.398 C 1102.568 293.193 1099.318 284.286 1098.153 276.33 C 1093.447 244.004 1116.152 213.78 1147.687 210.377 C 1170.101 207.975 1190.963 219.134 1202.51 239.701 Z M 1137.257 219.384 C 1119.597 225.739 1106.983 241.552 1104.266 260.767 C 1103.441 266.322 1103.878 274.929 1105.237 280.283 C 1113.339 312.258 1147.299 328.421 1175.778 313.809 C 1199.89 301.45 1210.03 271.426 1198.677 246.056 C 1192.079 231.294 1177.476 219.835 1162.048 217.233 C 1153.509 215.832 1145.165 216.532 1137.257 219.384 Z M 1314.677 216.832 C 1301.238 218.284 1288.236 225.94 1280.28 236.998 C 1276.544 242.153 1273.39 248.908 1271.789 255.113 C 1270.674 259.466 1270.528 261.017 1270.528 267.823 C 1270.528 274.578 1270.674 276.23 1271.789 280.383 C 1276.544 298.948 1290.177 313.009 1307.739 317.612 C 1318.316 320.365 1328.601 319.614 1339.032 315.311 C 1354.023 309.106 1365.57 294.744 1368.917 278.081 C 1369.936 273.027 1369.936 263.119 1368.917 258.065 C 1366.685 246.906 1362.076 238.4 1353.974 230.443 C 1345.969 222.637 1336.169 217.983 1325.011 216.782 C 1319.917 216.232 1320.014 216.232 1314.677 216.832 Z M 1221.576 249.859 C 1216.191 250.409 1208.089 251.66 1207.798 251.96 C 1207.701 252.06 1207.943 253.612 1208.332 255.363 C 1209.593 260.567 1209.835 271.776 1208.817 277.681 C 1205.566 296.295 1194.844 311.107 1178.495 319.614 C 1169.083 324.518 1156.663 326.72 1146.717 325.318 C 1135.219 323.667 1123.672 318.213 1116.298 311.007 C 1112.95 307.654 1113.436 307.454 1107.953 314.81 C 1098.347 327.77 1089.615 344.083 1084.618 358.495 L 1083.938 360.296 L 1087.917 361.647 C 1110.864 369.504 1126.098 391.021 1126.244 415.94 C 1126.341 426.299 1124.449 434.605 1120.179 443.112 C 1116.152 451.068 1108.875 459.525 1101.84 464.479 C 1098.202 467.031 1091.07 470.534 1087.043 471.785 C 1085.442 472.285 1084.084 472.735 1083.987 472.785 C 1083.744 472.936 1087.868 483.244 1090.391 488.748 C 1095.339 499.457 1102.471 511.216 1109.7 520.623 L 1113.048 525.027 L 1116.686 521.724 C 1139.391 501.358 1173.643 503.059 1194.311 525.627 C 1201.976 533.984 1206.731 543.692 1208.865 555.451 C 1209.835 560.755 1209.544 573.065 1208.38 578.019 C 1207.943 579.77 1207.652 581.272 1207.701 581.372 C 1207.798 581.422 1211.339 581.922 1215.609 582.523 C 1230.454 584.474 1245.979 584.374 1260.097 582.272 C 1263.105 581.822 1265.677 581.372 1265.774 581.272 C 1265.871 581.171 1265.531 579.02 1265.046 576.468 C 1263.833 570.313 1263.833 559.955 1265.046 554.15 C 1267.472 542.291 1272.469 532.683 1280.377 524.527 C 1291.875 512.667 1306.478 506.863 1323.07 507.663 C 1336.024 508.264 1348.347 513.518 1357.37 522.175 L 1360.378 525.077 L 1363.289 521.424 C 1369.936 513.168 1378.62 498.956 1383.617 487.998 C 1386.091 482.643 1389.536 473.886 1389.536 473.036 C 1389.536 472.836 1388.226 472.285 1386.625 471.835 C 1370.809 467.281 1355.963 452.519 1350.433 435.906 C 1347.958 428.4 1347.57 425.698 1347.57 416.691 C 1347.57 406.883 1348.201 403.28 1351.306 395.024 C 1357.031 379.812 1371.197 366.101 1385.897 361.597 C 1387.498 361.097 1389.002 360.546 1389.245 360.346 C 1389.488 360.096 1388.808 357.644 1387.595 354.542 C 1383.472 343.883 1375.855 329.372 1369.984 320.865 C 1366.54 315.911 1360.864 308.355 1360.524 308.355 C 1360.427 308.355 1359.117 309.506 1357.613 310.907 C 1348.977 318.913 1337.722 324.017 1325.884 325.369 C 1315.502 326.569 1304.343 324.468 1294.689 319.464 C 1287.848 315.961 1279.746 308.905 1275.04 302.4 C 1265.628 289.44 1261.747 270.875 1265.288 255.713 L 1266.162 251.86 L 1262.96 251.36 C 1261.213 251.06 1258.108 250.559 1256.119 250.259 C 1251.413 249.558 1227.058 249.258 1221.576 249.859 Z M 1069.578 364.95 C 1055.751 365.851 1043.671 371.305 1034.841 380.762 C 1023.052 393.322 1018.346 409.585 1021.596 426.649 C 1025.186 445.764 1039.353 461.176 1058.031 466.33 C 1062.106 467.431 1063.853 467.631 1070.063 467.681 C 1074.623 467.731 1078.359 467.481 1080.009 467.081 C 1091.07 464.329 1099.754 459.275 1106.595 451.719 C 1125.079 431.353 1124.546 399.828 1105.382 380.162 C 1097.135 371.705 1086.995 366.801 1074.915 365.4 C 1072.537 365.15 1070.112 364.95 1069.578 364.95 Z M 1361.494 388.869 C 1356.303 397.075 1353.635 406.233 1353.586 416.241 C 1353.586 422.646 1354.12 426.549 1355.915 432.203 C 1361.252 449.167 1374.157 461.727 1390.992 466.38 C 1394.97 467.481 1396.619 467.631 1403.12 467.681 C 1411.174 467.681 1415.589 466.881 1421.896 464.229 C 1436.596 458.074 1447.948 444.513 1451.684 428.7 C 1452.946 423.296 1453.382 414.689 1452.654 409.435 C 1449.549 387.568 1433.345 370.054 1412.629 366.151 C 1392.301 362.348 1372.75 371.005 1361.494 388.869 Z M 1143.467 515.019 C 1124.837 519.072 1110.379 533.283 1105.334 552.549 C 1104.266 556.702 1104.072 558.303 1104.072 565.059 C 1104.072 571.314 1104.266 573.665 1105.091 577.068 C 1107.517 587.026 1111.349 593.982 1118.53 601.387 C 1125.516 608.593 1132.066 612.496 1141.575 615.148 C 1146.911 616.65 1156.566 616.95 1162.145 615.899 C 1178.204 612.747 1191.157 602.689 1198.143 587.827 C 1205.081 573.265 1205.13 557.753 1198.434 543.241 C 1191.448 528.229 1178.446 517.871 1162.582 514.719 C 1157.633 513.768 1148.658 513.868 1143.467 515.019 Z M 1309.971 514.969 C 1287.508 520.073 1271.692 539.138 1270.334 562.607 C 1269.024 586.225 1284.306 608.193 1306.575 614.748 C 1320.45 618.801 1336.072 616.099 1348.347 607.592 C 1352.422 604.74 1358.729 598.185 1361.349 594.082 C 1367.753 583.874 1370.324 573.615 1369.548 561.306 C 1368.189 539.889 1353.635 521.624 1333.161 515.72 C 1326.951 513.918 1316.084 513.568 1309.971 514.969 Z" fill="#fff" style=""/>
    <g transform="matrix(0.1, 0, 0, -0.1, 993.649414, 846.611877)" fill="#000000" stroke="none">
      <path d="M 1734.441 6051.154 C 1702.421 6040.645 1691.262 6033.64 1670.886 6013.124 C 1646.143 5988.104 1646.143 5988.104 1639.836 5942.568 C 1636.925 5917.047 1630.618 5891.027 1626.737 5884.522 C 1619.945 5873.513 1620.43 5872.012 1635.47 5855.999 C 1650.509 5839.986 1650.995 5838.485 1645.173 5819.97 C 1636.925 5793.95 1642.747 5782.441 1673.312 5766.928 L 1696.599 5754.418 L 1713.094 5771.432 C 1728.134 5786.944 1733.956 5789.446 1777.619 5795.951 C 1825.164 5803.457 1826.135 5803.958 1849.422 5827.476 C 1869.798 5848.493 1874.65 5857.5 1887.264 5899.033 C 1900.363 5942.568 1900.848 5947.071 1893.571 5955.077 C 1889.205 5960.081 1883.383 5964.085 1880.472 5964.085 C 1877.076 5964.085 1862.036 5950.574 1846.026 5933.56 C 1803.818 5889.525 1803.333 5889.525 1767.431 5925.554 C 1750.451 5942.568 1736.867 5959.581 1736.867 5963.584 C 1736.867 5968.088 1752.392 5987.603 1771.798 6007.619 C 1806.243 6043.147 1806.243 6044.148 1797.511 6054.156 C 1786.352 6066.666 1781.986 6066.666 1734.441 6051.154 Z" style="fill: rgb(91, 91, 91);"/>
      <path d="M 1306.051 6027.635 L 1275.972 5996.61 L 1296.348 5965.085 C 1314.784 5935.562 1319.635 5932.059 1360.388 5912.043 C 1397.745 5893.529 1410.844 5883.521 1445.775 5846.992 C 1468.092 5823.473 1488.954 5803.958 1491.379 5803.958 C 1494.29 5803.958 1503.508 5810.963 1512.241 5819.97 L 1528.251 5835.983 L 1485.072 5881.519 C 1448.686 5918.549 1437.527 5934.561 1419.577 5972.591 C 1402.111 6009.12 1393.864 6021.13 1376.883 6033.139 C 1336.13 6061.662 1339.041 6062.162 1306.051 6027.635 Z" style="fill: rgb(91, 91, 91);"/>
      <path d="M 1518.548 5806.46 L 1448.201 5733.902 L 1470.033 5711.885 C 1491.864 5689.367 1491.864 5689.367 1512.241 5695.371 C 1530.677 5700.375 1534.558 5699.875 1546.202 5690.868 C 1553.964 5685.364 1569.004 5661.845 1580.647 5638.827 C 1597.143 5604.8 1610.242 5586.785 1648.569 5547.254 C 1674.282 5520.733 1699.025 5497.214 1703.876 5495.713 C 1734.441 5485.705 1831.957 5586.285 1822.253 5617.81 C 1820.798 5622.814 1797.996 5648.334 1771.798 5675.356 C 1732.985 5715.387 1716.005 5728.398 1683.5 5745.411 C 1661.183 5756.92 1638.381 5772.433 1633.044 5780.439 C 1624.311 5792.448 1623.826 5796.452 1628.678 5815.467 C 1634.499 5836.483 1634.014 5836.483 1614.123 5858 C 1603.45 5869.51 1592.776 5879.017 1591.321 5879.017 C 1589.865 5879.017 1557.36 5846.491 1518.548 5806.46 Z" style="fill: rgb(91, 91, 91);"/>
      <path d="M 1400.656 5649.335 C 1353.596 5600.296 1348.744 5593.791 1348.744 5576.777 C 1348.744 5532.242 1394.834 5488.207 1433.646 5495.713 C 1444.32 5497.715 1465.666 5516.73 1509.815 5562.766 L 1571.43 5626.317 L 1561.241 5647.834 C 1546.687 5678.858 1533.102 5686.865 1507.875 5679.359 C 1488.954 5673.354 1487.498 5673.854 1472.944 5688.366 C 1464.211 5696.873 1456.448 5703.878 1454.993 5703.878 C 1453.537 5703.878 1429.28 5679.359 1400.656 5649.335 Z" style="fill: rgb(91, 91, 91);"/>
      <path d="M 2952.174 5974.093 L 2952.174 5894.029 L 3273.345 5894.029 L 3594.516 5894.029 L 3594.516 5974.093 L 3594.516 6054.156 L 3273.345 6054.156 L 2952.174 6054.156 L 2952.174 5974.093 Z" style="fill: rgb(140, 140, 140);"/>
      <path d="M 2952.174 5783.942 L 2952.174 5703.878 L 3273.345 5703.878 L 3594.516 5703.878 L 3594.516 5783.942 L 3594.516 5864.005 L 3273.345 5864.005 L 2952.174 5864.005 L 2952.174 5783.942 Z" style="fill: rgb(140, 140, 140);"/>
      <path d="M 2953.144 5670.352 C 2952.174 5667.85 2952.174 5661.344 2952.659 5655.34 C 2953.144 5648.835 2953.63 5614.808 2954.115 5578.779 L 2954.6 5513.727 L 3275.286 5513.727 L 3595.487 5513.727 L 3594.516 5593.791 L 3593.546 5673.854 L 3274.316 5673.854 C 3098.69 5673.854 2954.115 5672.353 2953.144 5670.352 Z" style="fill: rgb(140, 140, 140);"/>
      <path d="M 2445.19 5380.622 C 2368.05 5365.109 2278.297 5312.067 2237.544 5257.024 C 2199.217 5205.483 2173.504 5112.909 2173.504 5023.839 C 2173.019 4993.815 2171.078 4977.802 2166.227 4971.297 C 2160.89 4963.791 2158.949 4947.778 2158.949 4911.249 C 2158.949 4817.675 2179.326 4721.599 2204.554 4693.577 C 2210.861 4686.571 2223.96 4664.053 2233.663 4643.537 C 2271.505 4564.474 2331.664 4494.419 2383.575 4467.898 C 2435.972 4441.877 2540.765 4441.877 2594.131 4468.398 C 2618.874 4480.908 2663.993 4521.941 2685.34 4552.465 C 2696.499 4567.977 2703.291 4572.981 2714.449 4572.981 C 2732.4 4573.481 2764.905 4588.493 2776.549 4602.004 C 2796.925 4625.523 2841.074 4749.121 2852.233 4814.673 C 2856.599 4838.692 2856.114 4847.199 2849.322 4864.212 C 2842.53 4882.226 2842.045 4889.732 2847.866 4932.766 C 2857.084 4998.318 2856.114 5073.378 2845.926 5113.41 C 2815.361 5236.507 2717.36 5336.587 2593.161 5371.114 C 2564.537 5379.121 2468.962 5385.125 2445.19 5380.622 Z M 2365.625 4997.318 C 2435.972 4981.305 2534.458 4981.805 2611.112 4997.818 C 2664.479 5009.327 2668.36 5009.327 2680.004 5001.821 C 2695.528 4990.813 2699.41 4968.795 2695.528 4915.253 C 2692.132 4875.221 2692.617 4873.219 2701.835 4873.219 C 2716.39 4873.219 2730.459 4889.732 2734.341 4910.249 C 2737.737 4929.264 2741.618 4932.266 2749.865 4921.758 C 2753.747 4916.754 2752.291 4906.746 2742.588 4883.227 C 2729.489 4848.7 2715.905 4780.145 2717.845 4755.626 C 2718.331 4747.119 2716.875 4737.111 2714.449 4733.108 C 2710.568 4727.103 2690.192 4681.067 2674.667 4644.538 C 2672.726 4639.534 2680.974 4638.033 2705.717 4638.033 L 2739.677 4638.033 L 2748.41 4658.049 C 2756.172 4676.063 2779.945 4708.088 2779.945 4700.582 C 2779.945 4699.081 2772.183 4681.567 2762.965 4661.051 C 2751.806 4636.531 2742.103 4623.021 2733.855 4619.018 C 2725.608 4615.014 2691.162 4613.013 2636.825 4613.013 C 2558.23 4613.013 2550.953 4614.014 2542.22 4623.021 C 2533.973 4631.528 2526.21 4633.029 2486.913 4633.029 C 2433.061 4633.029 2429.665 4630.527 2431.605 4591.996 L 2433.061 4565.475 L 2485.942 4563.974 C 2529.606 4562.973 2539.794 4563.974 2543.19 4570.479 C 2549.012 4580.987 2624.696 4581.488 2624.696 4570.979 C 2624.696 4560.972 2583.458 4523.442 2560.171 4512.433 C 2531.547 4499.423 2441.794 4498.922 2413.655 4512.433 C 2372.902 4531.448 2321.476 4599.502 2282.663 4684.57 C 2271.02 4710.59 2257.921 4733.108 2254.039 4734.609 C 2236.574 4741.615 2209.891 4894.736 2222.019 4918.255 C 2229.782 4933.767 2235.604 4930.265 2241.425 4907.246 C 2247.247 4884.228 2256.95 4873.219 2271.505 4873.219 C 2279.267 4873.219 2280.238 4878.724 2280.238 4930.765 C 2280.238 4983.307 2281.208 4988.811 2290.911 4998.318 C 2304.01 5010.828 2306.436 5010.828 2365.625 4997.318 Z" style="fill: rgb(140, 140, 140);"/>
      <path d="M 2219.594 4497.922 C 2164.771 4481.408 1933.353 4408.851 1920.739 4403.847 C 1895.512 4393.339 1873.68 4368.319 1859.125 4331.289 C 1835.353 4273.243 1782.471 4075.586 1758.213 3958.994 C 1756.758 3950.988 1750.451 3946.484 1735.411 3941.98 C 1705.332 3933.474 1683.015 3920.463 1663.609 3898.946 C 1632.074 3865.42 1628.192 3852.409 1626.252 3779.852 C 1624.796 3718.303 1625.281 3713.799 1635.955 3697.787 C 1658.757 3662.759 1663.123 3662.259 1832.927 3662.259 L 1984.78 3662.259 L 1981.869 3691.282 C 1975.562 3754.332 1945.482 4211.194 1945.482 4242.719 C 1945.482 4280.249 1953.73 4296.762 1979.928 4310.273 C 1993.998 4318.279 2015.344 4318.279 2977.402 4317.779 C 2993.412 4317.779 3021.551 4289.756 3027.373 4268.74 C 3030.769 4254.729 3026.888 4176.667 3011.363 3956.492 L 2990.986 3662.259 L 3084.621 3662.259 C 3193.78 3662.259 3205.424 3665.261 3221.434 3697.286 C 3252.484 3759.836 3244.236 3893.442 3196.691 4091.599 C 3174.859 4183.172 3139.928 4295.261 3119.067 4340.797 C 3104.997 4371.321 3088.017 4388.835 3058.908 4402.346 C 3051.145 4405.848 2973.521 4431.369 2887.164 4457.89 L 2729.489 4506.929 L 2690.677 4469.399 C 2624.211 4404.848 2555.319 4381.829 2455.863 4389.836 C 2379.209 4396.341 2331.179 4419.86 2275.871 4477.405 L 2248.703 4506.428 L 2219.594 4497.922 Z" style="fill: rgb(140, 140, 140);"/>
      <path d="M 1999.334 4264.236 C 1990.601 4258.231 1989.631 4276.246 2015.344 3897.445 C 2022.622 3796.865 2029.414 3692.282 2030.869 3664.761 C 2033.295 3627.731 2035.721 3613.22 2041.543 3608.716 C 2052.701 3599.209 2919.669 3599.209 2932.283 3608.716 C 2938.59 3613.72 2941.016 3624.729 2942.956 3659.757 C 2944.412 3684.776 2953.63 3827.89 2964.303 3979.01 C 2974.976 4129.629 2982.254 4256.23 2980.798 4260.233 C 2978.858 4264.236 2975.462 4267.739 2972.065 4267.739 C 2969.155 4267.739 2750.836 4268.239 2486.913 4269.24 C 2131.296 4269.741 2005.156 4268.74 1999.334 4264.236 Z M 2867.272 3702.29 C 2867.272 3692.282 2863.876 3692.282 2486.428 3692.282 C 2108.979 3692.282 2105.583 3692.282 2105.583 3702.29 C 2105.583 3712.298 2108.979 3712.298 2486.428 3712.298 C 2863.876 3712.298 2867.272 3712.298 2867.272 3702.29 Z" style="fill: rgb(91, 91, 91);"/>
      <path d="M 2454.893 3487.12 L 2454.893 3422.068 L 2486.428 3422.068 L 2517.962 3422.068 L 2517.962 3487.12 L 2517.962 3552.171 L 2486.428 3552.171 L 2454.893 3552.171 L 2454.893 3487.12 Z" style="fill: rgb(91, 91, 91);"/>
      <path d="M 2418.506 3321.989 L 2418.506 3251.933 L 2433.061 3251.933 C 2441.308 3251.933 2472.358 3251.433 2502.438 3250.432 L 2556.775 3249.431 L 2556.775 3320.487 L 2556.775 3392.044 L 2487.883 3392.044 L 2418.506 3392.044 L 2418.506 3321.989 Z" style="fill: rgb(91, 91, 91);"/>
      <path d="M 2110.434 3319.487 L 2110.434 3286.961 L 2251.128 3286.961 L 2391.823 3286.961 L 2391.823 3319.487 L 2391.823 3352.012 L 2251.128 3352.012 L 2110.434 3352.012 L 2110.434 3319.487 Z" style="fill: rgb(91, 91, 91);"/>
      <path d="M 2583.458 3320.487 L 2583.458 3289.463 L 2723.182 3287.962 L 2862.421 3286.961 L 2862.421 3319.487 L 2862.421 3352.012 L 2723.182 3352.012 L 2583.458 3352.012 L 2583.458 3320.487 Z" style="fill: rgb(91, 91, 91);"/>
      <path d="M 486.143 4561.972 C 477.895 4553.466 477.895 4067.08 486.143 4058.573 C 490.509 4054.069 528.836 4052.568 627.807 4052.568 L 764.135 4052.068 L 823.324 3997.525 C 879.602 3945.483 896.582 3934.475 898.038 3948.986 C 898.523 3951.988 899.008 3976.508 899.493 4002.529 L 899.978 4050.066 L 962.078 4052.568 C 1010.108 4054.57 1025.148 4056.571 1028.544 4062.576 C 1035.821 4074.586 1034.851 4554.466 1027.573 4561.972 C 1019.326 4570.479 494.39 4570.479 486.143 4561.972 Z M 824.779 4489.415 C 838.849 4477.405 841.76 4476.905 861.651 4481.408 C 881.057 4485.912 883.968 4485.412 889.79 4476.905 C 894.641 4470.4 895.127 4461.893 892.701 4449.883 C 889.305 4434.371 890.76 4429.868 902.889 4415.856 C 922.295 4392.838 920.84 4384.331 896.097 4373.323 C 878.631 4365.316 874.265 4360.813 869.414 4343.799 C 861.166 4316.277 848.067 4312.274 829.146 4330.789 C 815.562 4344.3 813.621 4344.3 794.215 4339.296 C 766.076 4331.289 756.858 4339.796 761.71 4368.319 C 765.106 4386.333 763.65 4390.837 751.521 4405.348 C 732.115 4427.866 733.571 4436.373 758.799 4447.882 C 777.235 4455.888 781.116 4459.891 784.027 4475.404 C 786.452 4490.916 796.155 4502.425 806.344 4502.925 C 807.799 4502.925 816.532 4496.921 824.779 4489.415 Z M 720.472 4384.832 C 736.482 4378.327 736.482 4378.327 731.63 4354.808 C 726.779 4332.29 727.264 4331.79 743.759 4315.777 C 755.403 4304.768 763.65 4300.765 769.957 4302.767 C 802.462 4315.277 804.403 4314.276 817.987 4287.254 C 831.572 4259.232 832.057 4261.734 804.403 4244.22 C 793.245 4236.714 791.304 4232.711 791.789 4211.694 C 792.274 4188.676 793.73 4187.175 813.136 4175.165 L 833.997 4162.656 L 826.235 4138.637 C 821.869 4125.626 817.502 4113.617 815.562 4111.615 C 814.106 4109.613 802.948 4110.114 791.304 4113.116 C 776.749 4116.619 768.017 4116.119 764.621 4112.616 C 761.71 4109.613 718.531 4107.612 646.728 4107.612 L 533.688 4107.612 L 533.688 4207.191 C 533.688 4291.758 534.658 4307.771 541.45 4313.275 C 548.728 4319.78 548.728 4326.285 540.965 4358.811 C 538.539 4369.32 540.965 4372.322 562.312 4382.83 C 575.896 4389.335 587.54 4393.839 588.51 4392.338 C 614.708 4353.307 615.194 4353.307 639.451 4356.309 C 652.065 4357.81 662.738 4360.312 663.709 4362.314 C 664.194 4363.815 669.045 4372.822 674.382 4381.829 C 685.056 4399.343 686.511 4399.844 720.472 4384.832 Z" style="fill: rgb(140, 140, 140);"/>
      <path d="M 599.669 4250.725 C 578.322 4228.708 572.985 4201.186 585.114 4175.165 C 605.976 4130.13 660.798 4122.624 693.303 4160.654 C 705.432 4174.665 708.343 4182.171 708.343 4201.687 C 708.343 4244.22 685.056 4267.239 641.877 4267.739 C 619.56 4267.739 614.708 4265.737 599.669 4250.725 Z" style="fill: rgb(140, 140, 140);"/>
      <path d="M 4263.542 4608.009 C 4211.145 4598.501 4162.145 4555.968 4142.739 4503.426 C 4129.155 4465.396 4131.095 4406.349 4148.076 4370.32 C 4164.571 4335.293 4200.472 4300.765 4232.977 4288.255 C 4264.997 4275.745 4319.82 4274.244 4349.414 4285.253 C 4371.246 4293.259 4369.79 4294.26 4415.88 4246.722 C 4435.771 4225.706 4446.93 4217.699 4456.633 4217.699 C 4480.89 4217.699 4516.792 4255.729 4516.792 4281.25 C 4516.792 4286.254 4500.297 4307.27 4479.92 4328.287 L 4443.048 4366.818 L 4451.296 4400.845 C 4480.405 4520.439 4381.919 4629.526 4263.542 4608.009 Z M 4322.731 4542.957 C 4360.573 4531.949 4395.504 4485.412 4395.504 4445.88 C 4395.504 4365.316 4310.602 4313.775 4244.136 4354.308 C 4175.244 4395.841 4178.155 4495.92 4249.473 4533.95 C 4276.641 4548.962 4295.077 4550.964 4322.731 4542.957 Z" style="fill: rgb(91, 91, 91);"/>
      <path d="M 4247.532 4455.388 L 4223.274 4407.35 L 4235.403 4397.842 L 4247.532 4388.335 L 4260.631 4411.853 L 4273.73 4434.872 L 4284.889 4407.85 L 4296.532 4380.328 L 4313.513 4410.352 C 4329.523 4438.875 4331.463 4440.376 4350.869 4441.877 C 4369.79 4443.378 4371.246 4444.379 4371.246 4458.39 C 4371.246 4472.902 4371.246 4472.902 4342.622 4472.902 C 4319.335 4472.902 4312.057 4470.9 4306.721 4462.894 C 4300.414 4453.386 4299.443 4454.387 4288.77 4477.906 C 4282.463 4491.917 4276.156 4502.925 4274.7 4502.925 C 4273.245 4502.925 4261.116 4481.408 4247.532 4455.388 Z" style="fill: rgb(91, 91, 91);"/>
      <path d="M 3829.33 4544.458 C 3826.905 4543.458 3825.934 4464.895 3826.905 4369.32 L 3828.36 4195.682 L 3786.637 4155.15 L 3744.914 4114.617 L 3746.369 4090.098 L 3747.825 4065.078 L 4086.946 4063.577 C 4355.236 4062.576 4427.038 4063.577 4430.435 4068.581 C 4432.375 4072.084 4434.316 4084.093 4434.316 4095.102 C 4434.316 4113.617 4431.405 4117.62 4393.078 4154.149 L 4351.84 4193.18 L 4351.84 4226.206 C 4351.84 4253.728 4350.869 4258.231 4344.077 4255.729 C 4339.711 4254.228 4329.038 4252.727 4319.82 4252.727 C 4305.75 4252.727 4303.325 4251.226 4303.325 4240.217 L 4303.325 4228.208 L 4089.857 4228.208 L 3876.39 4228.208 L 3876.39 4360.312 L 3876.39 4492.918 L 3994.767 4492.918 L 4112.659 4492.918 L 4121.877 4516.436 C 4127.214 4529.947 4131.58 4541.456 4132.551 4542.957 C 4133.521 4545.459 3836.608 4546.46 3829.33 4544.458 Z M 4330.008 4167.66 L 4344.077 4152.648 L 4089.857 4152.648 L 3835.637 4152.648 L 3849.707 4167.66 L 3863.776 4182.671 L 4089.857 4182.671 L 4315.938 4182.671 L 4330.008 4167.66 Z" style="fill: rgb(91, 91, 91);"/>
      <path d="M 1334.19 2868.629 L 1334.19 2690.988 L 1292.952 2650.956 L 1252.199 2610.925 L 1254.625 2587.406 C 1255.595 2574.896 1258.021 2563.387 1259.476 2561.886 C 1264.813 2556.381 1931.898 2556.381 1941.116 2561.886 C 1947.908 2565.388 1950.334 2572.394 1950.334 2588.407 C 1950.334 2608.423 1948.393 2611.925 1909.096 2650.956 L 1867.858 2692.489 L 1867.858 2869.63 L 1867.858 3046.77 L 1601.024 3046.77 L 1334.19 3046.77 L 1334.19 2868.629 Z M 1815.947 2991.727 C 1817.887 2991.727 1818.857 2933.18 1818.372 2861.623 L 1816.917 2731.02 L 1602.479 2730.019 L 1388.042 2729.018 L 1385.131 2741.028 C 1382.22 2752.537 1382.22 2986.723 1385.131 2991.727 C 1386.101 2993.728 1786.837 2993.728 1815.947 2991.727 Z M 1846.026 2666.469 L 1860.095 2651.457 L 1603.935 2651.457 C 1334.675 2651.457 1343.893 2650.456 1362.329 2672.974 C 1369.121 2680.98 1386.586 2681.481 1601.024 2681.481 L 1831.957 2681.481 L 1846.026 2666.469 Z" style="fill: rgb(91, 91, 91);"/>
      <path d="M 1551.053 2893.649 C 1549.113 2891.647 1547.657 2862.124 1547.657 2828.597 C 1547.657 2755.539 1547.172 2756.54 1601.994 2756.54 C 1654.876 2756.54 1654.876 2756.54 1653.42 2831.6 L 1651.965 2894.149 L 1602.964 2895.65 C 1576.281 2896.151 1552.994 2895.65 1551.053 2893.649 Z" style="fill: rgb(91, 91, 91);"/>
      <path d="M 3245.692 3108.82 C 3168.067 3087.803 3095.294 3028.756 3059.878 2958.7 C 3050.175 2938.685 3041.927 2921.671 3041.927 2920.17 C 3041.927 2918.669 3057.937 2918.669 3077.344 2920.17 C 3110.334 2922.672 3120.522 2927.676 3125.374 2942.688 C 3127.799 2950.194 3168.067 2937.684 3168.067 2929.677 C 3168.067 2920.17 3191.354 2916.167 3194.265 2925.174 C 3195.721 2929.177 3201.543 2931.179 3207.85 2929.677 C 3214.157 2928.176 3226.771 2926.175 3236.474 2924.173 C 3253.454 2921.671 3253.939 2920.67 3256.85 2895.65 C 3258.791 2881.139 3263.157 2866.127 3267.523 2862.124 C 3273.83 2855.118 3274.801 2856.119 3274.801 2869.129 C 3274.801 2877.636 3276.256 2892.648 3277.712 2902.656 L 3280.623 2921.171 L 3317.979 2920.17 L 3354.851 2919.169 L 3358.247 2896.651 C 3359.702 2884.141 3361.643 2864.626 3361.643 2853.117 L 3362.128 2831.6 L 3342.722 2831.6 C 3324.286 2831.6 3323.316 2830.599 3323.316 2816.588 C 3323.316 2802.076 3324.286 2801.576 3343.207 2801.576 L 3363.584 2801.576 L 3360.188 2768.049 C 3355.821 2716.508 3353.395 2711.504 3337.385 2711.504 C 3325.742 2711.504 3323.316 2709.503 3323.316 2698.994 C 3323.316 2688.986 3325.742 2686.485 3335.445 2686.485 C 3342.237 2686.485 3347.574 2685.984 3347.574 2684.983 C 3347.574 2679.479 3318.464 2590.408 3313.613 2580.4 C 3310.217 2574.396 3297.603 2558.383 3285.474 2545.373 C 3257.82 2515.849 3260.731 2514.348 3332.049 2517.35 C 3395.604 2520.353 3444.604 2538.367 3493.605 2576.397 C 3668.26 2712.005 3639.15 2995.73 3440.723 3089.304 C 3383.475 3116.326 3303.425 3124.332 3245.692 3108.82 Z M 3522.714 2914.666 C 3530.476 2897.152 3538.239 2871.131 3540.179 2857.12 L 3543.09 2831.099 L 3514.466 2832.6 L 3485.842 2834.102 L 3482.446 2864.125 C 3480.02 2880.639 3475.654 2903.657 3471.773 2915.166 L 3464.495 2936.683 L 3477.595 2939.685 C 3484.872 2941.187 3493.119 2943.188 3495.545 2944.189 C 3506.219 2948.192 3508.644 2945.19 3522.714 2914.666 Z M 3446.545 2906.159 C 3450.911 2892.148 3455.763 2869.63 3457.218 2856.119 L 3460.614 2831.6 L 3424.228 2831.6 L 3388.326 2831.6 L 3387.356 2853.117 C 3386.871 2864.626 3384.93 2884.642 3383.475 2897.652 L 3380.564 2921.171 L 3399.485 2924.173 C 3409.673 2926.175 3420.347 2928.176 3422.772 2929.177 C 3435.871 2933.681 3439.753 2929.677 3446.545 2906.159 Z M 3458.674 2785.563 C 3458.674 2776.556 3454.792 2754.538 3450.426 2736.524 L 3442.178 2703.998 L 3422.772 2705.5 C 3381.534 2708.002 3380.079 2709.503 3383.475 2735.023 C 3384.93 2747.533 3386.386 2767.549 3386.386 2779.558 L 3386.386 2801.576 L 3422.772 2801.576 L 3459.159 2801.576 L 3458.674 2785.563 Z M 3540.179 2776.056 C 3536.783 2749.535 3511.555 2686.485 3503.793 2686.485 C 3495.545 2686.485 3468.862 2697.493 3468.862 2700.496 C 3468.862 2702.497 3472.258 2716.508 3476.139 2731.52 C 3480.02 2746.532 3483.416 2767.048 3483.416 2777.056 C 3483.416 2787.064 3484.872 2796.572 3486.812 2798.073 C 3488.268 2800.075 3501.852 2801.576 3516.407 2801.576 L 3543.09 2801.576 L 3540.179 2776.056 Z" style="fill: rgb(140, 140, 140);"/>
      <path d="M 3038.531 2883.141 C 3026.888 2881.639 3022.521 2878.137 3020.096 2868.129 C 3014.759 2846.111 2999.719 2828.097 2978.858 2819.59 L 2959.451 2811.584 L 2959.451 2709.002 C 2959.451 2627.938 2960.907 2602.918 2966.729 2591.409 C 2979.343 2566.89 3042.898 2516.35 3099.661 2486.826 C 3120.522 2475.817 3121.492 2475.817 3142.839 2483.824 C 3172.919 2495.833 3245.692 2546.874 3266.553 2570.893 C 3276.256 2581.902 3285.474 2596.413 3286.93 2602.418 C 3288.385 2608.923 3288.87 2658.963 3288.385 2714.006 C 3286.93 2809.582 3286.444 2814.086 3277.227 2816.087 C 3259.761 2819.09 3239.87 2837.604 3230.652 2859.121 C 3222.404 2878.637 3219.978 2880.639 3199.117 2883.641 C 3175.344 2886.643 3065.215 2886.643 3038.531 2883.141 Z M 3192.81 2845.611 C 3196.691 2842.108 3205.909 2830.599 3213.186 2820.591 C 3220.464 2810.583 3233.078 2798.073 3240.84 2793.069 L 3255.395 2784.562 L 3255.395 2733.021 L 3255.395 2681.481 L 3189.899 2681.481 L 3124.403 2681.481 L 3124.403 2598.915 C 3124.403 2553.379 3122.463 2516.35 3120.522 2516.35 C 3114.215 2516.35 3060.848 2550.877 3033.195 2572.394 C 2996.808 2601.417 2993.412 2607.922 2993.412 2647.454 L 2993.412 2681.481 L 3058.908 2681.481 L 3124.403 2681.481 L 3124.403 2766.548 L 3124.403 2851.616 L 3154.968 2851.616 C 3172.434 2851.616 3188.929 2849.114 3192.81 2845.611 Z" style="fill: rgb(140, 140, 140);"/>
      <path d="M 807.463 4428.132 C 797.723 4418.84 795.287 4407.225 800.822 4396.244 C 810.341 4377.238 835.356 4374.07 850.187 4390.12 C 855.722 4396.033 857.05 4399.2 857.05 4407.437 C 857.05 4425.386 846.424 4435.101 826.722 4435.312 C 816.539 4435.312 814.325 4434.467 807.463 4428.132 Z" style="fill: rgb(140, 140, 140);"/>
      <path d="M 1560.368 2897.246 C 1558.819 2897.894 1557.657 2907.458 1557.657 2918.32 C 1557.657 2941.987 1557.27 2941.663 1601.032 2941.663 C 1643.245 2941.663 1643.245 2941.663 1642.083 2917.346 L 1640.921 2897.083 L 1601.806 2896.597 C 1580.506 2896.435 1561.917 2896.597 1560.368 2897.246 Z" style="fill: rgb(91, 91, 91);"/>
      <path d="M 1521.263 2855.386 C 1520.839 2855.782 1520.521 2861.62 1520.521 2868.25 C 1520.521 2882.697 1520.415 2882.5 1532.399 2882.5 C 1543.958 2882.5 1543.958 2882.5 1543.64 2867.656 L 1543.322 2855.288 L 1532.611 2854.99 C 1526.778 2854.892 1521.688 2854.99 1521.263 2855.386 Z" style="fill: rgb(91, 91, 91);" transform="matrix(0, 1, -1, 0, 4400.850037, 1336.605042)"/>
      <path d="M 1521.263 2825.386 C 1520.839 2825.782 1520.521 2831.62 1520.521 2838.25 C 1520.521 2852.697 1520.415 2852.5 1532.399 2852.5 C 1543.958 2852.5 1543.958 2852.5 1543.64 2837.656 L 1543.322 2825.288 L 1532.611 2824.99 C 1526.778 2824.892 1521.688 2824.99 1521.263 2825.386 Z" style="fill: rgb(91, 91, 91);" transform="matrix(0, 1, -1, 0, 4370.850037, 1306.605042)"/>
      <path d="M 1521.263 2795.386 C 1520.839 2795.782 1520.521 2801.62 1520.521 2808.25 C 1520.521 2822.697 1520.415 2822.5 1532.399 2822.5 C 1543.958 2822.5 1543.958 2822.5 1543.64 2807.656 L 1543.322 2795.288 L 1532.611 2794.99 C 1526.778 2794.892 1521.688 2794.99 1521.263 2795.386 Z" style="fill: rgb(91, 91, 91);" transform="matrix(0, 1, -1, 0, 4340.850037, 1276.605042)"/>
      <path d="M 1661.263 2795.386 C 1660.839 2795.782 1660.521 2801.62 1660.521 2808.25 C 1660.521 2822.697 1660.415 2822.5 1672.399 2822.5 C 1683.958 2822.5 1683.958 2822.5 1683.64 2807.656 L 1683.322 2795.288 L 1672.611 2794.99 C 1666.778 2794.892 1661.688 2794.99 1661.263 2795.386 Z" style="fill: rgb(91, 91, 91);" transform="matrix(0, -1, 1, 0, -1136.605042, 4480.850037)"/>
      <path d="M 1661.263 2825.386 C 1660.839 2825.782 1660.521 2831.62 1660.521 2838.25 C 1660.521 2852.697 1660.415 2852.5 1672.399 2852.5 C 1683.958 2852.5 1683.958 2852.5 1683.64 2837.656 L 1683.322 2825.288 L 1672.611 2824.99 C 1666.778 2824.892 1661.688 2824.99 1661.263 2825.386 Z" style="fill: rgb(91, 91, 91);" transform="matrix(0, -1, 1, 0, -1166.605042, 4510.850037)"/>
      <path d="M 1661.263 2855.386 C 1660.839 2855.782 1660.521 2861.62 1660.521 2868.25 C 1660.521 2882.697 1660.415 2882.5 1672.399 2882.5 C 1683.958 2882.5 1683.958 2882.5 1683.64 2867.656 L 1683.322 2855.288 L 1672.611 2854.99 C 1666.778 2854.892 1661.688 2854.99 1661.263 2855.386 Z" style="fill: rgb(91, 91, 91);" transform="matrix(0, -1, 1, 0, -1196.605042, 4540.850037)"/>
      <path d="M 3498.179 6019.679 L 3498.179 6004.679 L 3533.179 6004.679 L 3568.179 6004.679 L 3568.179 6019.679 L 3568.179 6034.679 L 3533.179 6034.679 L 3498.179 6034.679 L 3498.179 6019.679 Z" style="fill: rgb(255, 255, 255);"/>
      <path d="M 3498.179 5969.679 L 3498.179 5954.679 L 3533.179 5954.679 L 3568.179 5954.679 L 3568.179 5969.679 L 3568.179 5984.679 L 3533.179 5984.679 L 3498.179 5984.679 L 3498.179 5969.679 Z" style="fill: rgb(255, 255, 255);"/>
    </g>
    <g transform="matrix(3.594663, 0, 0, 4.580906, 809.695435, 304.780151)" style="">
      <path style="fill: rgb(216, 216, 216); stroke: rgb(0, 0, 0);"/>
    </g>
  </g>
</svg>