<?xml version="1.0" encoding="utf-8"?>
<svg version="1.1" x="0px" y="0px" viewBox="50.499 -0.809 50 47.1" style="enable-background:new 0 0 50 47.1;" xmlns="http://www.w3.org/2000/svg" xmlns:bx="https://boxy-svg.com">
  <defs>
    <view id="view-1" viewBox="3.615 22.876 0.108 0.161">
      <title>View 1</title>
    </view>
  </defs>
  <g transform="matrix(1.054997, 0, 0, 1.197846, 57.408306, 7.010036)" style="">
    <path style="fill: rgb(216, 216, 216); stroke: rgb(0, 0, 0);"/>
    <circle style="fill: rgb(216, 216, 216);" transform="matrix(0.051139, 0, 0, 0.045041, -8.270412, 3.631154)" cx="133" cy="178" r="38.2099463490856" bx:origin="0.395 1.455"/>
    <circle style="fill: rgb(216, 216, 216);" transform="matrix(0.051139, 0, 0, 0.045041, -7.196482, -8.710015)" cx="305" cy="317" r="43.174066289845804"/>
    <circle style="fill: rgb(216, 216, 216);" transform="matrix(0.051139, 0, 0, 0.045041, -7.145342, -8.529852)" cx="499" cy="427" r="32.55764119219941"/>
    <circle style="fill: rgb(216, 216, 216);" transform="matrix(0.051139, 0, 0, 0.045041, -7.196482, -8.710015)" cx="754" cy="287" r="37.73592452822641"/>
    <rect x="-1.412" y="10.791" width="1.074" height="0.18" style="fill: rgb(216, 216, 216);"/>
    <line style="fill: rgb(77, 77, 77); stroke: rgb(77, 77, 77);" x1="-1.463" y1="11.646" x2="8.407" y2="5.566"/>
    <line style="fill: rgb(77, 77, 77); stroke: rgb(77, 77, 77);" x1="8.407" y1="5.566" x2="18.328" y2="10.61"/>
    <line style="fill: rgb(77, 77, 77); stroke: rgb(77, 77, 77);" x1="18.379" y1="10.565" x2="31.317" y2="4.17"/>
  </g>
  <path style="fill: rgb(216, 216, 216); stroke: rgb(0, 0, 0);" d="M 2.428 -0.054"/>
  <rect x="55.043" y="21.417" width="1.619" height="5.018" style="fill: rgb(216, 216, 216);"/>
  <rect x="55.097" y="27.352" width="1.619" height="4.37" style="fill: rgb(216, 216, 216);"/>
  <rect x="55.259" y="33.341" width="1.511" height="3.885" style="fill: rgb(216, 216, 216);"/>
  <rect x="65.402" y="15.105" width="1.888" height="4.586" style="fill: rgb(216, 216, 216);"/>
  <rect x="65.456" y="20.555" width="1.888" height="5.125" style="fill: rgb(216, 216, 216);"/>
  <rect x="65.402" y="26.813" width="2.104" height="5.071" style="fill: rgb(216, 216, 216);"/>
  <rect x="65.456" y="32.693" width="1.996" height="4.802" style="fill: rgb(216, 216, 216);"/>
  <rect x="75.922" y="20.717" width="1.673" height="4.748" style="fill: rgb(216, 216, 216);"/>
  <rect x="75.868" y="26.704" width="1.78" height="4.424" style="fill: rgb(216, 216, 216);"/>
  <rect x="75.976" y="32.748" width="1.727" height="4.154" style="fill: rgb(216, 216, 216);"/>
  <rect x="89.626" y="13.324" width="2.05" height="5.665" style="fill: rgb(216, 216, 216);"/>
  <rect x="89.734" y="19.691" width="2.05" height="4.154" style="fill: rgb(216, 216, 216);"/>
  <rect x="89.788" y="24.708" width="2.05" height="4.802" style="fill: rgb(216, 216, 216);"/>
  <rect x="89.896" y="30.428" width="1.943" height="5.557" style="fill: rgb(216, 216, 216);"/>
  <rect x="55.206" y="35.877" width="36.58" height="1.888" style="fill: rgb(216, 216, 216);"/>
  <path fill="#fff" class="accent" d="M 73.978 19.53 C 73.8 21.603 79.404 23.46 79.633 18.84 C 79.134 14.552 73.476 16.049 73.978 19.53 Z" style=""/>
  <path fill="#fff" class="accent" d="M 52.771 20.898 C 52.602 22.76 57.751 25.149 58.374 20.115 C 58.006 15.483 52.289 17.137 52.771 20.898 Z" style=""/>
  <path fill="#fff" class="accent" d="M 63.447 14.157 C 63.064 16.235 68.333 18.248 69.055 13.448 C 67.981 8.861 62.89 10.966 63.447 14.157 Z" style=""/>
  <path fill="#fff" class="accent" d="M 87.651 12.453 C 87.268 14.531 92.537 16.544 93.259 11.744 C 92.185 7.157 87.094 9.262 87.651 12.453 Z" style=""/>
  <path d="M 124 447 m -2.824 0 a 2.824 2.775 0 1 0 5.648 0 a 2.824 2.775 0 1 0 -5.648 0 Z M 124 447 m -1.695 0 a 1.695 1.665 0 0 1 3.39 0 a 1.695 1.665 0 0 1 -3.39 0 Z" style="fill: rgb(216, 216, 216);" transform="matrix(-0.292714, 0.9562, -0.9562, -0.292714, 519.35273, 32.61277)" bx:shape="ring 124 447 1.695 1.665 2.824 2.775 1@8f1bff42"/>
  <path d="M 319 321 m -3.006 0 a 3.006 3.006 0 1 0 6.012 0 a 3.006 3.006 0 1 0 -6.012 0 Z M 319 321 m -1.804 0 a 1.804 1.804 0 0 1 3.608 0 a 1.804 1.804 0 0 1 -3.608 0 Z" style="fill: rgb(216, 216, 216);" transform="matrix(-0.358979, 0.933346, -0.933346, -0.358979, 480.030659, -168.802681)" bx:shape="ring 319 321 1.804 1.804 3.006 3.006 1@8d40a7e8"/>
  <path d="M 520 420 m -2.92 0 a 2.92 2.92 0 1 0 5.84 0 a 2.92 2.92 0 1 0 -5.84 0 Z M 520 420 m -1.752 0 a 1.752 1.752 0 0 1 3.504 0 a 1.752 1.752 0 0 1 -3.504 0 Z" style="fill: rgb(216, 216, 216);" transform="matrix(-0.461934, 0.886914, -0.886914, -0.461934, 689.466957, -248.139516)" bx:shape="ring 520 420 1.752 1.752 2.92 2.92 1@c5bcfb56"/>
  <path d="M 774 293 m -3.02 0 a 3.02 3.02 0 1 0 6.04 0 a 3.02 3.02 0 1 0 -6.04 0 Z M 774 293 m -1.812 0 a 1.812 1.812 0 0 1 3.624 0 a 1.812 1.812 0 0 1 -3.624 0 Z" style="fill: rgb(216, 216, 216);" transform="matrix(-0.321582, 0.946882, -0.946882, -0.321582, 616.801624, -626.470894)" bx:shape="ring 774 293 1.812 1.812 3.02 3.02 1@462bfb88"/>
  <g id="g2527" transform="matrix(0.204441, 0.062423, -0.061977, 0.202979, -156.009242, -41.330173)" style="">
    <g id="g2570"/>
  </g>
</svg>