<?xml version="1.0" encoding="utf-8"?>
<!DOCTYPE svg PUBLIC "-//W3C//DTD SVG 1.1//EN" "http://www.w3.org/Graphics/SVG/1.1/DTD/svg11.dtd" [
	<!ENTITY ns_extend "http://ns.adobe.com/Extensibility/1.0/">
	<!ENTITY ns_ai "http://ns.adobe.com/AdobeIllustrator/10.0/">
	<!ENTITY ns_graphs "http://ns.adobe.com/Graphs/1.0/">
	<!ENTITY ns_vars "http://ns.adobe.com/Variables/1.0/">
	<!ENTITY ns_imrep "http://ns.adobe.com/ImageReplacement/1.0/">
	<!ENTITY ns_sfw "http://ns.adobe.com/SaveForWeb/1.0/">
	<!ENTITY ns_custom "http://ns.adobe.com/GenericCustomNamespace/1.0/">
	<!ENTITY ns_adobe_xpath "http://ns.adobe.com/XPath/1.0/">
]>
<svg version="1.1" id="Слой_1" xmlns:x="&ns_extend;" xmlns:i="&ns_ai;" xmlns:graph="&ns_graphs;"
	 xmlns="http://www.w3.org/2000/svg" xmlns:xlink="http://www.w3.org/1999/xlink" x="0px" y="0px" viewBox="0 0 43.6 38.8"
	 style="enable-background:new 0 0 43.6 38.8;" xml:space="preserve">
<switch>
	<g i:extraneous="self">
		<path fill="#4D4D4D" d="M33.3,20.1c0.3-0.6,0.9-1,1.6-1.1c1.2,0,2.3,0,3.5,0c0.7,0,1.4,0,2.1,0c0.7,0,1.4-0.1,2.1,0.2
			c0.6,0.2,1,0.9,1,1.5c0,5.4,0,10.8,0,16.2c0,0.6-0.4,1.2-0.9,1.4c-0.4,0.2-0.9,0.2-1.4,0.2c-2,0-3.9,0-5.9,0c-0.4,0-0.8,0-1.2-0.1
			c-0.3-0.1-0.6-0.3-0.9-0.6c-0.1-0.3-0.3-0.6-0.3-0.9c0-0.8,0-1.7,0-2.5c0-1.4,0-2.9,0-4.3c0-2.7,0-5.3,0-8c0-0.6,0-1.2,0-1.7
			C33.2,20.3,33.3,20.2,33.3,20.1 M37.1,20.6c0,0.2,0.2,0.4,0.4,0.4c0.6,0,1.2,0,1.8,0c0.1,0,0.3-0.1,0.4-0.2c0-0.1,0-0.2,0-0.3
			c-0.1,0-0.2-0.1-0.3-0.1c-0.5,0-0.9,0-1.4,0C37.7,20.4,37.3,20.3,37.1,20.6 M33.9,22.3c0,4.3,0,8.6,0,12.9c3,0,6,0,9,0
			c0-4.3,0-8.6,0-12.9C39.9,22.3,36.9,22.3,33.9,22.3 M38,36c-0.3,0.2-0.6,0.5-0.5,0.8c0,0.5,0.4,1,0.9,1c0.5,0,1-0.5,0.9-1.1
			C39.3,36.2,38.5,35.7,38,36z"/>
		<path fill="#fff" class="accent" d="M35.6,0.9C36.3,0.5,37,0.1,37.8,0c0,0.6-0.3,1.2-0.6,1.8c-1,2-2.4,3.7-3.8,5.5c-2.7,3.4-5.7,6.5-8.9,9.4
			c-1.9,1.7-3.9,3.4-6.2,4.5c0,0.9-0.3,1.7-0.8,2.4c-0.6,0.9-1.3,1.7-2.1,2.5c-0.6,0.6-1.4,1.1-2.2,1.3c-1.1,0.4-2.4,0.5-3.6,0.6
			c0.4,0.1,0.9,0,1.4,0c3.9,0,7.9,0,11.8,0c0,0.2,0,0.4,0,0.5c-6.5,0-12.9,0-19.4,0c0-0.2,0-0.4,0-0.6c1.1,0,2.1,0,3.2,0
			c0.4,0,0.8-0.2,1.1-0.3c0.8-0.3,1.4-0.9,2-1.6c0.8-1,1.4-2.2,2.1-3.2c0.6-0.8,1.3-1.5,2.1-2.1c0.8-0.5,1.7-0.9,2.7-1.2
			c0.5-0.9,1-1.8,1.7-2.6c1.7-2.3,3.7-4.4,5.7-6.4c1.7-1.8,3.5-3.5,5.4-5.1C31.4,3.9,33.4,2.2,35.6,0.9 M14,21.6
			c-0.8,0.6-1.4,1.3-1.9,2.1c0.6,0.2,1.2,0.3,1.9,0.3c1,0,2-0.4,3-0.8c0.1-0.1,0.3-0.1,0.4-0.3c0.5-0.9,0.6-1.9,0.6-2.9
			C16.5,20.2,15.1,20.7,14,21.6z"/>
		<g id="_x23_999999ff">
			<path fill="#8C8C8C" d="M0.4,7.1c0.5-0.9,1.4-1.6,2.4-1.5c7.9,0,15.8,0,23.7,0c-0.7,0.6-1.3,1.2-1.9,1.8c-0.1,0.1-0.3,0.3-0.5,0.3
				c-7.4,0-14.7,0-22.1,0c0,7.5,0,15,0,22.4c10.3,0,20.7,0,31,0c0,1.4,0,2.9,0,4.3c-10.1,0-20.1,0-30.2,0c-0.4,0-0.7,0-1-0.1
				c-0.7-0.3-1.3-0.8-1.6-1.5C0.1,32.4,0,31.9,0,31.4c0-7.5,0-15.1,0-22.6C0,8.2,0.1,7.6,0.4,7.1 M19.4,31.6
				c-0.5,0.4-0.5,1.1-0.1,1.5c0.4,0.5,1.2,0.5,1.7,0c0.3-0.3,0.3-0.8,0.2-1.2C20.9,31.3,19.9,31.1,19.4,31.6z"/>
			<path fill="#8C8C8C" d="M37,5.6c0.4,0,0.8,0,1.2,0c1.3,0.3,2.4,1.6,2.3,3c0,3.5,0,6.9,0,10.4c-0.7,0-1.4,0-2.1,0
				c0-3.8,0-7.6,0-11.3c-1,0-1.9,0-2.9,0C36,7,36.5,6.3,37,5.6z"/>
			<path fill="#8C8C8C" d="M15.6,35.2c0.1-0.1,0.2-0.3,0.4-0.3c2.8,0,5.6,0,8.3,0c0.2,0,0.4,0.1,0.4,0.3c0,0.6,0,1.2,0,1.8
				c0,0.2,0,0.5-0.1,0.7c-3,0-6,0-9,0c0,0-0.1-0.1-0.1-0.2C15.6,36.8,15.6,36,15.6,35.2z"/>
			<path fill="#8C8C8C" d="M13.1,38.2c0.2,0,0.3-0.1,0.5-0.1c4.7,0,9.4,0,14,0c0.2,0,0.3,0,0.5,0.1c0,0.2,0,0.4,0,0.6c-5,0-10,0-15,0
				C13.1,38.6,13.1,38.4,13.1,38.2z"/>
		</g>
	</g>
</switch>
</svg>
